SplineFontDB: 3.0
FontName: LiberationSansNarrow-Italic
FullName: Liberation Sans Narrow Italic
FamilyName: Liberation Sans Narrow
Weight: Book
Copyright: Copyright 2010 Oracle and/or its affiliates
Version: 1.07.2
ItalicAngle: -12
UnderlinePosition: -142
UnderlineWidth: 150
Ascent: 1638
Descent: 410
LayerCount: 2
Layer: 0 1 "Back"  1
Layer: 1 1 "Fore"  0
NeedsXUIDChange: 1
FSType: 0
OS2Version: 1
OS2_WeightWidthSlopeOnly: 0
OS2_UseTypoMetrics: 1
CreationTime: 1123372800
ModificationTime: 1331118431
PfmFamily: 17
TTFWeight: 400
TTFWidth: 3
LineGap: 0
VLineGap: 0
Panose: 2 11 6 6 2 2 2 10 2 4
OS2TypoAscent: 1491
OS2TypoAOffset: 0
OS2TypoDescent: -431
OS2TypoDOffset: 0
OS2TypoLinegap: 269
OS2WinAscent: 1888
OS2WinAOffset: 0
OS2WinDescent: 431
OS2WinDOffset: 0
HheadAscent: 1916
HheadAOffset: 0
HheadDescent: -434
HheadDOffset: 0
OS2SubXSize: 1434
OS2SubYSize: 1331
OS2SubXOff: 0
OS2SubYOff: 147
OS2SupXSize: 1434
OS2SupYSize: 1331
OS2SupXOff: 0
OS2SupYOff: 523
OS2StrikeYSize: 102
OS2StrikeYPos: 530
OS2FamilyClass: 2053
OS2Vendor: 'OOoH'
OS2CodePages: 6000009f.dfd70000
OS2UnicodeRanges: a00002af.500078fb.00000000.00000000
Lookup: 1 0 0 "'locl' Localized Forms lookup 0"  {"'locl' Localized Forms lookup 0-1"  } ['locl' ('cyrl' <'SRB ' > 'cyrl' <'MKD ' > ) ]
Lookup: 258 0 0 "'kern' Horizontal Kerning lookup 0"  {"'kern' Horizontal Kerning lookup 0 subtable"  } ['kern' ('DFLT' <'dflt' > 'cyrl' <'dflt' > 'cyrl' <'SRB ' > 'cyrl' <'MKD ' > 'grek' <'dflt' > 'latn' <'dflt' > ) ]
MarkAttachClasses: 1
DEI: 91125
TtTable: prep
PUSHW_1
 511
SCANCTRL
PUSHB_1
 1
SCANTYPE
SVTCA[y-axis]
MPPEM
PUSHB_1
 8
LT
IF
PUSHB_2
 1
 1
INSTCTRL
EIF
PUSHB_2
 70
 6
CALL
IF
POP
PUSHB_1
 16
EIF
MPPEM
PUSHB_1
 20
GT
IF
POP
PUSHB_1
 128
EIF
SCVTCI
PUSHB_1
 6
CALL
NOT
IF
EIF
PUSHB_1
 20
CALL
EndTTInstrs
TtTable: fpgm
PUSHB_1
 0
FDEF
PUSHB_1
 0
SZP0
MPPEM
PUSHB_1
 42
LT
IF
PUSHB_1
 74
SROUND
EIF
PUSHB_1
 0
SWAP
MIAP[rnd]
RTG
PUSHB_1
 6
CALL
IF
RTDG
EIF
MPPEM
PUSHB_1
 42
LT
IF
RDTG
EIF
DUP
MDRP[rp0,rnd,grey]

StartChar: .notdef
Encoding: 65536 -1 0
Width: 467
Flags: W
LayerCount: 2
Fore
SplineSet
42 0 m 1,0,-1
 42 1365 l 1,1,-1
 382 1365 l 1,2,-1
 382 0 l 1,3,-1
 42 0 l 1,0,-1
85 68 m 1,4,-1
 340 68 l 1,5,-1
 340 1297 l 1,6,-1
 85 1297 l 1,7,-1
 85 68 l 1,4,-1
EndSplineSet
EndChar

StartChar: exclam
Encoding: 33 33 4
Width: 467
GlyphClass: 2
Flags: W
LayerCount: 2
Fore
SplineSet
270 397 m 1,0,-1
 149 397 l 1,1,-1
 290 1409 l 1,2,-1
 451 1409 l 1,3,-1
 270 397 l 1,0,-1
63 0 m 1,4,-1
 96 201 l 1,5,-1
 255 201 l 1,6,-1
 222 0 l 1,7,-1
 63 0 l 1,4,-1
EndSplineSet
EndChar

StartChar: quotedbl
Encoding: 34 34 5
Width: 596
GlyphClass: 2
Flags: W
LayerCount: 2
Fore
SplineSet
571 966 m 1,0,-1
 455 966 l 1,1,-1
 507 1409 l 1,2,-1
 658 1409 l 1,3,-1
 571 966 l 1,0,-1
269 966 m 1,4,-1
 153 966 l 1,5,-1
 205 1409 l 1,6,-1
 356 1409 l 1,7,-1
 269 966 l 1,4,-1
EndSplineSet
EndChar

StartChar: numbersign
Encoding: 35 35 6
Width: 934
GlyphClass: 2
Flags: W
LayerCount: 2
Fore
SplineSet
759 885 m 1,0,-1
 695 516 l 1,1,-1
 909 516 l 1,2,-1
 909 408 l 1,3,-1
 677 408 l 1,4,-1
 604 0 l 1,5,-1
 514 0 l 1,6,-1
 585 408 l 1,7,-1
 287 408 l 1,8,-1
 218 0 l 1,9,-1
 128 0 l 1,10,-1
 197 408 l 1,11,-1
 32 408 l 1,12,-1
 32 516 l 1,13,-1
 216 516 l 1,14,-1
 280 885 l 1,15,-1
 74 885 l 1,16,-1
 74 993 l 1,17,-1
 298 993 l 1,18,-1
 371 1401 l 1,19,-1
 462 1401 l 1,20,-1
 390 993 l 1,21,-1
 687 993 l 1,22,-1
 759 1401 l 1,23,-1
 850 1401 l 1,24,-1
 777 993 l 1,25,-1
 950 993 l 1,26,-1
 950 885 l 1,27,-1
 759 885 l 1,0,-1
373 885 m 1,28,-1
 308 516 l 1,29,-1
 604 516 l 1,30,-1
 668 885 l 1,31,-1
 373 885 l 1,28,-1
EndSplineSet
EndChar

StartChar: dollar
Encoding: 36 36 7
Width: 934
GlyphClass: 2
Flags: W
LayerCount: 2
Fore
SplineSet
879 425 m 0,0,1
 879 332 879 332 850 258.5 c 128,-1,2
 821 185 821 185 765 133.5 c 128,-1,3
 709 82 709 82 628 53.5 c 128,-1,4
 547 25 547 25 443 21 c 1,5,-1
 417 -140 l 1,6,-1
 324 -140 l 1,7,-1
 350 23 l 1,8,9
 185 37 185 37 98.5 127 c 128,-1,10
 12 217 12 217 -10 376 c 1,11,-1
 124 413 l 1,12,13
 134 358 134 358 153 314.5 c 128,-1,14
 172 271 172 271 202 240.5 c 128,-1,15
 232 210 232 210 274.5 192.5 c 128,-1,16
 317 175 317 175 373 170 c 1,17,-1
 452 663 l 1,18,19
 390 684 390 684 334.5 710.5 c 128,-1,20
 279 737 279 737 237.5 777.5 c 128,-1,21
 196 818 196 818 172 876 c 128,-1,22
 148 934 148 934 148 1018 c 0,23,24
 148 1111 148 1111 182.5 1179.5 c 128,-1,25
 217 1248 217 1248 275 1293.5 c 128,-1,26
 333 1339 333 1339 409 1361.5 c 128,-1,27
 485 1384 485 1384 567 1385 c 1,28,-1
 587 1516 l 1,29,-1
 681 1516 l 1,30,-1
 658 1379 l 1,31,32
 726 1369 726 1369 778.5 1343.5 c 128,-1,33
 831 1318 831 1318 867.5 1279.5 c 128,-1,34
 904 1241 904 1241 927 1192.5 c 128,-1,35
 950 1144 950 1144 959 1087 c 1,36,-1
 832 1042 l 1,37,38
 814 1123 814 1123 766 1172.5 c 128,-1,39
 718 1222 718 1222 636 1236 c 1,40,-1
 566 795 l 1,41,42
 624 776 624 776 680 747 c 128,-1,43
 736 718 736 718 780.5 674.5 c 128,-1,44
 825 631 825 631 852 570 c 128,-1,45
 879 509 879 509 879 425 c 0,0,1
727 413 m 0,46,47
 727 460 727 460 713.5 494 c 128,-1,48
 700 528 700 528 675.5 553 c 128,-1,49
 651 578 651 578 616.5 597 c 128,-1,50
 582 616 582 616 540 632 c 1,51,-1
 467 169 l 1,52,53
 527 173 527 173 575 188.5 c 128,-1,54
 623 204 623 204 656.5 233.5 c 128,-1,55
 690 263 690 263 708.5 307 c 128,-1,56
 727 351 727 351 727 413 c 0,46,47
298 1018 m 0,57,58
 298 978 298 978 309.5 949 c 128,-1,59
 321 920 321 920 344 897.5 c 128,-1,60
 367 875 367 875 401 858 c 128,-1,61
 435 841 435 841 477 825 c 1,62,-1
 544 1240 l 1,63,64
 478 1237 478 1237 431.5 1219 c 128,-1,65
 385 1201 385 1201 355.5 1172 c 128,-1,66
 326 1143 326 1143 312 1103.5 c 128,-1,67
 298 1064 298 1064 298 1018 c 0,57,58
EndSplineSet
EndChar

StartChar: percent
Encoding: 37 37 8
Width: 1493
GlyphClass: 2
Flags: W
LayerCount: 2
Fore
SplineSet
348 0 m 1,0,-1
 213 0 l 1,1,-1
 1186 1409 l 1,2,-1
 1322 1409 l 1,3,-1
 348 0 l 1,0,-1
447 1421 m 0,4,5
 490 1421 490 1421 528.5 1405 c 128,-1,6
 567 1389 567 1389 596.5 1352.5 c 128,-1,7
 626 1316 626 1316 642.5 1257 c 128,-1,8
 659 1198 659 1198 659 1113 c 0,9,10
 659 1076 659 1076 655.5 1029.5 c 128,-1,11
 652 983 652 983 644 935 c 0,12,13
 624 809 624 809 587.5 729 c 128,-1,14
 551 649 551 649 507.5 603.5 c 128,-1,15
 464 558 464 558 417.5 541 c 128,-1,16
 371 524 371 524 333 524 c 0,17,18
 288 524 288 524 249 542 c 128,-1,19
 210 560 210 560 181 598.5 c 128,-1,20
 152 637 152 637 136 697 c 128,-1,21
 120 757 120 757 120 841 c 0,22,23
 120 878 120 878 123 923.5 c 128,-1,24
 126 969 126 969 134 1015 c 0,25,26
 155 1146 155 1146 191 1226 c 128,-1,27
 227 1306 227 1306 270.5 1349.5 c 128,-1,28
 314 1393 314 1393 360.5 1407 c 128,-1,29
 407 1421 407 1421 447 1421 c 0,4,5
446 1313 m 0,30,31
 416 1313 416 1313 387 1301.5 c 128,-1,32
 358 1290 358 1290 332.5 1256.5 c 128,-1,33
 307 1223 307 1223 286 1163 c 128,-1,34
 265 1103 265 1103 249 1005 c 1,35,36
 233 899 233 899 233 827 c 0,37,38
 233 729 233 729 260 683 c 128,-1,39
 287 637 287 637 336 637 c 0,40,41
 365 637 365 637 392.5 649.5 c 128,-1,42
 420 662 420 662 445.5 696 c 128,-1,43
 471 730 471 730 492 790 c 128,-1,44
 513 850 513 850 528 945 c 0,45,46
 545 1056 545 1056 545 1131 c 0,47,48
 545 1227 545 1227 519.5 1270 c 128,-1,49
 494 1313 494 1313 446 1313 c 0,30,31
1208 885 m 0,50,51
 1251 885 1251 885 1290 869 c 128,-1,52
 1329 853 1329 853 1358 816.5 c 128,-1,53
 1387 780 1387 780 1404 721 c 128,-1,54
 1421 662 1421 662 1421 577 c 0,55,56
 1421 540 1421 540 1417 493.5 c 128,-1,57
 1413 447 1413 447 1406 399 c 0,58,59
 1386 273 1386 273 1349.5 193 c 128,-1,60
 1313 113 1313 113 1269.5 67.5 c 128,-1,61
 1226 22 1226 22 1179.5 5 c 128,-1,62
 1133 -12 1133 -12 1095 -12 c 0,63,64
 1050 -12 1050 -12 1011 6 c 128,-1,65
 972 24 972 24 943 62.5 c 128,-1,66
 914 101 914 101 897.5 161 c 128,-1,67
 881 221 881 221 881 305 c 0,68,69
 881 342 881 342 884.5 387.5 c 128,-1,70
 888 433 888 433 895 479 c 0,71,72
 916 610 916 610 952.5 690 c 128,-1,73
 989 770 989 770 1032.5 813.5 c 128,-1,74
 1076 857 1076 857 1122 871 c 128,-1,75
 1168 885 1168 885 1208 885 c 0,50,51
1208 777 m 0,76,77
 1178 777 1178 777 1149 765.5 c 128,-1,78
 1120 754 1120 754 1094.5 720.5 c 128,-1,79
 1069 687 1069 687 1047.5 627 c 128,-1,80
 1026 567 1026 567 1011 469 c 0,81,82
 995 363 995 363 995 291 c 0,83,84
 995 193 995 193 1022 147 c 128,-1,85
 1049 101 1049 101 1098 101 c 0,86,87
 1127 101 1127 101 1154 113.5 c 128,-1,88
 1181 126 1181 126 1206.5 160 c 128,-1,89
 1232 194 1232 194 1253.5 254 c 128,-1,90
 1275 314 1275 314 1290 409 c 0,91,92
 1307 520 1307 520 1307 595 c 0,93,94
 1307 691 1307 691 1281.5 734 c 128,-1,95
 1256 777 1256 777 1208 777 c 0,76,77
EndSplineSet
EndChar

StartChar: ampersand
Encoding: 38 38 9
Width: 1120
GlyphClass: 2
Flags: W
LayerCount: 2
Fore
SplineSet
1023 684 m 1,0,1
 1001 623 1001 623 975.5 560.5 c 128,-1,2
 950 498 950 498 921 436.5 c 128,-1,3
 892 375 892 375 858 317 c 128,-1,4
 824 259 824 259 785 208 c 1,5,6
 818 170 818 170 859 149.5 c 128,-1,7
 900 129 900 129 938 129 c 0,8,9
 964 129 964 129 985 132.5 c 128,-1,10
 1006 136 1006 136 1030 145 c 1,11,-1
 1019 10 l 1,12,13
 994 -1 994 -1 971 -6.5 c 128,-1,14
 948 -12 948 -12 917 -12 c 0,15,16
 856 -12 856 -12 799.5 19.5 c 128,-1,17
 743 51 743 51 694 110 c 1,18,19
 627 50 627 50 545 15 c 128,-1,20
 463 -20 463 -20 361 -20 c 0,21,22
 274 -20 274 -20 211 10 c 128,-1,23
 148 40 148 40 107 91 c 128,-1,24
 66 142 66 142 46.5 209.5 c 128,-1,25
 27 277 27 277 27 351 c 0,26,27
 27 441 27 441 50 508.5 c 128,-1,28
 73 576 73 576 117.5 628.5 c 128,-1,29
 162 681 162 681 228 723.5 c 128,-1,30
 294 766 294 766 379 806 c 1,31,32
 369 857 369 857 362.5 915 c 128,-1,33
 356 973 356 973 356 1036 c 0,34,35
 356 1119 356 1119 378 1189 c 128,-1,36
 400 1259 400 1259 442 1309.5 c 128,-1,37
 484 1360 484 1360 545 1388.5 c 128,-1,38
 606 1417 606 1417 683 1417 c 0,39,40
 740 1417 740 1417 787 1398 c 128,-1,41
 834 1379 834 1379 867.5 1344.5 c 128,-1,42
 901 1310 901 1310 919.5 1262 c 128,-1,43
 938 1214 938 1214 938 1155 c 0,44,45
 938 1095 938 1095 922 1048 c 128,-1,46
 906 1001 906 1001 878 962.5 c 128,-1,47
 850 924 850 924 811.5 893 c 128,-1,48
 773 862 773 862 727.5 835 c 128,-1,49
 682 808 682 808 632 784 c 2,50,-1
 530 734 l 1,51,52
 545 681 545 681 562.5 629.5 c 128,-1,53
 580 578 580 578 601 526.5 c 128,-1,54
 622 475 622 475 649 422.5 c 128,-1,55
 676 370 676 370 708 315 c 1,56,57
 741 361 741 361 770 412.5 c 128,-1,58
 799 464 799 464 824 518.5 c 128,-1,59
 849 573 849 573 872 629 c 128,-1,60
 895 685 895 685 915 739 c 1,61,-1
 1023 684 l 1,0,1
371 111 m 0,62,63
 444 111 444 111 504.5 138 c 128,-1,64
 565 165 565 165 617 212 c 1,65,66
 582 265 582 265 551.5 324 c 128,-1,67
 521 383 521 383 494.5 443.5 c 128,-1,68
 468 504 468 504 447 563.5 c 128,-1,69
 426 623 426 623 412 675 c 1,70,71
 354 647 354 647 308 617 c 128,-1,72
 262 587 262 587 230.5 550 c 128,-1,73
 199 513 199 513 182.5 465.5 c 128,-1,74
 166 418 166 418 166 354 c 0,75,76
 166 300 166 300 180 255.5 c 128,-1,77
 194 211 194 211 220.5 179 c 128,-1,78
 247 147 247 147 285 129 c 128,-1,79
 323 111 323 111 371 111 c 0,62,63
485 1041 m 0,80,81
 485 996 485 996 489.5 950.5 c 128,-1,82
 494 905 494 905 501 863 c 1,83,84
 501 863 501 863 622 918 c 0,85,86
 679 944 679 944 721 976 c 128,-1,87
 763 1008 763 1008 787.5 1049 c 128,-1,88
 812 1090 812 1090 812 1148 c 0,89,90
 812 1181 812 1181 802 1208 c 128,-1,91
 792 1235 792 1235 774.5 1254.5 c 128,-1,92
 757 1274 757 1274 732.5 1285 c 128,-1,93
 708 1296 708 1296 677 1296 c 0,94,95
 634 1296 634 1296 598.5 1280 c 128,-1,96
 563 1264 563 1264 538 1232 c 128,-1,97
 513 1200 513 1200 499 1152.5 c 128,-1,98
 485 1105 485 1105 485 1041 c 0,80,81
EndSplineSet
EndChar

StartChar: quotesingle
Encoding: 39 39 10
Width: 322
GlyphClass: 2
Flags: W
LayerCount: 2
Fore
SplineSet
282 966 m 1,0,-1
 166 966 l 1,1,-1
 218 1409 l 1,2,-1
 370 1409 l 1,3,-1
 282 966 l 1,0,-1
EndSplineSet
EndChar

StartChar: parenleft
Encoding: 40 40 11
Width: 559
GlyphClass: 2
Flags: W
LayerCount: 2
Fore
SplineSet
701 1484 m 1,0,1
 468 1234 468 1234 347.5 931 c 128,-1,2
 227 628 227 628 227 262 c 0,3,4
 227 72 227 72 268.5 -100 c 128,-1,5
 310 -272 310 -272 397 -424 c 1,6,-1
 254 -424 l 1,7,8
 164 -272 164 -272 121.5 -94.5 c 128,-1,9
 79 83 79 83 79 278 c 0,10,11
 79 459 79 459 109 628 c 128,-1,12
 139 797 139 797 199 949.5 c 128,-1,13
 259 1102 259 1102 349 1236.5 c 128,-1,14
 439 1371 439 1371 558 1484 c 1,15,-1
 701 1484 l 1,0,1
EndSplineSet
EndChar

StartChar: parenright
Encoding: 41 41 12
Width: 559
GlyphClass: 2
Flags: W
LayerCount: 2
Fore
SplineSet
-163 -424 m 1,0,1
 70 -174 70 -174 190.5 129 c 128,-1,2
 311 432 311 432 311 798 c 0,3,4
 311 988 311 988 269.5 1160 c 128,-1,5
 228 1332 228 1332 141 1484 c 1,6,-1
 284 1484 l 1,7,8
 374 1332 374 1332 416.5 1154.5 c 128,-1,9
 459 977 459 977 459 782 c 0,10,11
 459 601 459 601 429 432 c 128,-1,12
 399 263 399 263 339 110.5 c 128,-1,13
 279 -42 279 -42 189 -176.5 c 128,-1,14
 99 -311 99 -311 -20 -424 c 1,15,-1
 -163 -424 l 1,0,1
EndSplineSet
EndChar

StartChar: asterisk
Encoding: 42 42 13
Width: 653
GlyphClass: 2
Flags: W
LayerCount: 2
Fore
SplineSet
445 1114 m 1,0,-1
 661 1217 l 1,1,-1
 698 1085 l 1,2,-1
 467 1012 l 1,3,-1
 619 762 l 1,4,-1
 521 690 l 1,5,-1
 398 948 l 1,6,-1
 270 692 l 1,7,-1
 173 764 l 1,8,-1
 328 1012 l 1,9,-1
 98 1085 l 1,10,-1
 135 1219 l 1,11,-1
 354 1112 l 1,12,-1
 344 1409 l 1,13,-1
 456 1409 l 1,14,-1
 445 1114 l 1,0,-1
EndSplineSet
EndChar

StartChar: plus
Encoding: 43 43 14
Width: 981
GlyphClass: 2
Flags: W
LayerCount: 2
Fore
SplineSet
575 608 m 1,0,-1
 575 180 l 1,1,-1
 454 180 l 1,2,-1
 454 608 l 1,3,-1
 107 608 l 1,4,-1
 107 754 l 1,5,-1
 454 754 l 1,6,-1
 454 1182 l 1,7,-1
 575 1182 l 1,8,-1
 575 754 l 1,9,-1
 923 754 l 1,10,-1
 923 608 l 1,11,-1
 575 608 l 1,0,-1
EndSplineSet
EndChar

StartChar: comma
Encoding: 44 44 15
Width: 467
GlyphClass: 2
Flags: W
LayerCount: 2
Fore
SplineSet
245 51 m 2,0,1
 237 -2 237 -2 226 -45.5 c 128,-1,2
 215 -89 215 -89 201 -126.5 c 128,-1,3
 187 -164 187 -164 170 -197 c 128,-1,4
 153 -230 153 -230 131 -262 c 1,5,-1
 30 -262 l 1,6,7
 77 -197 77 -197 108 -131 c 128,-1,8
 139 -65 139 -65 149 0 c 1,9,-1
 77 0 l 1,10,-1
 112 219 l 1,11,-1
 272 219 l 1,12,-1
 245 51 l 2,0,1
EndSplineSet
EndChar

StartChar: hyphen
Encoding: 45 45 16
AltUni2: 0000ad.ffffffff.0 0000ad.ffffffff.0 0000ad.ffffffff.0 0000ad.ffffffff.0
Width: 559
GlyphClass: 2
Flags: W
LayerCount: 2
Fore
SplineSet
86 464 m 1,0,-1
 111 624 l 1,1,-1
 521 624 l 1,2,-1
 496 464 l 1,3,-1
 86 464 l 1,0,-1
EndSplineSet
EndChar

StartChar: period
Encoding: 46 46 17
Width: 467
GlyphClass: 2
Flags: W
LayerCount: 2
Fore
SplineSet
66 0 m 1,0,-1
 101 219 l 1,1,-1
 261 219 l 1,2,-1
 226 0 l 1,3,-1
 66 0 l 1,0,-1
EndSplineSet
EndChar

StartChar: slash
Encoding: 47 47 18
Width: 467
GlyphClass: 2
Flags: W
LayerCount: 2
Fore
SplineSet
-95 -20 m 1,0,-1
 482 1484 l 1,1,-1
 611 1484 l 1,2,-1
 37 -20 l 1,3,-1
 -95 -20 l 1,0,-1
EndSplineSet
EndChar

StartChar: zero
Encoding: 48 48 19
Width: 934
GlyphClass: 2
Flags: W
LayerCount: 2
Fore
SplineSet
600 1430 m 0,0,1
 666 1430 666 1430 725 1402.5 c 128,-1,2
 784 1375 784 1375 827 1318 c 128,-1,3
 870 1261 870 1261 895 1173 c 128,-1,4
 920 1085 920 1085 920 964 c 0,5,6
 920 901 920 901 915.5 824.5 c 128,-1,7
 911 748 911 748 897 665 c 0,8,9
 864 462 864 462 810 329.5 c 128,-1,10
 756 197 756 197 688.5 119.5 c 128,-1,11
 621 42 621 42 544 11 c 128,-1,12
 467 -20 467 -20 390 -20 c 0,13,14
 322 -20 322 -20 264 10 c 128,-1,15
 206 40 206 40 163.5 100 c 128,-1,16
 121 160 121 160 97 251 c 128,-1,17
 73 342 73 342 73 465 c 0,18,19
 73 498 73 498 74 529.5 c 128,-1,20
 75 561 75 561 77.5 594 c 128,-1,21
 80 627 80 627 84 664 c 128,-1,22
 88 701 88 701 94 745 c 0,23,24
 116 887 116 887 149 992.5 c 128,-1,25
 182 1098 182 1098 221.5 1174.5 c 128,-1,26
 261 1251 261 1251 307 1300.5 c 128,-1,27
 353 1350 353 1350 401 1378.5 c 128,-1,28
 449 1407 449 1407 500 1418.5 c 128,-1,29
 551 1430 551 1430 600 1430 c 0,0,1
403 127 m 0,30,31
 465 127 465 127 517.5 154 c 128,-1,32
 570 181 570 181 614 245.5 c 128,-1,33
 658 310 658 310 692.5 417 c 128,-1,34
 727 524 727 524 752 685 c 0,35,36
 766 770 766 770 771.5 842 c 128,-1,37
 777 914 777 914 777 973 c 0,38,39
 777 1128 777 1128 728 1206 c 128,-1,40
 679 1284 679 1284 590 1284 c 0,41,42
 528 1284 528 1284 475.5 1257 c 128,-1,43
 423 1230 423 1230 379 1165.5 c 128,-1,44
 335 1101 335 1101 301 994 c 128,-1,45
 267 887 267 887 241 726 c 0,46,47
 227 641 227 641 221.5 569 c 128,-1,48
 216 497 216 497 216 438 c 0,49,50
 216 283 216 283 265 205 c 128,-1,51
 314 127 314 127 403 127 c 0,30,31
EndSplineSet
EndChar

StartChar: one
Encoding: 49 49 20
Width: 934
GlyphClass: 2
Flags: W
LayerCount: 2
Fore
SplineSet
43 0 m 1,0,-1
 68 153 l 1,1,-1
 362 153 l 1,2,-1
 533 1223 l 1,3,-1
 237 1000 l 1,4,-1
 266 1180 l 1,5,-1
 575 1409 l 1,6,-1
 711 1409 l 1,7,-1
 511 153 l 1,8,-1
 792 153 l 1,9,-1
 768 0 l 1,10,-1
 43 0 l 1,0,-1
EndSplineSet
EndChar

StartChar: two
Encoding: 50 50 21
Width: 934
GlyphClass: 2
Flags: W
LayerCount: 2
Fore
SplineSet
-10 0 m 1,0,-1
 10 127 l 1,1,2
 55 220 55 220 110.5 293 c 128,-1,3
 166 366 166 366 227 425.5 c 128,-1,4
 288 485 288 485 350 534 c 2,5,-1
 472 628 l 2,6,7
 531 674 531 674 582 719 c 128,-1,8
 633 764 633 764 671.5 815 c 128,-1,9
 710 866 710 866 732 926.5 c 128,-1,10
 754 987 754 987 754 1063 c 0,11,12
 754 1114 754 1114 740.5 1154.5 c 128,-1,13
 727 1195 727 1195 702 1223.5 c 128,-1,14
 677 1252 677 1252 642 1267 c 128,-1,15
 607 1282 607 1282 565 1282 c 0,16,17
 476 1282 476 1282 409.5 1222.5 c 128,-1,18
 343 1163 343 1163 312 1044 c 1,19,-1
 173 1081 l 1,20,21
 193 1157 193 1157 226.5 1221 c 128,-1,22
 260 1285 260 1285 309 1331.5 c 128,-1,23
 358 1378 358 1378 424 1404 c 128,-1,24
 490 1430 490 1430 574 1430 c 0,25,26
 647 1430 647 1430 708.5 1405 c 128,-1,27
 770 1380 770 1380 814.5 1333.5 c 128,-1,28
 859 1287 859 1287 884 1222.5 c 128,-1,29
 909 1158 909 1158 909 1078 c 0,30,31
 909 993 909 993 885 921 c 128,-1,32
 861 849 861 849 820 787.5 c 128,-1,33
 779 726 779 726 725 672 c 128,-1,34
 671 618 671 618 611 568 c 1,35,-1
 488 470 l 1,36,37
 426 422 426 422 369 372 c 128,-1,38
 312 322 312 322 263.5 268.5 c 128,-1,39
 215 215 215 215 182 153 c 1,40,-1
 778 153 l 1,41,-1
 754 0 l 1,42,-1
 -10 0 l 1,0,-1
EndSplineSet
EndChar

StartChar: three
Encoding: 51 51 22
Width: 934
GlyphClass: 2
Flags: W
LayerCount: 2
Fore
SplineSet
464 795 m 2,0,1
 494 795 494 795 528 799 c 128,-1,2
 562 803 562 803 595 813.5 c 128,-1,3
 628 824 628 824 658.5 844 c 128,-1,4
 689 864 689 864 712 895.5 c 128,-1,5
 735 927 735 927 749 972.5 c 128,-1,6
 763 1018 763 1018 763 1081 c 0,7,8
 763 1125 763 1125 751 1162 c 128,-1,9
 739 1199 739 1199 715.5 1225.5 c 128,-1,10
 692 1252 692 1252 658.5 1267 c 128,-1,11
 625 1282 625 1282 581 1282 c 0,12,13
 483 1282 483 1282 413 1221 c 128,-1,14
 343 1160 343 1160 315 1049 c 1,15,-1
 169 1063 l 1,16,17
 217 1249 217 1249 326 1339.5 c 128,-1,18
 435 1430 435 1430 589 1430 c 0,19,20
 665 1430 665 1430 726 1406.5 c 128,-1,21
 787 1383 787 1383 830 1338.5 c 128,-1,22
 873 1294 873 1294 896 1230.5 c 128,-1,23
 919 1167 919 1167 919 1086 c 0,24,25
 919 1008 919 1008 898 944.5 c 128,-1,26
 877 881 877 881 838 834 c 128,-1,27
 799 787 799 787 743 757.5 c 128,-1,28
 687 728 687 728 617 717 c 1,29,-1
 617 713 l 1,30,31
 724 687 724 687 784 608.5 c 128,-1,32
 844 530 844 530 844 407 c 0,33,34
 844 320 844 320 818 242 c 128,-1,35
 792 164 792 164 741 106 c 128,-1,36
 690 48 690 48 612.5 14 c 128,-1,37
 535 -20 535 -20 431 -20 c 0,38,39
 338 -20 338 -20 269 12.5 c 128,-1,40
 200 45 200 45 153 97 c 128,-1,41
 106 149 106 149 78.5 212.5 c 128,-1,42
 51 276 51 276 39 338 c 1,43,-1
 174 386 l 1,44,45
 184 340 184 340 205 294.5 c 128,-1,46
 226 249 226 249 259 212 c 128,-1,47
 292 175 292 175 338 152 c 128,-1,48
 384 129 384 129 444 129 c 0,49,50
 505 129 505 129 550.5 149.5 c 128,-1,51
 596 170 596 170 627 206.5 c 128,-1,52
 658 243 658 243 674 293.5 c 128,-1,53
 690 344 690 344 690 404 c 256,54,55
 690 464 690 464 672.5 508 c 128,-1,56
 655 552 655 552 624.5 581 c 128,-1,57
 594 610 594 610 552 624.5 c 128,-1,58
 510 639 510 639 461 639 c 2,59,-1
 359 639 l 1,60,-1
 384 795 l 1,61,-1
 464 795 l 2,0,1
EndSplineSet
EndChar

StartChar: four
Encoding: 52 52 23
Width: 934
GlyphClass: 2
Flags: W
LayerCount: 2
Fore
SplineSet
694 319 m 1,0,-1
 643 0 l 1,1,-1
 495 0 l 1,2,-1
 546 319 l 1,3,-1
 11 319 l 1,4,-1
 33 459 l 1,5,-1
 704 1409 l 1,6,-1
 868 1409 l 1,7,-1
 717 461 l 1,8,-1
 871 461 l 1,9,-1
 848 319 l 1,10,-1
 694 319 l 1,0,-1
677 1157 m 1,11,-1
 186 461 l 1,12,-1
 569 461 l 1,13,-1
 677 1157 l 1,11,-1
EndSplineSet
EndChar

StartChar: five
Encoding: 53 53 24
Width: 934
GlyphClass: 2
Flags: W
LayerCount: 2
Fore
SplineSet
281 1409 m 1,0,-1
 938 1409 l 1,1,-1
 914 1256 l 1,2,-1
 392 1256 l 1,3,-1
 298 809 l 1,4,5
 314 825 314 825 336 841 c 128,-1,6
 358 857 358 857 387 870 c 128,-1,7
 416 883 416 883 450.5 891 c 128,-1,8
 485 899 485 899 526 899 c 0,9,10
 599 899 599 899 660.5 872.5 c 128,-1,11
 722 846 722 846 767 795.5 c 128,-1,12
 812 745 812 745 837 672 c 128,-1,13
 862 599 862 599 862 506 c 0,14,15
 862 387 862 387 833 290 c 128,-1,16
 804 193 804 193 747 124 c 128,-1,17
 690 55 690 55 606.5 17.5 c 128,-1,18
 523 -20 523 -20 414 -20 c 0,19,20
 327 -20 327 -20 263 5 c 128,-1,21
 199 30 199 30 154.5 74 c 128,-1,22
 110 118 110 118 81.5 178 c 128,-1,23
 53 238 53 238 38 309 c 1,24,-1
 171 352 l 1,25,26
 180 312 180 312 197.5 271.5 c 128,-1,27
 215 231 215 231 244.5 199 c 128,-1,28
 274 167 274 167 318 147 c 128,-1,29
 362 127 362 127 422 127 c 0,30,31
 486 127 486 127 538.5 149 c 128,-1,32
 591 171 591 171 628.5 216 c 128,-1,33
 666 261 666 261 686 328.5 c 128,-1,34
 706 396 706 396 706 486 c 0,35,36
 706 553 706 553 689 603 c 128,-1,37
 672 653 672 653 644 686 c 128,-1,38
 616 719 616 719 578 735.5 c 128,-1,39
 540 752 540 752 498 752 c 0,40,41
 419 752 419 752 364 723.5 c 128,-1,42
 309 695 309 695 267 651 c 1,43,-1
 122 651 l 1,44,-1
 281 1409 l 1,0,-1
EndSplineSet
EndChar

StartChar: six
Encoding: 54 54 25
Width: 934
GlyphClass: 2
Flags: W
LayerCount: 2
Fore
SplineSet
438 -20 m 0,0,1
 357 -20 357 -20 293 16 c 128,-1,2
 229 52 229 52 185 116.5 c 128,-1,3
 141 181 141 181 117.5 270 c 128,-1,4
 94 359 94 359 94 464 c 0,5,6
 94 519 94 519 98.5 585.5 c 128,-1,7
 103 652 103 652 113 715 c 0,8,9
 143 903 143 903 195 1038.5 c 128,-1,10
 247 1174 247 1174 314 1261 c 128,-1,11
 381 1348 381 1348 460.5 1389 c 128,-1,12
 540 1430 540 1430 624 1430 c 0,13,14
 680 1430 680 1430 729 1414.5 c 128,-1,15
 778 1399 778 1399 818.5 1365 c 128,-1,16
 859 1331 859 1331 888.5 1278.5 c 128,-1,17
 918 1226 918 1226 934 1151 c 1,18,-1
 798 1115 l 1,19,20
 778 1196 778 1196 731 1240 c 128,-1,21
 684 1284 684 1284 617 1284 c 0,22,23
 553 1284 553 1284 496.5 1249 c 128,-1,24
 440 1214 440 1214 393 1144 c 128,-1,25
 346 1074 346 1074 310 969.5 c 128,-1,26
 274 865 274 865 252 726 c 1,27,28
 301 816 301 816 376 863.5 c 128,-1,29
 451 911 451 911 544 911 c 0,30,31
 612 911 612 911 669.5 884.5 c 128,-1,32
 727 858 727 858 769 808.5 c 128,-1,33
 811 759 811 759 835 689 c 128,-1,34
 859 619 859 619 859 533 c 0,35,36
 859 422 859 422 829.5 322 c 128,-1,37
 800 222 800 222 745 146 c 128,-1,38
 690 70 690 70 612.5 25 c 128,-1,39
 535 -20 535 -20 438 -20 c 0,0,1
236 421 m 0,40,41
 236 360 236 360 249.5 306 c 128,-1,42
 263 252 263 252 289.5 211.5 c 128,-1,43
 316 171 316 171 354 148 c 128,-1,44
 392 125 392 125 441 125 c 0,45,46
 499 125 499 125 548 155.5 c 128,-1,47
 597 186 597 186 632 239.5 c 128,-1,48
 667 293 667 293 686.5 365.5 c 128,-1,49
 706 438 706 438 706 522 c 0,50,51
 706 637 706 637 657 704.5 c 128,-1,52
 608 772 608 772 517 772 c 0,53,54
 473 772 473 772 423 753.5 c 128,-1,55
 373 735 373 735 331.5 693.5 c 128,-1,56
 290 652 290 652 263 585 c 128,-1,57
 236 518 236 518 236 421 c 0,40,41
EndSplineSet
EndChar

StartChar: seven
Encoding: 55 55 26
Width: 934
GlyphClass: 2
Flags: W
LayerCount: 2
Fore
SplineSet
963 1263 m 1,0,1
 963 1263 963 1263 819 1056 c 0,2,3
 750 956 750 956 690 859 c 128,-1,4
 630 762 630 762 578 664 c 128,-1,5
 526 566 526 566 483.5 461.5 c 128,-1,6
 441 357 441 357 409 243 c 128,-1,7
 377 129 377 129 357 0 c 1,8,-1
 203 0 l 1,9,10
 234 191 234 191 293 356 c 128,-1,11
 352 521 352 521 431 672 c 128,-1,12
 510 823 510 823 606 966 c 1,13,-1
 809 1256 l 1,14,-1
 174 1256 l 1,15,-1
 198 1409 l 1,16,-1
 986 1409 l 1,17,-1
 963 1263 l 1,0,1
EndSplineSet
EndChar

StartChar: eight
Encoding: 56 56 27
Width: 934
GlyphClass: 2
Flags: W
LayerCount: 2
Fore
SplineSet
577 1429 m 0,0,1
 656 1429 656 1429 720 1405 c 128,-1,2
 784 1381 784 1381 829.5 1337 c 128,-1,3
 875 1293 875 1293 899.5 1230.5 c 128,-1,4
 924 1168 924 1168 924 1091 c 0,5,6
 924 1022 924 1022 905.5 961 c 128,-1,7
 887 900 887 900 853 853 c 128,-1,8
 819 806 819 806 770.5 775 c 128,-1,9
 722 744 722 744 662 733 c 1,10,-1
 661 729 l 1,11,12
 702 714 702 714 736.5 688 c 128,-1,13
 771 662 771 662 795.5 624.5 c 128,-1,14
 820 587 820 587 833.5 539 c 128,-1,15
 847 491 847 491 847 432 c 0,16,17
 847 335 847 335 819.5 252.5 c 128,-1,18
 792 170 792 170 737.5 109.5 c 128,-1,19
 683 49 683 49 601 14.5 c 128,-1,20
 519 -20 519 -20 410 -20 c 0,21,22
 317 -20 317 -20 248 8.5 c 128,-1,23
 179 37 179 37 134 88 c 128,-1,24
 89 139 89 139 66.5 208.5 c 128,-1,25
 44 278 44 278 44 360 c 0,26,27
 44 457 44 457 71.5 526 c 128,-1,28
 99 595 99 595 141.5 642 c 128,-1,29
 184 689 184 689 236.5 716 c 128,-1,30
 289 743 289 743 337 756 c 1,31,-1
 337 760 l 1,32,33
 262 798 262 798 221 873.5 c 128,-1,34
 180 949 180 949 180 1052 c 0,35,36
 180 1139 180 1139 207.5 1209 c 128,-1,37
 235 1279 235 1279 285.5 1327.5 c 128,-1,38
 336 1376 336 1376 410 1402.5 c 128,-1,39
 484 1429 484 1429 577 1429 c 0,0,1
540 811 m 0,40,41
 611 811 611 811 656 837.5 c 128,-1,42
 701 864 701 864 727 904.5 c 128,-1,43
 753 945 753 945 762.5 993.5 c 128,-1,44
 772 1042 772 1042 772 1087 c 0,45,46
 772 1185 772 1185 718 1239.5 c 128,-1,47
 664 1294 664 1294 560 1294 c 0,48,49
 510 1294 510 1294 467.5 1278.5 c 128,-1,50
 425 1263 425 1263 393.5 1231 c 128,-1,51
 362 1199 362 1199 345 1150 c 128,-1,52
 328 1101 328 1101 328 1033 c 0,53,54
 328 993 328 993 338.5 953.5 c 128,-1,55
 349 914 349 914 374 882.5 c 128,-1,56
 399 851 399 851 439.5 831 c 128,-1,57
 480 811 480 811 540 811 c 0,40,41
464 672 m 0,58,59
 397 672 397 672 346.5 649 c 128,-1,60
 296 626 296 626 263 584.5 c 128,-1,61
 230 543 230 543 213 485 c 128,-1,62
 196 427 196 427 196 356 c 0,63,64
 196 305 196 305 210 261 c 128,-1,65
 224 217 224 217 252 185 c 128,-1,66
 280 153 280 153 323.5 135 c 128,-1,67
 367 117 367 117 426 117 c 0,68,69
 483 117 483 117 532 137.5 c 128,-1,70
 581 158 581 158 617.5 198 c 128,-1,71
 654 238 654 238 675.5 297.5 c 128,-1,72
 697 357 697 357 697 436 c 0,73,74
 697 480 697 480 684.5 522.5 c 128,-1,75
 672 565 672 565 644.5 598 c 128,-1,76
 617 631 617 631 572.5 651.5 c 128,-1,77
 528 672 528 672 464 672 c 0,58,59
EndSplineSet
EndChar

StartChar: nine
Encoding: 57 57 28
Width: 934
GlyphClass: 2
Flags: W
LayerCount: 2
Fore
SplineSet
736 684 m 1,0,1
 685 590 685 590 616 535.5 c 128,-1,2
 547 481 547 481 458 481 c 0,3,4
 378 481 378 481 317.5 514 c 128,-1,5
 257 547 257 547 216 602 c 128,-1,6
 175 657 175 657 154.5 729.5 c 128,-1,7
 134 802 134 802 134 881 c 0,8,9
 134 994 134 994 164 1094 c 128,-1,10
 194 1194 194 1194 250 1268.5 c 128,-1,11
 306 1343 306 1343 384 1386.5 c 128,-1,12
 462 1430 462 1430 559 1430 c 0,13,14
 637 1430 637 1430 700 1399 c 128,-1,15
 763 1368 763 1368 807 1307.5 c 128,-1,16
 851 1247 851 1247 875.5 1159 c 128,-1,17
 900 1071 900 1071 900 957 c 0,18,19
 900 930 900 930 898 896 c 128,-1,20
 896 862 896 862 893.5 825.5 c 128,-1,21
 891 789 891 789 886.5 751 c 128,-1,22
 882 713 882 713 877 679 c 0,23,24
 847 491 847 491 794 358 c 128,-1,25
 741 225 741 225 674.5 141 c 128,-1,26
 608 57 608 57 530 18.5 c 128,-1,27
 452 -20 452 -20 371 -20 c 0,28,29
 239 -20 239 -20 163 52 c 128,-1,30
 87 124 87 124 57 257 c 1,31,-1
 187 302 l 1,32,33
 207 217 207 217 255 171 c 128,-1,34
 303 125 303 125 378 125 c 0,35,36
 444 125 444 125 499 162 c 128,-1,37
 554 199 554 199 599.5 270.5 c 128,-1,38
 645 342 645 342 679 446 c 128,-1,39
 713 550 713 550 736 684 c 1,0,1
759 1017 m 1,40,41
 759 1075 759 1075 745 1124 c 128,-1,42
 731 1173 731 1173 704 1208.5 c 128,-1,43
 677 1244 677 1244 640 1264 c 128,-1,44
 603 1284 603 1284 556 1284 c 0,45,46
 497 1284 497 1284 447 1256.5 c 128,-1,47
 397 1229 397 1229 360.5 1177.5 c 128,-1,48
 324 1126 324 1126 304 1050.5 c 128,-1,49
 284 975 284 975 284 879 c 0,50,51
 284 816 284 816 298 768 c 128,-1,52
 312 720 312 720 337 688 c 128,-1,53
 362 656 362 656 397.5 639.5 c 128,-1,54
 433 623 433 623 476 623 c 0,55,56
 517 623 517 623 560.5 640 c 128,-1,57
 604 657 604 657 642 692 c 128,-1,58
 680 727 680 727 709 780.5 c 128,-1,59
 738 834 738 834 750 907 c 0,60,61
 760 968 760 968 759 1017 c 1,40,41
EndSplineSet
EndChar

StartChar: colon
Encoding: 58 58 29
Width: 467
GlyphClass: 2
Flags: W
LayerCount: 2
Fore
SplineSet
206 875 m 1,0,-1
 240 1082 l 1,1,-1
 400 1082 l 1,2,-1
 366 875 l 1,3,-1
 206 875 l 1,0,-1
66 0 m 1,4,-1
 100 207 l 1,5,-1
 260 207 l 1,6,-1
 227 0 l 1,7,-1
 66 0 l 1,4,-1
EndSplineSet
EndChar

StartChar: semicolon
Encoding: 59 59 30
AltUni2: 00037e.ffffffff.0 00037e.ffffffff.0 00037e.ffffffff.0 00037e.ffffffff.0
Width: 467
GlyphClass: 2
Flags: W
LayerCount: 2
Fore
SplineSet
246 51 m 2,0,1
 238 -2 238 -2 227 -45.5 c 128,-1,2
 216 -89 216 -89 202 -126.5 c 128,-1,3
 188 -164 188 -164 170.5 -197 c 128,-1,4
 153 -230 153 -230 132 -262 c 1,5,-1
 31 -262 l 1,6,7
 78 -197 78 -197 109 -131 c 128,-1,8
 140 -65 140 -65 150 0 c 1,9,-1
 78 0 l 1,10,-1
 111 207 l 1,11,-1
 271 207 l 1,12,-1
 246 51 l 2,0,1
218 875 m 1,13,-1
 250 1082 l 1,14,-1
 410 1082 l 1,15,-1
 378 875 l 1,16,-1
 218 875 l 1,13,-1
EndSplineSet
EndChar

StartChar: less
Encoding: 60 60 31
Width: 981
GlyphClass: 2
Flags: W
LayerCount: 2
Fore
SplineSet
107 571 m 1,0,-1
 107 776 l 1,1,-1
 924 1194 l 1,2,-1
 924 1040 l 1,3,-1
 220 674 l 1,4,-1
 924 307 l 1,5,-1
 924 154 l 1,6,-1
 107 571 l 1,0,-1
EndSplineSet
EndChar

StartChar: equal
Encoding: 61 61 32
Width: 981
GlyphClass: 2
Flags: W
LayerCount: 2
Fore
SplineSet
107 856 m 1,0,-1
 107 1004 l 1,1,-1
 923 1004 l 1,2,-1
 923 856 l 1,3,-1
 107 856 l 1,0,-1
107 344 m 1,4,-1
 107 492 l 1,5,-1
 923 492 l 1,6,-1
 923 344 l 1,7,-1
 107 344 l 1,4,-1
EndSplineSet
EndChar

StartChar: greater
Encoding: 62 62 33
Width: 981
GlyphClass: 2
Flags: W
LayerCount: 2
Fore
SplineSet
107 154 m 1,0,-1
 107 307 l 1,1,-1
 811 674 l 1,2,-1
 107 1040 l 1,3,-1
 107 1194 l 1,4,-1
 924 776 l 1,5,-1
 924 571 l 1,6,-1
 107 154 l 1,0,-1
EndSplineSet
EndChar

StartChar: question
Encoding: 63 63 34
Width: 934
GlyphClass: 2
Flags: W
LayerCount: 2
Fore
SplineSet
575 1430 m 0,0,1
 658 1430 658 1430 723.5 1403 c 128,-1,2
 789 1376 789 1376 834.5 1328 c 128,-1,3
 880 1280 880 1280 904.5 1215 c 128,-1,4
 929 1150 929 1150 929 1073 c 0,5,6
 929 976 929 976 904 907.5 c 128,-1,7
 879 839 879 839 839.5 788.5 c 128,-1,8
 800 738 800 738 750 701 c 2,9,-1
 651 629 l 2,10,11
 617 605 617 605 584.5 579.5 c 128,-1,12
 552 554 552 554 525.5 524.5 c 128,-1,13
 499 495 499 495 480.5 459 c 128,-1,14
 462 423 462 423 455 377 c 1,15,-1
 312 377 l 1,16,17
 323 455 323 455 349.5 511.5 c 128,-1,18
 376 568 376 568 412.5 610.5 c 128,-1,19
 449 653 449 653 492 685 c 2,20,-1
 576 746 l 1,21,22
 615 773 615 773 651 801.5 c 128,-1,23
 687 830 687 830 715 865 c 128,-1,24
 743 900 743 900 759.5 945.5 c 128,-1,25
 776 991 776 991 776 1052 c 0,26,27
 776 1100 776 1100 760.5 1140.5 c 128,-1,28
 745 1181 745 1181 716.5 1209.5 c 128,-1,29
 688 1238 688 1238 648.5 1254 c 128,-1,30
 609 1270 609 1270 561 1270 c 0,31,32
 446 1270 446 1270 371.5 1200 c 128,-1,33
 297 1130 297 1130 266 1008 c 1,34,-1
 130 1048 l 1,35,36
 152 1132 152 1132 188 1202 c 128,-1,37
 224 1272 224 1272 277.5 1322.5 c 128,-1,38
 331 1373 331 1373 404.5 1401.5 c 128,-1,39
 478 1430 478 1430 575 1430 c 0,0,1
245 0 m 1,40,-1
 277 201 l 1,41,-1
 437 201 l 1,42,-1
 405 0 l 1,43,-1
 245 0 l 1,40,-1
EndSplineSet
EndChar

StartChar: at
Encoding: 64 64 35
Width: 1704
GlyphClass: 2
Flags: W
LayerCount: 2
Fore
SplineSet
1586 755 m 0,0,1
 1586 611 1586 611 1558.5 491.5 c 128,-1,2
 1531 372 1531 372 1482.5 286 c 128,-1,3
 1434 200 1434 200 1367 152 c 128,-1,4
 1300 104 1300 104 1220 104 c 0,5,6
 1174 104 1174 104 1141.5 117.5 c 128,-1,7
 1109 131 1109 131 1089 154.5 c 128,-1,8
 1069 178 1069 178 1059.5 210 c 128,-1,9
 1050 242 1050 242 1050 280 c 0,10,11
 1050 295 1050 295 1051 316.5 c 128,-1,12
 1052 338 1052 338 1052 350 c 1,13,-1
 1047 350 l 1,14,15
 1027 305 1027 305 999 260.5 c 128,-1,16
 971 216 971 216 933 181.5 c 128,-1,17
 895 147 895 147 847 125.5 c 128,-1,18
 799 104 799 104 741 104 c 0,19,20
 672 104 672 104 621 133 c 128,-1,21
 570 162 570 162 536.5 213.5 c 128,-1,22
 503 265 503 265 486.5 335.5 c 128,-1,23
 470 406 470 406 470 489 c 0,24,25
 470 609 470 609 499.5 719.5 c 128,-1,26
 529 830 529 830 583 914.5 c 128,-1,27
 637 999 637 999 712.5 1050 c 128,-1,28
 788 1101 788 1101 882 1101 c 0,29,30
 931 1101 931 1101 970.5 1087.5 c 128,-1,31
 1010 1074 1010 1074 1040 1050 c 128,-1,32
 1070 1026 1070 1026 1092 992.5 c 128,-1,33
 1114 959 1114 959 1129 919 c 1,34,-1
 1134 919 l 1,35,-1
 1166 1079 l 1,36,-1
 1293 1079 l 1,37,-1
 1198 573 l 2,38,39
 1182 489 1182 489 1175 429 c 128,-1,40
 1168 369 1168 369 1168 320 c 0,41,42
 1168 272 1168 272 1185.5 249 c 128,-1,43
 1203 226 1203 226 1234 226 c 0,44,45
 1285 226 1285 226 1329 266.5 c 128,-1,46
 1373 307 1373 307 1405.5 378 c 128,-1,47
 1438 449 1438 449 1456.5 545 c 128,-1,48
 1475 641 1475 641 1475 753 c 0,49,50
 1475 882 1475 882 1440.5 993 c 128,-1,51
 1406 1104 1406 1104 1340.5 1185 c 128,-1,52
 1275 1266 1275 1266 1177 1312 c 128,-1,53
 1079 1358 1079 1358 952 1358 c 0,54,55
 842 1358 842 1358 749 1326 c 128,-1,56
 656 1294 656 1294 580.5 1236 c 128,-1,57
 505 1178 505 1178 448 1097.5 c 128,-1,58
 391 1017 391 1017 352.5 921 c 128,-1,59
 314 825 314 825 294.5 716 c 128,-1,60
 275 607 275 607 275 491 c 0,61,62
 275 350 275 350 310 231 c 128,-1,63
 345 112 345 112 412.5 26.5 c 128,-1,64
 480 -59 480 -59 580 -107 c 128,-1,65
 680 -155 680 -155 809 -155 c 0,66,67
 895 -155 895 -155 969.5 -138.5 c 128,-1,68
 1044 -122 1044 -122 1106.5 -98 c 128,-1,69
 1169 -74 1169 -74 1218.5 -45.5 c 128,-1,70
 1268 -17 1268 -17 1303 7 c 1,71,-1
 1348 -105 l 1,72,73
 1307 -135 1307 -135 1252 -166.5 c 128,-1,74
 1197 -198 1197 -198 1129 -224 c 128,-1,75
 1061 -250 1061 -250 980.5 -266.5 c 128,-1,76
 900 -283 900 -283 809 -283 c 0,77,78
 653 -283 653 -283 532 -225.5 c 128,-1,79
 411 -168 411 -168 328.5 -65 c 128,-1,80
 246 38 246 38 202.5 180 c 128,-1,81
 159 322 159 322 159 491 c 0,82,83
 159 630 159 630 185 758 c 128,-1,84
 211 886 211 886 259 996 c 128,-1,85
 307 1106 307 1106 377 1196 c 128,-1,86
 447 1286 447 1286 535 1350 c 128,-1,87
 623 1414 623 1414 727.5 1449 c 128,-1,88
 832 1484 832 1484 950 1484 c 0,89,90
 1115 1484 1115 1484 1234.5 1425 c 128,-1,91
 1354 1366 1354 1366 1432.5 1266 c 128,-1,92
 1511 1166 1511 1166 1548.5 1034 c 128,-1,93
 1586 902 1586 902 1586 755 c 0,0,1
1089 747 m 0,94,95
 1089 797 1089 797 1075 839 c 128,-1,96
 1061 881 1061 881 1035.5 911 c 128,-1,97
 1010 941 1010 941 973.5 957.5 c 128,-1,98
 937 974 937 974 891 974 c 0,99,100
 821 974 821 974 767.5 931.5 c 128,-1,101
 714 889 714 889 678.5 820 c 128,-1,102
 643 751 643 751 624.5 664.5 c 128,-1,103
 606 578 606 578 606 491 c 0,104,105
 606 371 606 371 645 303 c 128,-1,106
 684 235 684 235 765 235 c 0,107,108
 822 235 822 235 871 266 c 128,-1,109
 920 297 920 297 959.5 348 c 128,-1,110
 999 399 999 399 1027.5 465.5 c 128,-1,111
 1056 532 1056 532 1070 602 c 0,112,113
 1077 638 1077 638 1083 678 c 128,-1,114
 1089 718 1089 718 1089 747 c 0,94,95
EndSplineSet
EndChar

StartChar: A
Encoding: 65 65 36
Width: 1120
GlyphClass: 2
Flags: W
LayerCount: 2
Fore
SplineSet
870 0 m 1,0,-1
 808 412 l 1,1,-1
 285 412 l 1,2,-1
 88 0 l 1,3,-1
 -83 0 l 1,4,-1
 612 1409 l 1,5,-1
 790 1409 l 1,6,-1
 1030 0 l 1,7,-1
 870 0 l 1,0,-1
714 1034 m 2,8,9
 707 1075 707 1075 701 1114 c 128,-1,10
 695 1153 695 1153 691 1185.5 c 128,-1,11
 687 1218 687 1218 684 1239.5 c 128,-1,12
 681 1261 681 1261 681 1265 c 1,13,14
 679 1261 679 1261 670 1239 c 2,15,-1
 646 1184 l 1,16,-1
 612 1112 l 1,17,-1
 575 1033 l 1,18,-1
 353 561 l 1,19,-1
 785 561 l 1,20,-1
 714 1034 l 2,8,9
EndSplineSet
EndChar

StartChar: B
Encoding: 66 66 37
Width: 1120
GlyphClass: 2
Flags: W
LayerCount: 2
Fore
SplineSet
275 1409 m 1,0,-1
 694 1409 l 2,1,2
 779 1409 779 1409 847 1387 c 128,-1,3
 915 1365 915 1365 963 1323.5 c 128,-1,4
 1011 1282 1011 1282 1037 1222 c 128,-1,5
 1063 1162 1063 1162 1063 1087 c 0,6,7
 1063 941 1063 941 992.5 856.5 c 128,-1,8
 922 772 922 772 785 743 c 1,9,10
 843 731 843 731 887.5 703.5 c 128,-1,11
 932 676 932 676 962 636 c 128,-1,12
 992 596 992 596 1007 546 c 128,-1,13
 1022 496 1022 496 1022 439 c 0,14,15
 1022 356 1022 356 1003.5 291 c 128,-1,16
 985 226 985 226 951 177 c 128,-1,17
 917 128 917 128 871.5 94.5 c 128,-1,18
 826 61 826 61 772.5 40 c 128,-1,19
 719 19 719 19 659.5 9.5 c 128,-1,20
 600 0 600 0 540 0 c 2,21,-1
 52 0 l 1,22,-1
 275 1409 l 1,0,-1
337 810 m 1,23,-1
 608 810 l 2,24,25
 756 810 756 810 827.5 875 c 128,-1,26
 899 940 899 940 899 1068 c 0,27,28
 899 1163 899 1163 843 1209.5 c 128,-1,29
 787 1256 787 1256 680 1256 c 2,30,-1
 408 1256 l 1,31,-1
 337 810 l 1,23,-1
232 153 m 1,32,-1
 534 153 l 2,33,34
 598 153 598 153 658 165 c 128,-1,35
 718 177 718 177 764 209 c 128,-1,36
 810 241 810 241 838 297 c 128,-1,37
 866 353 866 353 866 442 c 0,38,39
 866 549 866 549 800.5 605 c 128,-1,40
 735 661 735 661 613 661 c 2,41,-1
 313 661 l 1,42,-1
 232 153 l 1,32,-1
EndSplineSet
EndChar

StartChar: C
Encoding: 67 67 38
Width: 1212
GlyphClass: 2
Flags: W
LayerCount: 2
Fore
SplineSet
1113 337 m 1,0,1
 1073 264 1073 264 1023 199 c 128,-1,2
 973 134 973 134 908.5 85.5 c 128,-1,3
 844 37 844 37 761.5 8.5 c 128,-1,4
 679 -20 679 -20 574 -20 c 0,5,6
 453 -20 453 -20 362 26 c 128,-1,7
 271 72 271 72 211.5 151.5 c 128,-1,8
 152 231 152 231 122.5 338.5 c 128,-1,9
 93 446 93 446 93 569 c 0,10,11
 93 693 93 693 115 805 c 128,-1,12
 137 917 137 917 178 1012.5 c 128,-1,13
 219 1108 219 1108 278 1185.5 c 128,-1,14
 337 1263 337 1263 411 1317 c 128,-1,15
 485 1371 485 1371 572.5 1400.5 c 128,-1,16
 660 1430 660 1430 759 1430 c 0,17,18
 865 1430 865 1430 944.5 1400.5 c 128,-1,19
 1024 1371 1024 1371 1080.5 1323 c 128,-1,20
 1137 1275 1137 1275 1171 1213 c 128,-1,21
 1205 1151 1205 1151 1221 1085 c 1,22,-1
 1074 1030 l 1,23,24
 1062 1077 1062 1077 1036 1120.5 c 128,-1,25
 1010 1164 1010 1164 970.5 1198.5 c 128,-1,26
 931 1233 931 1233 876.5 1253.5 c 128,-1,27
 822 1274 822 1274 751 1274 c 0,28,29
 631 1274 631 1274 537.5 1220.5 c 128,-1,30
 444 1167 444 1167 379.5 1072.5 c 128,-1,31
 315 978 315 978 281 848.5 c 128,-1,32
 247 719 247 719 247 566 c 0,33,34
 247 472 247 472 268.5 393 c 128,-1,35
 290 314 290 314 332 256.5 c 128,-1,36
 374 199 374 199 437.5 167 c 128,-1,37
 501 135 501 135 584 135 c 0,38,39
 658 135 658 135 719.5 159.5 c 128,-1,40
 781 184 781 184 832 224.5 c 128,-1,41
 883 265 883 265 924 317.5 c 128,-1,42
 965 370 965 370 996 426 c 1,43,-1
 1113 337 l 1,0,1
EndSplineSet
EndChar

StartChar: D
Encoding: 68 68 39
Width: 1212
GlyphClass: 2
Flags: W
LayerCount: 2
Fore
SplineSet
610 1409 m 2,0,1
 731 1409 731 1409 832 1369.5 c 128,-1,2
 933 1330 933 1330 1005.5 1252 c 128,-1,3
 1078 1174 1078 1174 1118 1058.5 c 128,-1,4
 1158 943 1158 943 1158 791 c 0,5,6
 1158 658 1158 658 1132 548 c 128,-1,7
 1106 438 1106 438 1059.5 350 c 128,-1,8
 1013 262 1013 262 949 196.5 c 128,-1,9
 885 131 885 131 809 87 c 128,-1,10
 733 43 733 43 647 21.5 c 128,-1,11
 561 0 561 0 471 0 c 2,12,-1
 52 0 l 1,13,-1
 275 1409 l 1,14,-1
 610 1409 l 2,0,1
232 153 m 1,15,-1
 465 153 l 2,16,17
 585 153 585 153 684 197 c 128,-1,18
 783 241 783 241 853 323.5 c 128,-1,19
 923 406 923 406 961 524.5 c 128,-1,20
 999 643 999 643 999 793 c 0,21,22
 999 913 999 913 969 1000 c 128,-1,23
 939 1087 939 1087 886.5 1144 c 128,-1,24
 834 1201 834 1201 762 1228.5 c 128,-1,25
 690 1256 690 1256 606 1256 c 2,26,-1
 408 1256 l 1,27,-1
 232 153 l 1,15,-1
EndSplineSet
EndChar

StartChar: E
Encoding: 69 69 40
Width: 1120
GlyphClass: 2
Flags: W
LayerCount: 2
Fore
SplineSet
52 0 m 1,0,-1
 275 1409 l 1,1,-1
 1136 1409 l 1,2,-1
 1111 1253 l 1,3,-1
 408 1253 l 1,4,-1
 335 801 l 1,5,-1
 990 801 l 1,6,-1
 965 647 l 1,7,-1
 311 647 l 1,8,-1
 233 156 l 1,9,-1
 970 156 l 1,10,-1
 945 0 l 1,11,-1
 52 0 l 1,0,-1
EndSplineSet
EndChar

StartChar: F
Encoding: 70 70 41
Width: 1026
GlyphClass: 2
Flags: W
LayerCount: 2
Fore
SplineSet
408 1253 m 1,0,-1
 324 729 l 1,1,-1
 977 729 l 1,2,-1
 951 571 l 1,3,-1
 299 571 l 1,4,-1
 208 0 l 1,5,-1
 52 0 l 1,6,-1
 276 1409 l 1,7,-1
 1105 1409 l 1,8,-1
 1080 1253 l 1,9,-1
 408 1253 l 1,0,-1
EndSplineSet
EndChar

StartChar: G
Encoding: 71 71 42
Width: 1307
GlyphClass: 2
Flags: W
LayerCount: 2
Fore
SplineSet
1140 210 m 1,0,1
 1094 162 1094 162 1040.5 120 c 128,-1,2
 987 78 987 78 922 47 c 128,-1,3
 857 16 857 16 779.5 -2 c 128,-1,4
 702 -20 702 -20 609 -20 c 0,5,6
 476 -20 476 -20 377 23.5 c 128,-1,7
 278 67 278 67 213 145 c 128,-1,8
 148 223 148 223 115.5 332 c 128,-1,9
 83 441 83 441 83 573 c 0,10,11
 83 761 83 761 131.5 918.5 c 128,-1,12
 180 1076 180 1076 270 1189.5 c 128,-1,13
 360 1303 360 1303 488 1366.5 c 128,-1,14
 616 1430 616 1430 775 1430 c 0,15,16
 882 1430 882 1430 960.5 1403 c 128,-1,17
 1039 1376 1039 1376 1094 1330 c 128,-1,18
 1149 1284 1149 1284 1183 1224 c 128,-1,19
 1217 1164 1217 1164 1235 1098 c 1,20,-1
 1076 1044 l 1,21,22
 1064 1091 1064 1091 1041 1132.5 c 128,-1,23
 1018 1174 1018 1174 981 1205.5 c 128,-1,24
 944 1237 944 1237 890.5 1255.5 c 128,-1,25
 837 1274 837 1274 765 1274 c 0,26,27
 639 1274 639 1274 542 1221.5 c 128,-1,28
 445 1169 445 1169 378.5 1075.5 c 128,-1,29
 312 982 312 982 278 854.5 c 128,-1,30
 244 727 244 727 244 577 c 0,31,32
 244 480 244 480 266 399 c 128,-1,33
 288 318 288 318 333.5 259.5 c 128,-1,34
 379 201 379 201 449 168 c 128,-1,35
 519 135 519 135 614 135 c 0,36,37
 689 135 689 135 750.5 150 c 128,-1,38
 812 165 812 165 861.5 187.5 c 128,-1,39
 911 210 911 210 948 238 c 128,-1,40
 985 266 985 266 1010 291 c 1,41,-1
 1052 545 l 1,42,-1
 706 545 l 1,43,-1
 733 705 l 1,44,-1
 1222 705 l 1,45,-1
 1140 210 l 1,0,1
EndSplineSet
EndChar

StartChar: H
Encoding: 72 72 43
Width: 1212
GlyphClass: 2
Flags: W
LayerCount: 2
Fore
SplineSet
837 0 m 1,0,-1
 941 653 l 1,1,-1
 312 653 l 1,2,-1
 208 0 l 1,3,-1
 52 0 l 1,4,-1
 276 1409 l 1,5,-1
 433 1409 l 1,6,-1
 338 813 l 1,7,-1
 966 813 l 1,8,-1
 1061 1409 l 1,9,-1
 1214 1409 l 1,10,-1
 989 0 l 1,11,-1
 837 0 l 1,0,-1
EndSplineSet
EndChar

StartChar: I
Encoding: 73 73 44
Width: 467
GlyphClass: 2
Flags: W
LayerCount: 2
Fore
SplineSet
66 0 m 1,0,-1
 291 1409 l 1,1,-1
 448 1409 l 1,2,-1
 223 0 l 1,3,-1
 66 0 l 1,0,-1
EndSplineSet
EndChar

StartChar: J
Encoding: 74 74 45
Width: 840
GlyphClass: 2
Flags: W
LayerCount: 2
Fore
SplineSet
313 -20 m 0,0,1
 183 -20 183 -20 100 73 c 128,-1,2
 17 166 17 166 -4 343 c 1,3,-1
 134 376 l 1,4,5
 153 259 153 259 198.5 197 c 128,-1,6
 244 135 244 135 326 135 c 0,7,8
 375 135 375 135 411.5 157 c 128,-1,9
 448 179 448 179 474 219 c 128,-1,10
 500 259 500 259 516.5 315.5 c 128,-1,11
 533 372 533 372 544 440 c 2,12,-1
 673 1253 l 1,13,-1
 434 1253 l 1,14,-1
 459 1409 l 1,15,-1
 853 1409 l 1,16,-1
 695 423 l 2,17,18
 679 323 679 323 650 241 c 128,-1,19
 621 159 621 159 575.5 101 c 128,-1,20
 530 43 530 43 465.5 11.5 c 128,-1,21
 401 -20 401 -20 313 -20 c 0,0,1
EndSplineSet
EndChar

StartChar: K
Encoding: 75 75 46
Width: 1120
GlyphClass: 2
Flags: W
LayerCount: 2
Fore
SplineSet
838 0 m 1,0,-1
 451 674 l 1,1,-1
 295 545 l 1,2,-1
 208 0 l 1,3,-1
 52 0 l 1,4,-1
 275 1409 l 1,5,-1
 432 1409 l 1,6,-1
 321 718 l 1,7,-1
 435 847 l 1,8,-1
 981 1409 l 1,9,-1
 1181 1409 l 1,10,-1
 567 779 l 1,11,-1
 1023 0 l 1,12,-1
 838 0 l 1,0,-1
EndSplineSet
EndChar

StartChar: L
Encoding: 76 76 47
Width: 934
GlyphClass: 2
Flags: W
LayerCount: 2
Fore
SplineSet
52 0 m 1,0,-1
 276 1409 l 1,1,-1
 432 1409 l 1,2,-1
 233 156 l 1,3,-1
 817 156 l 1,4,-1
 792 0 l 1,5,-1
 52 0 l 1,0,-1
EndSplineSet
EndChar

StartChar: M
Encoding: 77 77 48
Width: 1399
GlyphClass: 2
Flags: W
LayerCount: 2
Fore
SplineSet
1034 0 m 1,0,-1
 1182 928 l 1,1,2
 1182 928 1182 928 1199 1032 c 1,3,-1
 1216 1129 l 2,4,5
 1225 1180 1225 1180 1235 1228 c 1,6,7
 1215 1176 1215 1176 1193 1125 c 2,8,9
 1193 1125 1193 1125 1154 1033 c 0,10,11
 1134 985 1134 985 1116 948 c 2,12,-1
 667 0 l 1,13,-1
 565 0 l 1,14,-1
 413 948 l 2,15,16
 408 978 408 978 402 1026 c 2,17,-1
 392 1118 l 1,18,-1
 380 1228 l 1,19,20
 380 1228 380 1228 366 1117 c 1,21,22
 366 1117 366 1117 352 1019 c 2,23,-1
 339 928 l 1,24,-1
 191 0 l 1,25,-1
 52 0 l 1,26,-1
 276 1409 l 1,27,-1
 469 1409 l 1,28,-1
 624 432 l 2,29,30
 626 417 626 417 631 383.5 c 128,-1,31
 636 350 636 350 640 315 c 0,32,33
 645 275 645 275 650 227 c 1,34,35
 650 227 650 227 683 311 c 1,36,37
 683 311 683 311 712 382 c 2,38,-1
 736 440 l 1,39,-1
 1189 1409 l 1,40,-1
 1399 1409 l 1,41,-1
 1175 0 l 1,42,-1
 1034 0 l 1,0,-1
EndSplineSet
EndChar

StartChar: N
Encoding: 78 78 49
Width: 1212
GlyphClass: 2
Flags: W
LayerCount: 2
Fore
SplineSet
809 0 m 1,0,-1
 374 1210 l 1,1,2
 369 1164 369 1164 363 1116 c 2,3,4
 363 1116 363 1116 352 1028 c 0,5,6
 346 982 346 982 339 943 c 2,7,-1
 191 0 l 1,8,-1
 52 0 l 1,9,-1
 275 1409 l 1,10,-1
 449 1409 l 1,11,-1
 887 194 l 1,12,13
 892 237 892 237 897 285 c 2,14,-1
 908 376 l 2,15,16
 915 427 915 427 924 478 c 2,17,-1
 1072 1409 l 1,18,-1
 1213 1409 l 1,19,-1
 989 0 l 1,20,-1
 809 0 l 1,0,-1
EndSplineSet
EndChar

StartChar: O
Encoding: 79 79 50
Width: 1307
GlyphClass: 2
Flags: W
LayerCount: 2
Fore
SplineSet
770 1430 m 0,0,1
 888 1430 888 1430 979 1387.5 c 128,-1,2
 1070 1345 1070 1345 1132.5 1268 c 128,-1,3
 1195 1191 1195 1191 1227.5 1085 c 128,-1,4
 1260 979 1260 979 1260 851 c 1,5,6
 1259 802 1259 802 1255.5 749.5 c 128,-1,7
 1252 697 1252 697 1244 649 c 0,8,9
 1219 495 1219 495 1161 371.5 c 128,-1,10
 1103 248 1103 248 1017 161 c 128,-1,11
 931 74 931 74 821 27 c 128,-1,12
 711 -20 711 -20 582 -20 c 0,13,14
 459 -20 459 -20 367 23.5 c 128,-1,15
 275 67 275 67 214 145.5 c 128,-1,16
 153 224 153 224 122 333 c 128,-1,17
 91 442 91 442 91 573 c 0,18,19
 91 619 91 619 94.5 667 c 128,-1,20
 98 715 98 715 107 764 c 0,21,22
 132 914 132 914 189 1037 c 128,-1,23
 246 1160 246 1160 332 1247.5 c 128,-1,24
 418 1335 418 1335 529 1382.5 c 128,-1,25
 640 1430 640 1430 770 1430 c 0,0,1
762 1276 m 0,26,27
 655 1276 655 1276 571 1239 c 128,-1,28
 487 1202 487 1202 425 1132 c 128,-1,29
 363 1062 363 1062 323 961 c 128,-1,30
 283 860 283 860 262 732 c 0,31,32
 255 689 255 689 251.5 645.5 c 128,-1,33
 248 602 248 602 248 563 c 0,34,35
 248 456 248 456 271 375.5 c 128,-1,36
 294 295 294 295 338 241.5 c 128,-1,37
 382 188 382 188 445.5 161.5 c 128,-1,38
 509 135 509 135 589 135 c 0,39,40
 697 135 697 135 781.5 172.5 c 128,-1,41
 866 210 866 210 927.5 280.5 c 128,-1,42
 989 351 989 351 1029.5 451.5 c 128,-1,43
 1070 552 1070 552 1090 677 c 0,44,45
 1097 719 1097 719 1100.5 764 c 128,-1,46
 1104 809 1104 809 1104 847 c 0,47,48
 1104 954 1104 954 1080 1034.5 c 128,-1,49
 1056 1115 1056 1115 1011.5 1168.5 c 128,-1,50
 967 1222 967 1222 904 1249 c 128,-1,51
 841 1276 841 1276 762 1276 c 0,26,27
EndSplineSet
EndChar

StartChar: P
Encoding: 80 80 51
Width: 1120
GlyphClass: 2
Flags: W
LayerCount: 2
Fore
SplineSet
699 1409 m 2,0,1
 794 1409 794 1409 869.5 1382 c 128,-1,2
 945 1355 945 1355 998.5 1305 c 128,-1,3
 1052 1255 1052 1255 1080.5 1182.5 c 128,-1,4
 1109 1110 1109 1110 1109 1020 c 0,5,6
 1109 910 1109 910 1077 822.5 c 128,-1,7
 1045 735 1045 735 984.5 674.5 c 128,-1,8
 924 614 924 614 837.5 581.5 c 128,-1,9
 751 549 751 549 643 549 c 2,10,-1
 295 549 l 1,11,-1
 208 0 l 1,12,-1
 52 0 l 1,13,-1
 275 1409 l 1,14,-1
 699 1409 l 2,0,1
320 700 m 1,15,-1
 637 700 l 2,16,17
 794 700 794 700 872 778 c 128,-1,18
 950 856 950 856 950 1011 c 0,19,20
 950 1076 950 1076 931.5 1122 c 128,-1,21
 913 1168 913 1168 879.5 1198 c 128,-1,22
 846 1228 846 1228 799 1242 c 128,-1,23
 752 1256 752 1256 694 1256 c 2,24,-1
 408 1256 l 1,25,-1
 320 700 l 1,15,-1
EndSplineSet
EndChar

StartChar: Q
Encoding: 81 81 52
Width: 1307
GlyphClass: 2
Flags: W
LayerCount: 2
Fore
SplineSet
761 1430 m 0,0,1
 879 1430 879 1430 970.5 1387.5 c 128,-1,2
 1062 1345 1062 1345 1124.5 1268 c 128,-1,3
 1187 1191 1187 1191 1219.5 1085 c 128,-1,4
 1252 979 1252 979 1252 851 c 1,5,6
 1251 802 1251 802 1247.5 749.5 c 128,-1,7
 1244 697 1244 697 1236 649 c 0,8,9
 1214 511 1214 511 1164 396.5 c 128,-1,10
 1114 282 1114 282 1042 197 c 128,-1,11
 970 112 970 112 877 58.5 c 128,-1,12
 784 5 784 5 674 -12 c 1,13,14
 681 -78 681 -78 696 -122.5 c 128,-1,15
 711 -167 711 -167 733.5 -194 c 128,-1,16
 756 -221 756 -221 785.5 -232.5 c 128,-1,17
 815 -244 815 -244 852 -244 c 0,18,19
 875 -244 875 -244 903.5 -240 c 128,-1,20
 932 -236 932 -236 953 -231 c 1,21,-1
 938 -365 l 1,22,23
 907 -376 907 -376 873 -381.5 c 128,-1,24
 839 -387 839 -387 799 -387 c 0,25,26
 729 -387 729 -387 680.5 -361.5 c 128,-1,27
 632 -336 632 -336 600 -288.5 c 128,-1,28
 568 -241 568 -241 550 -172.5 c 128,-1,29
 532 -104 532 -104 523 -17 c 1,30,31
 413 -8 413 -8 330.5 39.5 c 128,-1,32
 248 87 248 87 193 164 c 128,-1,33
 138 241 138 241 110.5 345.5 c 128,-1,34
 83 450 83 450 83 573 c 0,35,36
 83 619 83 619 86.5 667 c 128,-1,37
 90 715 90 715 98 764 c 0,38,39
 123 914 123 914 180.5 1037 c 128,-1,40
 238 1160 238 1160 323.5 1247.5 c 128,-1,41
 409 1335 409 1335 520 1382.5 c 128,-1,42
 631 1430 631 1430 761 1430 c 0,0,1
754 1276 m 0,43,44
 647 1276 647 1276 563 1239 c 128,-1,45
 479 1202 479 1202 417 1132 c 128,-1,46
 355 1062 355 1062 315 961 c 128,-1,47
 275 860 275 860 254 732 c 0,48,49
 247 689 247 689 243.5 645.5 c 128,-1,50
 240 602 240 602 240 563 c 0,51,52
 240 456 240 456 263 375.5 c 128,-1,53
 286 295 286 295 329.5 241.5 c 128,-1,54
 373 188 373 188 436.5 161.5 c 128,-1,55
 500 135 500 135 581 135 c 0,56,57
 689 135 689 135 773 172.5 c 128,-1,58
 857 210 857 210 918.5 280.5 c 128,-1,59
 980 351 980 351 1021 451.5 c 128,-1,60
 1062 552 1062 552 1082 677 c 0,61,62
 1089 719 1089 719 1092 764 c 128,-1,63
 1095 809 1095 809 1095 847 c 0,64,65
 1095 954 1095 954 1071.5 1034.5 c 128,-1,66
 1048 1115 1048 1115 1003.5 1168.5 c 128,-1,67
 959 1222 959 1222 896 1249 c 128,-1,68
 833 1276 833 1276 754 1276 c 0,43,44
EndSplineSet
EndChar

StartChar: R
Encoding: 82 82 53
Width: 1212
GlyphClass: 2
Flags: W
LayerCount: 2
Fore
SplineSet
861 0 m 1,0,-1
 662 585 l 1,1,-1
 301 585 l 1,2,-1
 208 0 l 1,3,-1
 52 0 l 1,4,-1
 275 1409 l 1,5,-1
 777 1409 l 2,6,7
 862 1409 862 1409 932.5 1383.5 c 128,-1,8
 1003 1358 1003 1358 1053.5 1310 c 128,-1,9
 1104 1262 1104 1262 1132 1193.5 c 128,-1,10
 1160 1125 1160 1125 1160 1039 c 0,11,12
 1160 851 1160 851 1071.5 741 c 128,-1,13
 983 631 983 631 810 602 c 1,14,-1
 1030 0 l 1,15,-1
 861 0 l 1,0,-1
702 736 m 2,16,17
 850 736 850 736 925.5 811.5 c 128,-1,18
 1001 887 1001 887 1001 1024 c 0,19,20
 1001 1136 1001 1136 940 1196 c 128,-1,21
 879 1256 879 1256 758 1256 c 2,22,-1
 408 1256 l 1,23,-1
 325 736 l 1,24,-1
 702 736 l 2,16,17
EndSplineSet
EndChar

StartChar: S
Encoding: 83 83 54
Width: 1120
GlyphClass: 2
Flags: W
LayerCount: 2
Fore
SplineSet
505 -20 m 0,0,1
 398 -20 398 -20 318.5 3.5 c 128,-1,2
 239 27 239 27 183 72.5 c 128,-1,3
 127 118 127 118 94 184.5 c 128,-1,4
 61 251 61 251 48 338 c 1,5,-1
 193 375 l 1,6,7
 204 313 204 313 226.5 267 c 128,-1,8
 249 221 249 221 287.5 190.5 c 128,-1,9
 326 160 326 160 382.5 145 c 128,-1,10
 439 130 439 130 517 130 c 0,11,12
 597 130 597 130 661 143.5 c 128,-1,13
 725 157 725 157 769.5 188.5 c 128,-1,14
 814 220 814 220 838 270.5 c 128,-1,15
 862 321 862 321 862 396 c 0,16,17
 862 447 862 447 848 483 c 128,-1,18
 834 519 834 519 799.5 547.5 c 128,-1,19
 765 576 765 576 706.5 601.5 c 128,-1,20
 648 627 648 627 559 657 c 0,21,22
 487 681 487 681 423.5 710.5 c 128,-1,23
 360 740 360 740 312.5 783.5 c 128,-1,24
 265 827 265 827 237 889 c 128,-1,25
 209 951 209 951 209 1041 c 0,26,27
 209 1146 209 1146 248 1219.5 c 128,-1,28
 287 1293 287 1293 352 1340 c 128,-1,29
 417 1387 417 1387 501 1408.5 c 128,-1,30
 585 1430 585 1430 676 1430 c 0,31,32
 775 1430 775 1430 849 1408 c 128,-1,33
 923 1386 923 1386 975 1346.5 c 128,-1,34
 1027 1307 1027 1307 1058.5 1252 c 128,-1,35
 1090 1197 1090 1197 1102 1132 c 1,36,-1
 960 1081 l 1,37,38
 948 1129 948 1129 926 1167 c 128,-1,39
 904 1205 904 1205 869.5 1231.5 c 128,-1,40
 835 1258 835 1258 787 1272 c 128,-1,41
 739 1286 739 1286 675 1286 c 0,42,43
 590 1286 590 1286 531 1268.5 c 128,-1,44
 472 1251 472 1251 435.5 1219.5 c 128,-1,45
 399 1188 399 1188 382.5 1144.5 c 128,-1,46
 366 1101 366 1101 366 1050 c 0,47,48
 366 996 366 996 383 960.5 c 128,-1,49
 400 925 400 925 434.5 900 c 128,-1,50
 469 875 469 875 522 854.5 c 128,-1,51
 575 834 575 834 647 810 c 0,52,53
 718 786 718 786 786 757 c 128,-1,54
 854 728 854 728 906 683.5 c 128,-1,55
 958 639 958 639 990 573 c 128,-1,56
 1022 507 1022 507 1022 408 c 0,57,58
 1022 202 1022 202 894.5 91 c 128,-1,59
 767 -20 767 -20 505 -20 c 0,0,1
EndSplineSet
EndChar

StartChar: T
Encoding: 84 84 55
Width: 1026
GlyphClass: 2
Flags: W
LayerCount: 2
Fore
SplineSet
704 1253 m 1,0,-1
 504 0 l 1,1,-1
 348 0 l 1,2,-1
 548 1253 l 1,3,-1
 151 1253 l 1,4,-1
 176 1409 l 1,5,-1
 1125 1409 l 1,6,-1
 1101 1253 l 1,7,-1
 704 1253 l 1,0,-1
EndSplineSet
EndChar

StartChar: U
Encoding: 85 85 56
Width: 1212
GlyphClass: 2
Flags: W
LayerCount: 2
Fore
SplineSet
536 -20 m 0,0,1
 451 -20 451 -20 376 7 c 128,-1,2
 301 34 301 34 245 90 c 128,-1,3
 189 146 189 146 157 231 c 128,-1,4
 125 316 125 316 125 431 c 0,5,6
 125 452 125 452 127 479.5 c 128,-1,7
 129 507 129 507 131.5 535 c 128,-1,8
 134 563 134 563 137.5 589.5 c 128,-1,9
 141 616 141 616 144 635 c 2,10,-1
 267 1409 l 1,11,-1
 424 1409 l 1,12,-1
 291 566 l 2,13,14
 285 530 285 530 281 491.5 c 128,-1,15
 277 453 277 453 277 423 c 0,16,17
 277 349 277 349 297.5 295 c 128,-1,18
 318 241 318 241 354 205.5 c 128,-1,19
 390 170 390 170 440 152.5 c 128,-1,20
 490 135 490 135 549 135 c 0,21,22
 620 135 620 135 681 157 c 128,-1,23
 742 179 742 179 791 227 c 128,-1,24
 840 275 840 275 875 352.5 c 128,-1,25
 910 430 910 430 927 541 c 2,26,-1
 1064 1409 l 1,27,-1
 1220 1409 l 1,28,-1
 1081 530 l 2,29,30
 1058 389 1058 389 1011 285.5 c 128,-1,31
 964 182 964 182 894 114 c 128,-1,32
 824 46 824 46 734 13 c 128,-1,33
 644 -20 644 -20 536 -20 c 0,0,1
EndSplineSet
EndChar

StartChar: V
Encoding: 86 86 57
Width: 1120
GlyphClass: 2
Flags: W
LayerCount: 2
Fore
SplineSet
555 0 m 1,0,-1
 393 0 l 1,1,-1
 145 1409 l 1,2,-1
 304 1409 l 1,3,-1
 467 417 l 1,4,5
 473 372 473 372 477.5 327.5 c 128,-1,6
 482 283 482 283 486 248 c 0,7,8
 491 207 491 207 495 168 c 1,9,10
 495 168 495 168 529 246 c 2,11,12
 529 246 529 246 564 326 c 2,13,-1
 604 417 l 1,14,-1
 1080 1409 l 1,15,-1
 1250 1409 l 1,16,-1
 555 0 l 1,0,-1
EndSplineSet
EndChar

StartChar: W
Encoding: 87 87 58
Width: 1585
GlyphClass: 2
Flags: W
LayerCount: 2
Fore
SplineSet
1153 0 m 1,0,-1
 970 0 l 1,1,-1
 912 895 l 2,2,3
 911 914 911 914 910 938 c 128,-1,4
 909 962 909 962 907.5 988.5 c 128,-1,5
 906 1015 906 1015 905 1042 c 2,6,-1
 903 1095 l 1,7,8
 903 1095 903 1095 899 1219 c 1,9,10
 899 1219 899 1219 859 1095 c 1,11,12
 859 1095 859 1095 822 988 c 0,13,14
 803 933 803 933 788 895 c 2,15,-1
 444 0 l 1,16,-1
 262 0 l 1,17,-1
 145 1409 l 1,18,-1
 307 1409 l 1,19,-1
 371 514 l 2,20,21
 375 451 375 451 378 390 c 2,22,-1
 382 278 l 2,23,24
 384 220 384 220 385 168 c 1,25,-1
 432 304 l 1,26,27
 432 304 432 304 453 364 c 2,28,-1
 474 424 l 1,29,-1
 496 482 l 1,30,-1
 515 532 l 1,31,-1
 855 1409 l 1,32,-1
 1005 1409 l 1,33,-1
 1067 532 l 2,34,35
 1069 510 1069 510 1070.5 482 c 128,-1,36
 1072 454 1072 454 1073 424.5 c 128,-1,37
 1074 395 1074 395 1075.5 364.5 c 128,-1,38
 1077 334 1077 334 1077 305 c 2,39,40
 1077 305 1077 305 1081 168 c 0,41,42
 1082 168 1082 168 1094 202 c 2,43,-1
 1123 289 l 1,44,-1
 1163 402 l 1,45,-1
 1205 514 l 1,46,-1
 1552 1409 l 1,47,-1
 1717 1409 l 1,48,-1
 1153 0 l 1,0,-1
EndSplineSet
EndChar

StartChar: X
Encoding: 88 88 59
Width: 1120
GlyphClass: 2
Flags: W
LayerCount: 2
Fore
SplineSet
819 0 m 1,0,-1
 571 606 l 1,1,-1
 141 0 l 1,2,-1
 -32 0 l 1,3,-1
 504 746 l 1,4,-1
 225 1409 l 1,5,-1
 389 1409 l 1,6,-1
 610 858 l 1,7,-1
 999 1409 l 1,8,-1
 1172 1409 l 1,9,-1
 681 733 l 1,10,-1
 982 0 l 1,11,-1
 819 0 l 1,0,-1
EndSplineSet
EndChar

StartChar: Y
Encoding: 89 89 60
Width: 1120
GlyphClass: 2
Flags: W
LayerCount: 2
Fore
SplineSet
644 584 m 1,0,-1
 551 0 l 1,1,-1
 395 0 l 1,2,-1
 489 584 l 1,3,-1
 175 1409 l 1,4,-1
 335 1409 l 1,5,-1
 586 735 l 1,6,-1
 1045 1409 l 1,7,-1
 1221 1409 l 1,8,-1
 644 584 l 1,0,-1
EndSplineSet
EndChar

StartChar: Z
Encoding: 90 90 61
Width: 1026
GlyphClass: 2
Flags: W
LayerCount: 2
Fore
SplineSet
887 0 m 1,0,-1
 -33 0 l 1,1,-1
 -11 143 l 1,2,-1
 854 1253 l 1,3,-1
 226 1253 l 1,4,-1
 251 1409 l 1,5,-1
 1073 1409 l 1,6,-1
 1051 1270 l 1,7,-1
 186 156 l 1,8,-1
 912 156 l 1,9,-1
 887 0 l 1,0,-1
EndSplineSet
EndChar

StartChar: bracketleft
Encoding: 91 91 62
Width: 467
GlyphClass: 2
Flags: W
LayerCount: 2
Fore
SplineSet
-32 -425 m 1,0,-1
 272 1484 l 1,1,-1
 606 1484 l 1,2,-1
 585 1355 l 1,3,-1
 394 1355 l 1,4,-1
 130 -296 l 1,5,-1
 322 -296 l 1,6,-1
 301 -425 l 1,7,-1
 -32 -425 l 1,0,-1
EndSplineSet
EndChar

StartChar: backslash
Encoding: 92 92 63
Width: 467
GlyphClass: 2
Flags: W
LayerCount: 2
Fore
SplineSet
263 -20 m 1,0,-1
 120 1484 l 1,1,-1
 241 1484 l 1,2,-1
 387 -20 l 1,3,-1
 263 -20 l 1,0,-1
EndSplineSet
EndChar

StartChar: bracketright
Encoding: 93 93 64
Width: 467
GlyphClass: 2
Flags: W
LayerCount: 2
Fore
SplineSet
-139 -425 m 1,0,-1
 -118 -296 l 1,1,-1
 72 -296 l 1,2,-1
 336 1355 l 1,3,-1
 144 1355 l 1,4,-1
 165 1484 l 1,5,-1
 499 1484 l 1,6,-1
 195 -425 l 1,7,-1
 -139 -425 l 1,0,-1
EndSplineSet
EndChar

StartChar: asciicircum
Encoding: 94 94 65
Width: 788
GlyphClass: 2
Flags: W
LayerCount: 2
Fore
SplineSet
670 673 m 1,0,-1
 417 1306 l 1,1,-1
 166 673 l 1,2,-1
 33 673 l 1,3,-1
 335 1409 l 1,4,-1
 501 1409 l 1,5,-1
 804 673 l 1,6,-1
 670 673 l 1,0,-1
EndSplineSet
EndChar

StartChar: underscore
Encoding: 95 95 66
Width: 934
GlyphClass: 2
Flags: W
LayerCount: 2
Fore
SplineSet
-131 -250 m 1,0,-1
 -131 -174 l 1,1,-1
 835 -174 l 1,2,-1
 835 -250 l 1,3,-1
 -131 -250 l 1,0,-1
EndSplineSet
EndChar

StartChar: grave
Encoding: 96 96 67
Width: 559
GlyphClass: 2
Flags: W
LayerCount: 2
Fore
SplineSet
338 1201 m 1,0,-1
 107 1479 l 1,1,-1
 111 1508 l 1,2,-1
 280 1508 l 1,3,-1
 412 1221 l 1,4,-1
 410 1201 l 1,5,-1
 338 1201 l 1,0,-1
EndSplineSet
EndChar

StartChar: a
Encoding: 97 97 68
Width: 934
GlyphClass: 2
Flags: W
LayerCount: 2
Fore
SplineSet
865 6 m 1,0,1
 841 -1 841 -1 813.5 -5.5 c 128,-1,2
 786 -10 786 -10 760 -10 c 0,3,4
 684 -10 684 -10 649 28.5 c 128,-1,5
 614 67 614 67 614 143 c 0,6,7
 614 158 614 158 615.5 175.5 c 128,-1,8
 617 193 617 193 618 207 c 1,9,-1
 613 207 l 1,10,11
 584 154 584 154 553.5 112 c 128,-1,12
 523 70 523 70 486 40.5 c 128,-1,13
 449 11 449 11 403 -4.5 c 128,-1,14
 357 -20 357 -20 296 -20 c 0,15,16
 232 -20 232 -20 184 5 c 128,-1,17
 136 30 136 30 103.5 71.5 c 128,-1,18
 71 113 71 113 54.5 167 c 128,-1,19
 38 221 38 221 38 278 c 0,20,21
 38 359 38 359 57 418 c 128,-1,22
 76 477 76 477 109.5 519 c 128,-1,23
 143 561 143 561 187.5 587.5 c 128,-1,24
 232 614 232 614 282.5 629 c 128,-1,25
 333 644 333 644 387 650 c 128,-1,26
 441 656 441 656 493 657 c 2,27,-1
 683 660 l 1,28,-1
 689 696 l 2,29,30
 693 721 693 721 696 744 c 128,-1,31
 699 767 699 767 699 787 c 0,32,33
 699 878 699 878 655.5 921.5 c 128,-1,34
 612 965 612 965 535 965 c 0,35,36
 495 965 495 965 460 957.5 c 128,-1,37
 425 950 425 950 397.5 930.5 c 128,-1,38
 370 911 370 911 349 877.5 c 128,-1,39
 328 844 328 844 315 793 c 1,40,-1
 169 822 l 1,41,42
 185 884 185 884 212 935.5 c 128,-1,43
 239 987 239 987 283 1024 c 128,-1,44
 327 1061 327 1061 390.5 1081.5 c 128,-1,45
 454 1102 454 1102 543 1102 c 0,46,47
 616 1102 616 1102 672.5 1080 c 128,-1,48
 729 1058 729 1058 767.5 1019 c 128,-1,49
 806 980 806 980 826 926 c 128,-1,50
 846 872 846 872 846 807 c 0,51,52
 846 776 846 776 841.5 732.5 c 128,-1,53
 837 689 837 689 831 650 c 2,54,-1
 770 272 l 2,55,56
 766 250 766 250 763.5 227 c 128,-1,57
 761 204 761 204 761 184 c 0,58,59
 761 147 761 147 777 129 c 128,-1,60
 793 111 793 111 827 111 c 0,61,62
 839 111 839 111 852 113 c 128,-1,63
 865 115 865 115 877 118 c 1,64,-1
 865 6 l 1,0,1
663 536 m 1,65,-1
 500 532 l 2,66,67
 467 531 467 531 432 528 c 128,-1,68
 397 525 397 525 363 515.5 c 128,-1,69
 329 506 329 506 298 490 c 128,-1,70
 267 474 267 474 244 446.5 c 128,-1,71
 221 419 221 419 207.5 380 c 128,-1,72
 194 341 194 341 194 286 c 0,73,74
 194 254 194 254 203 223.5 c 128,-1,75
 212 193 212 193 230 169.5 c 128,-1,76
 248 146 248 146 274.5 131.5 c 128,-1,77
 301 117 301 117 337 117 c 0,78,79
 408 117 408 117 461.5 147 c 128,-1,80
 515 177 515 177 552.5 221 c 128,-1,81
 590 265 590 265 612 316.5 c 128,-1,82
 634 368 634 368 641 411 c 2,83,-1
 663 536 l 1,65,-1
EndSplineSet
EndChar

StartChar: b
Encoding: 98 98 69
Width: 934
GlyphClass: 2
Flags: W
LayerCount: 2
Fore
SplineSet
610 1102 m 0,0,1
 676 1102 676 1102 726.5 1077 c 128,-1,2
 777 1052 777 1052 811.5 1006 c 128,-1,3
 846 960 846 960 864 894.5 c 128,-1,4
 882 829 882 829 882 748 c 0,5,6
 882 698 882 698 878.5 638.5 c 128,-1,7
 875 579 875 579 865 516 c 0,8,9
 843 374 843 374 807 272.5 c 128,-1,10
 771 171 771 171 720 106 c 128,-1,11
 669 41 669 41 603.5 10.5 c 128,-1,12
 538 -20 538 -20 457 -20 c 0,13,14
 356 -20 356 -20 293 32 c 128,-1,15
 230 84 230 84 203 178 c 1,16,-1
 201 178 l 1,17,18
 197 152 197 152 191 122 c 2,19,-1
 180 67 l 2,20,21
 175 41 175 41 171 22.5 c 128,-1,22
 167 4 167 4 166 0 c 1,23,-1
 24 0 l 1,24,25
 26 9 26 9 30 30 c 2,26,-1
 40 82 l 1,27,-1
 52 148 l 2,28,29
 58 184 58 184 64 223 c 2,30,-1
 265 1484 l 1,31,-1
 412 1484 l 1,32,-1
 344 1061 l 2,33,34
 340 1032 340 1032 335 1006 c 128,-1,35
 330 980 330 980 326 961 c 2,36,-1
 317 921 l 1,37,-1
 320 921 l 1,38,39
 350 968 350 968 380.5 1002 c 128,-1,40
 411 1036 411 1036 446 1058.5 c 128,-1,41
 481 1081 481 1081 521 1091.5 c 128,-1,42
 561 1102 561 1102 610 1102 c 0,0,1
567 963 m 0,43,44
 515 963 515 963 468 944 c 128,-1,45
 421 925 421 925 380.5 878.5 c 128,-1,46
 340 832 340 832 309.5 753 c 128,-1,47
 279 674 279 674 260 554 c 0,48,49
 244 456 244 456 244 377 c 0,50,51
 244 313 244 313 258 263.5 c 128,-1,52
 272 214 272 214 298 180.5 c 128,-1,53
 324 147 324 147 360.5 130 c 128,-1,54
 397 113 397 113 441 113 c 0,55,56
 492 113 492 113 533 131.5 c 128,-1,57
 574 150 574 150 607 195.5 c 128,-1,58
 640 241 640 241 665.5 317.5 c 128,-1,59
 691 394 691 394 709 510 c 0,60,61
 728 631 728 631 728 716 c 0,62,63
 728 839 728 839 689.5 901 c 128,-1,64
 651 963 651 963 567 963 c 0,43,44
EndSplineSet
EndChar

StartChar: c
Encoding: 99 99 70
Width: 840
GlyphClass: 2
Flags: W
LayerCount: 2
Fore
SplineSet
385 122 m 0,0,1
 431 122 431 122 467.5 138.5 c 128,-1,2
 504 155 504 155 533 185 c 128,-1,3
 562 215 562 215 584 257.5 c 128,-1,4
 606 300 606 300 622 352 c 1,5,-1
 750 303 l 1,6,7
 727 228 727 228 693.5 168.5 c 128,-1,8
 660 109 660 109 614.5 67 c 128,-1,9
 569 25 569 25 511 2.5 c 128,-1,10
 453 -20 453 -20 381 -20 c 0,11,12
 297 -20 297 -20 235 11 c 128,-1,13
 173 42 173 42 133.5 97.5 c 128,-1,14
 94 153 94 153 74.5 229 c 128,-1,15
 55 305 55 305 55 395 c 0,16,17
 55 435 55 435 58 482 c 128,-1,18
 61 529 61 529 68 574 c 0,19,20
 86 685 86 685 114.5 767 c 128,-1,21
 143 849 143 849 177.5 907.5 c 128,-1,22
 212 966 212 966 253 1004 c 128,-1,23
 294 1042 294 1042 337 1063.5 c 128,-1,24
 380 1085 380 1085 424.5 1093.5 c 128,-1,25
 469 1102 469 1102 513 1102 c 0,26,27
 586 1102 586 1102 641 1079 c 128,-1,28
 696 1056 696 1056 735 1014 c 128,-1,29
 774 972 774 972 795.5 913.5 c 128,-1,30
 817 855 817 855 821 784 c 1,31,-1
 676 759 l 1,32,33
 674 804 674 804 662.5 841 c 128,-1,34
 651 878 651 878 630 904.5 c 128,-1,35
 609 931 609 931 578.5 946 c 128,-1,36
 548 961 548 961 508 961 c 0,37,38
 451 961 451 961 406 941 c 128,-1,39
 361 921 361 921 325.5 876 c 128,-1,40
 290 831 290 831 264.5 758.5 c 128,-1,41
 239 686 239 686 221 581 c 1,42,43
 214 533 214 533 210 480 c 128,-1,44
 206 427 206 427 206 389 c 0,45,46
 206 262 206 262 248.5 192 c 128,-1,47
 291 122 291 122 385 122 c 0,0,1
EndSplineSet
EndChar

StartChar: d
Encoding: 100 100 71
Width: 934
GlyphClass: 2
Flags: W
LayerCount: 2
Fore
SplineSet
329 -21 m 0,0,1
 263 -21 263 -21 212.5 4 c 128,-1,2
 162 29 162 29 127.5 75 c 128,-1,3
 93 121 93 121 75 186.5 c 128,-1,4
 57 252 57 252 57 333 c 0,5,6
 57 378 57 378 60.5 440 c 128,-1,7
 64 502 64 502 74 565 c 0,8,9
 96 707 96 707 132 808.5 c 128,-1,10
 168 910 168 910 219 975 c 128,-1,11
 270 1040 270 1040 335.5 1070.5 c 128,-1,12
 401 1101 401 1101 482 1101 c 0,13,14
 583 1101 583 1101 646.5 1049 c 128,-1,15
 710 997 710 997 736 903 c 1,16,-1
 740 903 l 1,17,18
 742 913 742 913 745.5 936 c 128,-1,19
 749 959 749 959 752.5 984.5 c 128,-1,20
 756 1010 756 1010 759.5 1033 c 128,-1,21
 763 1056 763 1056 763 1065 c 1,22,-1
 831 1484 l 1,23,-1
 978 1484 l 1,24,-1
 777 223 l 2,25,26
 770 184 770 184 765 148 c 2,27,-1
 756 82 l 2,28,29
 752 52 752 52 750 30 c 2,30,-1
 746 0 l 1,31,-1
 605 0 l 1,32,33
 605 20 605 20 609.5 64 c 128,-1,34
 614 108 614 108 622 160 c 1,35,-1
 618 160 l 1,36,37
 588 113 588 113 557.5 79 c 128,-1,38
 527 45 527 45 492.5 22.5 c 128,-1,39
 458 0 458 0 418 -10.5 c 128,-1,40
 378 -21 378 -21 329 -21 c 0,0,1
371 118 m 0,41,42
 423 118 423 118 470.5 137 c 128,-1,43
 518 156 518 156 558.5 202.5 c 128,-1,44
 599 249 599 249 629.5 328 c 128,-1,45
 660 407 660 407 679 527 c 0,46,47
 695 625 695 625 695 704 c 0,48,49
 695 769 695 769 681 818 c 128,-1,50
 667 867 667 867 641 900.5 c 128,-1,51
 615 934 615 934 578.5 951 c 128,-1,52
 542 968 542 968 498 968 c 0,53,54
 448 968 448 968 406.5 949.5 c 128,-1,55
 365 931 365 931 331.5 885.5 c 128,-1,56
 298 840 298 840 273 763.5 c 128,-1,57
 248 687 248 687 230 571 c 0,58,59
 211 450 211 450 211 365 c 0,60,61
 211 242 211 242 249 180 c 128,-1,62
 287 118 287 118 371 118 c 0,41,42
EndSplineSet
EndChar

StartChar: e
Encoding: 101 101 72
Width: 934
GlyphClass: 2
Flags: W
LayerCount: 2
Fore
SplineSet
210 503 m 1,0,1
 206 475 206 475 204.5 446.5 c 128,-1,2
 203 418 203 418 203 390 c 0,3,4
 203 257 203 257 257.5 186 c 128,-1,5
 312 115 312 115 421 115 c 0,6,7
 467 115 467 115 505 129.5 c 128,-1,8
 543 144 543 144 573.5 168.5 c 128,-1,9
 604 193 604 193 627.5 225.5 c 128,-1,10
 651 258 651 258 667 294 c 1,11,-1
 780 231 l 1,12,13
 760 186 760 186 730 141.5 c 128,-1,14
 700 97 700 97 656.5 61 c 128,-1,15
 613 25 613 25 551.5 2.5 c 128,-1,16
 490 -20 490 -20 404 -20 c 0,17,18
 322 -20 322 -20 257.5 8.5 c 128,-1,19
 193 37 193 37 148 91.5 c 128,-1,20
 103 146 103 146 80 225 c 128,-1,21
 57 304 57 304 57 405 c 0,22,23
 57 563 57 563 91.5 692 c 128,-1,24
 126 821 126 821 188 912 c 128,-1,25
 250 1003 250 1003 334 1052.5 c 128,-1,26
 418 1102 418 1102 517 1102 c 0,27,28
 607 1102 607 1102 673.5 1073 c 128,-1,29
 740 1044 740 1044 784 992 c 128,-1,30
 828 940 828 940 850 867.5 c 128,-1,31
 872 795 872 795 872 708 c 0,32,33
 872 687 872 687 870.5 662 c 128,-1,34
 869 637 869 637 866.5 610 c 128,-1,35
 864 583 864 583 860.5 555.5 c 128,-1,36
 857 528 857 528 852 503 c 1,37,-1
 210 503 l 1,0,1
722 641 m 1,38,39
 724 661 724 661 724.5 678.5 c 128,-1,40
 725 696 725 696 725 713 c 0,41,42
 725 779 725 779 710 827.5 c 128,-1,43
 695 876 695 876 668 907.5 c 128,-1,44
 641 939 641 939 603.5 954 c 128,-1,45
 566 969 566 969 520 969 c 0,46,47
 481 969 481 969 437.5 954.5 c 128,-1,48
 394 940 394 940 354 903 c 128,-1,49
 314 866 314 866 281 802.5 c 128,-1,50
 248 739 248 739 230 641 c 1,51,-1
 722 641 l 1,38,39
EndSplineSet
EndChar

StartChar: f
Encoding: 102 102 73
Width: 467
GlyphClass: 2
Flags: W
LayerCount: 2
Fore
SplineSet
356 951 m 1,0,-1
 204 0 l 1,1,-1
 57 0 l 1,2,-1
 208 951 l 1,3,-1
 84 951 l 1,4,-1
 105 1082 l 1,5,-1
 230 1082 l 1,6,-1
 249 1204 l 2,7,8
 259 1263 259 1263 274.5 1314 c 128,-1,9
 290 1365 290 1365 319 1403 c 128,-1,10
 348 1441 348 1441 394 1462.5 c 128,-1,11
 440 1484 440 1484 510 1484 c 0,12,13
 536 1484 536 1484 564 1481 c 128,-1,14
 592 1478 592 1478 612 1472 c 1,15,-1
 591 1335 l 1,16,17
 584 1337 584 1337 574.5 1338 c 128,-1,18
 565 1339 565 1339 554 1340.5 c 128,-1,19
 543 1342 543 1342 533.5 1342.5 c 128,-1,20
 524 1343 524 1343 516 1343 c 0,21,22
 485 1343 485 1343 464 1332 c 128,-1,23
 443 1321 443 1321 429.5 1300 c 128,-1,24
 416 1279 416 1279 408 1248.5 c 128,-1,25
 400 1218 400 1218 393 1179 c 2,26,-1
 378 1082 l 1,27,-1
 551 1082 l 1,28,-1
 529 951 l 1,29,-1
 356 951 l 1,0,-1
EndSplineSet
EndChar

StartChar: g
Encoding: 103 103 74
Width: 934
GlyphClass: 2
Flags: W
LayerCount: 2
Fore
SplineSet
326 -425 m 0,0,1
 250 -425 250 -425 193 -406.5 c 128,-1,2
 136 -388 136 -388 97 -355 c 128,-1,3
 58 -322 58 -322 35.5 -275.5 c 128,-1,4
 13 -229 13 -229 3 -173 c 1,5,-1
 137 -131 l 1,6,7
 151 -207 151 -207 199 -247.5 c 128,-1,8
 247 -288 247 -288 329 -288 c 0,9,10
 388 -288 388 -288 433 -269.5 c 128,-1,11
 478 -251 478 -251 510.5 -213 c 128,-1,12
 543 -175 543 -175 564.5 -115.5 c 128,-1,13
 586 -56 586 -56 599 27 c 2,14,15
 599 27 599 27 608 83 c 2,16,-1
 617 139 l 2,17,18
 622 170 622 170 627 201 c 1,19,-1
 626 201 l 1,20,21
 603 161 603 161 577 123 c 128,-1,22
 551 85 551 85 517.5 56 c 128,-1,23
 484 27 484 27 439.5 9.5 c 128,-1,24
 395 -8 395 -8 336 -8 c 0,25,26
 271 -8 271 -8 219.5 19.5 c 128,-1,27
 168 47 168 47 132 95.5 c 128,-1,28
 96 144 96 144 76.5 211.5 c 128,-1,29
 57 279 57 279 57 359 c 0,30,31
 57 408 57 408 61.5 462.5 c 128,-1,32
 66 517 66 517 76 580 c 0,33,34
 117 841 117 841 215 971 c 128,-1,35
 313 1101 313 1101 482 1101 c 0,36,37
 529 1101 529 1101 571 1087.5 c 128,-1,38
 613 1074 613 1074 646 1047.5 c 128,-1,39
 679 1021 679 1021 703 983 c 128,-1,40
 727 945 727 945 738 897 c 1,41,-1
 740 897 l 1,42,43
 744 922 744 922 750 953 c 128,-1,44
 756 984 756 984 762 1012 c 2,45,-1
 772 1059 l 2,46,47
 777 1079 777 1079 779 1082 c 1,48,-1
 919 1082 l 1,49,50
 917 1073 917 1073 913 1052 c 2,51,-1
 904 1000 l 2,52,53
 898 970 898 970 892 934 c 2,54,-1
 879 858 l 1,55,-1
 747 31 l 2,56,57
 730 -76 730 -76 699.5 -160.5 c 128,-1,58
 669 -245 669 -245 619 -304 c 128,-1,59
 569 -363 569 -363 497.5 -394 c 128,-1,60
 426 -425 426 -425 326 -425 c 0,0,1
212 373 m 0,61,62
 212 252 212 252 255 188.5 c 128,-1,63
 298 125 298 125 382 125 c 0,64,65
 426 125 426 125 471.5 148 c 128,-1,66
 517 171 517 171 558 221 c 128,-1,67
 599 271 599 271 631 350 c 128,-1,68
 663 429 663 429 681 541 c 0,69,70
 688 583 688 583 691.5 627.5 c 128,-1,71
 695 672 695 672 695 704 c 0,72,73
 695 771 695 771 680 820.5 c 128,-1,74
 665 870 665 870 638.5 903 c 128,-1,75
 612 936 612 936 576 952 c 128,-1,76
 540 968 540 968 498 968 c 0,77,78
 447 968 447 968 405.5 949.5 c 128,-1,79
 364 931 364 931 331 886.5 c 128,-1,80
 298 842 298 842 273.5 767.5 c 128,-1,81
 249 693 249 693 231 580 c 0,82,83
 222 521 222 521 217 467 c 128,-1,84
 212 413 212 413 212 373 c 0,61,62
EndSplineSet
EndChar

StartChar: h
Encoding: 104 104 75
Width: 934
GlyphClass: 2
Flags: W
LayerCount: 2
Fore
SplineSet
314 897 m 1,0,1
 342 944 342 944 371.5 982 c 128,-1,2
 401 1020 401 1020 436.5 1046.5 c 128,-1,3
 472 1073 472 1073 515 1087 c 128,-1,4
 558 1101 558 1101 613 1101 c 0,5,6
 734 1101 734 1101 795.5 1028 c 128,-1,7
 857 955 857 955 857 817 c 0,8,9
 857 781 857 781 851.5 736 c 128,-1,10
 846 691 846 691 840 653 c 2,11,-1
 736 0 l 1,12,-1
 587 0 l 1,13,-1
 690 645 l 2,14,15
 697 684 697 684 701 724.5 c 128,-1,16
 705 765 705 765 705 795 c 0,17,18
 705 874 705 874 670.5 918 c 128,-1,19
 636 962 636 962 558 962 c 0,20,21
 506 962 506 962 459.5 936.5 c 128,-1,22
 413 911 413 911 375.5 864.5 c 128,-1,23
 338 818 338 818 311.5 752.5 c 128,-1,24
 285 687 285 687 271 606 c 1,25,-1
 175 0 l 1,26,-1
 28 0 l 1,27,-1
 264 1484 l 1,28,-1
 412 1484 l 1,29,-1
 350 1098 l 2,30,31
 345 1065 345 1065 339 1032 c 128,-1,32
 333 999 333 999 327 971.5 c 128,-1,33
 321 944 321 944 317 924 c 128,-1,34
 313 904 313 904 312 897 c 1,35,-1
 314 897 l 1,0,1
EndSplineSet
EndChar

StartChar: i
Encoding: 105 105 76
Width: 373
GlyphClass: 2
Flags: W
LayerCount: 2
Fore
SplineSet
235 1312 m 1,0,-1
 263 1484 l 1,1,-1
 411 1484 l 1,2,-1
 383 1312 l 1,3,-1
 235 1312 l 1,0,-1
27 0 m 1,4,-1
 199 1082 l 1,5,-1
 347 1082 l 1,6,-1
 174 0 l 1,7,-1
 27 0 l 1,4,-1
EndSplineSet
EndChar

StartChar: j
Encoding: 106 106 77
Width: 373
GlyphClass: 2
Flags: W
LayerCount: 2
Fore
SplineSet
237 1312 m 1,0,-1
 264 1484 l 1,1,-1
 412 1484 l 1,2,-1
 384 1312 l 1,3,-1
 237 1312 l 1,0,-1
-82 -425 m 0,4,5
 -110 -425 -110 -425 -138 -420.5 c 128,-1,6
 -166 -416 -166 -416 -188 -411 c 1,7,-1
 -169 -275 l 1,8,9
 -158 -277 -158 -277 -137.5 -280 c 128,-1,10
 -117 -283 -117 -283 -101 -283 c 0,11,12
 -53 -283 -53 -283 -28 -241 c 128,-1,13
 -3 -199 -3 -199 11 -107 c 2,14,-1
 200 1082 l 1,15,-1
 348 1082 l 1,16,-1
 153 -134 l 2,17,18
 143 -196 143 -196 127 -249 c 128,-1,19
 111 -302 111 -302 84 -341 c 128,-1,20
 57 -380 57 -380 16.5 -402.5 c 128,-1,21
 -24 -425 -24 -425 -82 -425 c 0,4,5
EndSplineSet
EndChar

StartChar: k
Encoding: 107 107 78
Width: 840
GlyphClass: 2
Flags: W
LayerCount: 2
Fore
SplineSet
591 0 m 1,0,-1
 372 502 l 1,1,-1
 234 378 l 1,2,-1
 175 0 l 1,3,-1
 28 0 l 1,4,-1
 264 1484 l 1,5,-1
 412 1484 l 1,6,-1
 265 567 l 1,7,-1
 432 757 l 1,8,-1
 728 1082 l 1,9,-1
 911 1082 l 1,10,-1
 476 617 l 1,11,-1
 751 0 l 1,12,-1
 591 0 l 1,0,-1
EndSplineSet
EndChar

StartChar: l
Encoding: 108 108 79
Width: 373
GlyphClass: 2
Flags: W
LayerCount: 2
Fore
SplineSet
27 0 m 1,0,-1
 263 1484 l 1,1,-1
 411 1484 l 1,2,-1
 174 0 l 1,3,-1
 27 0 l 1,0,-1
EndSplineSet
EndChar

StartChar: m
Encoding: 109 109 80
Width: 1399
GlyphClass: 2
Flags: W
LayerCount: 2
Fore
SplineSet
541 0 m 1,0,-1
 643 634 l 2,1,2
 646 654 646 654 650 678 c 128,-1,3
 654 702 654 702 656.5 726 c 128,-1,4
 659 750 659 750 661 771.5 c 128,-1,5
 663 793 663 793 663 808 c 0,6,7
 663 883 663 883 632 922.5 c 128,-1,8
 601 962 601 962 531 962 c 0,9,10
 484 962 484 962 441.5 936.5 c 128,-1,11
 399 911 399 911 365.5 864.5 c 128,-1,12
 332 818 332 818 307.5 751.5 c 128,-1,13
 283 685 283 685 271 604 c 2,14,-1
 175 0 l 1,15,-1
 28 0 l 1,16,-1
 164 851 l 2,17,18
 170 885 170 885 175 922 c 2,19,-1
 184 994 l 1,20,-1
 192 1051 l 2,21,22
 195 1075 195 1075 196 1082 c 1,23,-1
 335 1082 l 1,24,25
 335 1077 335 1077 332 1055 c 2,26,-1
 326 1004 l 1,27,-1
 320 946 l 2,28,29
 316 917 316 917 312 897 c 1,30,-1
 315 897 l 1,31,32
 340 944 340 944 366 982 c 128,-1,33
 392 1020 392 1020 423 1046.5 c 128,-1,34
 454 1073 454 1073 492.5 1087 c 128,-1,35
 531 1101 531 1101 579 1101 c 0,36,37
 678 1101 678 1101 736.5 1041.5 c 128,-1,38
 795 982 795 982 806 869 c 1,39,40
 832 919 832 919 860 961 c 128,-1,41
 888 1003 888 1003 922 1034.5 c 128,-1,42
 956 1066 956 1066 997.5 1083.5 c 128,-1,43
 1039 1101 1039 1101 1091 1101 c 0,44,45
 1202 1101 1202 1101 1261.5 1028 c 128,-1,46
 1321 955 1321 955 1321 817 c 0,47,48
 1321 781 1321 781 1315.5 736 c 128,-1,49
 1310 691 1310 691 1304 653 c 2,50,-1
 1200 0 l 1,51,-1
 1054 0 l 1,52,-1
 1155 634 l 2,53,54
 1158 654 1158 654 1162 678 c 128,-1,55
 1166 702 1166 702 1169 726 c 128,-1,56
 1172 750 1172 750 1174 771.5 c 128,-1,57
 1176 793 1176 793 1176 808 c 0,58,59
 1176 883 1176 883 1145 922.5 c 128,-1,60
 1114 962 1114 962 1043 962 c 0,61,62
 996 962 996 962 954 937 c 128,-1,63
 912 912 912 912 878.5 866 c 128,-1,64
 845 820 845 820 820 754 c 128,-1,65
 795 688 795 688 784 607 c 1,66,-1
 687 0 l 1,67,-1
 541 0 l 1,0,-1
EndSplineSet
EndChar

StartChar: n
Encoding: 110 110 81
Width: 934
GlyphClass: 2
Flags: W
LayerCount: 2
Fore
SplineSet
588 0 m 1,0,-1
 691 645 l 2,1,2
 698 684 698 684 702 724.5 c 128,-1,3
 706 765 706 765 706 795 c 0,4,5
 706 874 706 874 671.5 918 c 128,-1,6
 637 962 637 962 559 962 c 0,7,8
 507 962 507 962 460.5 936.5 c 128,-1,9
 414 911 414 911 376.5 864.5 c 128,-1,10
 339 818 339 818 312 752.5 c 128,-1,11
 285 687 285 687 272 606 c 2,12,-1
 175 0 l 1,13,-1
 28 0 l 1,14,-1
 164 851 l 2,15,16
 170 885 170 885 175 922 c 2,17,-1
 184 994 l 1,18,-1
 192 1051 l 2,19,20
 195 1075 195 1075 196 1082 c 1,21,-1
 335 1082 l 1,22,23
 335 1077 335 1077 332 1055 c 2,24,-1
 326 1004 l 1,25,-1
 320 946 l 2,26,27
 316 917 316 917 312 897 c 1,28,-1
 315 897 l 1,29,30
 343 944 343 944 372.5 982 c 128,-1,31
 402 1020 402 1020 437.5 1046.5 c 128,-1,32
 473 1073 473 1073 516 1087 c 128,-1,33
 559 1101 559 1101 614 1101 c 0,34,35
 735 1101 735 1101 796.5 1028 c 128,-1,36
 858 955 858 955 858 817 c 0,37,38
 858 781 858 781 852.5 736 c 128,-1,39
 847 691 847 691 841 653 c 2,40,-1
 736 0 l 1,41,-1
 588 0 l 1,0,-1
EndSplineSet
EndChar

StartChar: o
Encoding: 111 111 82
Width: 934
GlyphClass: 2
Flags: W
LayerCount: 2
Fore
SplineSet
881 683 m 0,0,1
 881 631 881 631 876 578.5 c 128,-1,2
 871 526 871 526 859 467 c 0,3,4
 834 335 834 335 790.5 242 c 128,-1,5
 747 149 747 149 688 91 c 128,-1,6
 629 33 629 33 557 6.5 c 128,-1,7
 485 -20 485 -20 403 -20 c 0,8,9
 324 -20 324 -20 260 9.5 c 128,-1,10
 196 39 196 39 150.5 95.5 c 128,-1,11
 105 152 105 152 80 233.5 c 128,-1,12
 55 315 55 315 55 419 c 1,13,14
 56 466 56 466 59.5 516 c 128,-1,15
 63 566 63 566 73 620 c 0,16,17
 97 746 97 746 138.5 836.5 c 128,-1,18
 180 927 180 927 237.5 986 c 128,-1,19
 295 1045 295 1045 367.5 1073 c 128,-1,20
 440 1101 440 1101 526 1101 c 0,21,22
 613 1101 613 1101 679 1073 c 128,-1,23
 745 1045 745 1045 790 991 c 128,-1,24
 835 937 835 937 858 859.5 c 128,-1,25
 881 782 881 782 881 683 c 0,0,1
728 683 m 1,26,27
 728 760 728 760 714 814 c 128,-1,28
 700 868 700 868 673.5 902.5 c 128,-1,29
 647 937 647 937 609.5 953 c 128,-1,30
 572 969 572 969 525 969 c 0,31,32
 482 969 482 969 438 956.5 c 128,-1,33
 394 944 394 944 354 906 c 128,-1,34
 314 868 314 868 281 798 c 128,-1,35
 248 728 248 728 226 612 c 0,36,37
 215 557 215 557 211 507.5 c 128,-1,38
 207 458 207 458 207 416 c 0,39,40
 207 334 207 334 222.5 276 c 128,-1,41
 238 218 238 218 265.5 182 c 128,-1,42
 293 146 293 146 330 129.5 c 128,-1,43
 367 113 367 113 412 113 c 0,44,45
 456 113 456 113 499 125 c 128,-1,46
 542 137 542 137 580.5 175.5 c 128,-1,47
 619 214 619 214 651.5 285 c 128,-1,48
 684 356 684 356 706 473 c 0,49,50
 717 533 717 533 721.5 583 c 128,-1,51
 726 633 726 633 728 683 c 1,26,27
EndSplineSet
EndChar

StartChar: p
Encoding: 112 112 83
Width: 934
GlyphClass: 2
Flags: W
LayerCount: 2
Fore
SplineSet
454 -20 m 0,0,1
 353 -20 353 -20 289.5 32 c 128,-1,2
 226 84 226 84 200 178 c 1,3,-1
 196 178 l 1,4,5
 196 176 196 176 194.5 158.5 c 128,-1,6
 193 141 193 141 190 115 c 2,7,-1
 182 58 l 2,8,9
 177 27 177 27 172 -2 c 2,10,-1
 105 -425 l 1,11,-1
 -42 -425 l 1,12,-1
 162 861 l 2,13,14
 169 900 169 900 174 936 c 128,-1,15
 179 972 179 972 182.5 1001.5 c 128,-1,16
 186 1031 186 1031 188 1052 c 128,-1,17
 190 1073 190 1073 191 1082 c 1,18,-1
 328 1082 l 1,19,20
 328 1074 328 1074 327 1056 c 128,-1,21
 326 1038 326 1038 324 1015.5 c 128,-1,22
 322 993 322 993 319.5 968 c 128,-1,23
 317 943 317 943 314 921 c 1,24,-1
 317 921 l 1,25,26
 347 968 347 968 377.5 1002 c 128,-1,27
 408 1036 408 1036 443 1058.5 c 128,-1,28
 478 1081 478 1081 518 1091.5 c 128,-1,29
 558 1102 558 1102 608 1102 c 0,30,31
 674 1102 674 1102 724.5 1077 c 128,-1,32
 775 1052 775 1052 809.5 1006 c 128,-1,33
 844 960 844 960 862 894.5 c 128,-1,34
 880 829 880 829 880 748 c 0,35,36
 880 698 880 698 876 638.5 c 128,-1,37
 872 579 872 579 863 516 c 0,38,39
 841 374 841 374 804.5 272.5 c 128,-1,40
 768 171 768 171 717.5 106 c 128,-1,41
 667 41 667 41 601 10.5 c 128,-1,42
 535 -20 535 -20 454 -20 c 0,0,1
565 963 m 0,43,44
 513 963 513 963 465.5 944 c 128,-1,45
 418 925 418 925 378 878.5 c 128,-1,46
 338 832 338 832 307 753 c 128,-1,47
 276 674 276 674 257 554 c 0,48,49
 241 456 241 456 242 377 c 0,50,51
 242 313 242 313 256 263.5 c 128,-1,52
 270 214 270 214 295.5 180.5 c 128,-1,53
 321 147 321 147 357.5 130 c 128,-1,54
 394 113 394 113 439 113 c 0,55,56
 490 113 490 113 531 131.5 c 128,-1,57
 572 150 572 150 605 195.5 c 128,-1,58
 638 241 638 241 663.5 317.5 c 128,-1,59
 689 394 689 394 707 510 c 0,60,61
 726 631 726 631 726 716 c 0,62,63
 726 839 726 839 687.5 901 c 128,-1,64
 649 963 649 963 565 963 c 0,43,44
EndSplineSet
EndChar

StartChar: q
Encoding: 113 113 84
Width: 934
GlyphClass: 2
Flags: W
LayerCount: 2
Fore
SplineSet
329 -21 m 0,0,1
 263 -21 263 -21 212.5 4 c 128,-1,2
 162 29 162 29 127.5 75 c 128,-1,3
 93 121 93 121 75 186.5 c 128,-1,4
 57 252 57 252 57 333 c 0,5,6
 57 378 57 378 60.5 440 c 128,-1,7
 64 502 64 502 74 565 c 0,8,9
 96 707 96 707 132 808.5 c 128,-1,10
 168 910 168 910 219 975 c 128,-1,11
 270 1040 270 1040 335.5 1070.5 c 128,-1,12
 401 1101 401 1101 482 1101 c 0,13,14
 583 1101 583 1101 646.5 1049 c 128,-1,15
 710 997 710 997 736 903 c 1,16,-1
 740 903 l 1,17,18
 744 928 744 928 750 958.5 c 128,-1,19
 756 989 756 989 762 1016 c 2,20,-1
 772 1066 l 2,21,22
 777 1088 777 1088 781 1096 c 1,23,-1
 923 1096 l 1,24,25
 919 1079 919 1079 905 1007 c 128,-1,26
 891 935 891 935 869 801 c 2,27,-1
 674 -425 l 1,28,-1
 526 -425 l 1,29,-1
 596 14 l 2,30,31
 600 40 600 40 604.5 66 c 128,-1,32
 609 92 609 92 613 113 c 0,33,34
 617 138 617 138 622 160 c 1,35,-1
 619 160 l 1,36,37
 589 113 589 113 558.5 79 c 128,-1,38
 528 45 528 45 493 22.5 c 128,-1,39
 458 0 458 0 418 -10.5 c 128,-1,40
 378 -21 378 -21 329 -21 c 0,0,1
371 118 m 0,41,42
 423 118 423 118 470.5 137 c 128,-1,43
 518 156 518 156 558.5 202.5 c 128,-1,44
 599 249 599 249 629.5 328 c 128,-1,45
 660 407 660 407 679 527 c 0,46,47
 695 625 695 625 695 704 c 0,48,49
 695 769 695 769 681 818 c 128,-1,50
 667 867 667 867 641 900.5 c 128,-1,51
 615 934 615 934 578.5 951 c 128,-1,52
 542 968 542 968 498 968 c 0,53,54
 448 968 448 968 406.5 949.5 c 128,-1,55
 365 931 365 931 331.5 885.5 c 128,-1,56
 298 840 298 840 273 763.5 c 128,-1,57
 248 687 248 687 230 571 c 0,58,59
 211 450 211 450 211 365 c 0,60,61
 211 242 211 242 249 180 c 128,-1,62
 287 118 287 118 371 118 c 0,41,42
EndSplineSet
EndChar

StartChar: r
Encoding: 114 114 85
Width: 559
GlyphClass: 2
Flags: W
LayerCount: 2
Fore
SplineSet
589 938 m 1,0,1
 575 943 575 943 555.5 947 c 128,-1,2
 536 951 536 951 515 951 c 0,3,4
 463 951 463 951 421 914 c 128,-1,5
 379 877 379 877 347.5 820 c 128,-1,6
 316 763 316 763 295.5 694.5 c 128,-1,7
 275 626 275 626 266 564 c 2,8,-1
 175 0 l 1,9,-1
 28 0 l 1,10,-1
 161 830 l 2,11,12
 167 865 167 865 172 900 c 2,13,-1
 180 968 l 1,14,-1
 189 1030 l 1,15,-1
 196 1082 l 1,16,-1
 335 1082 l 1,17,18
 333 1060 333 1060 329 1030 c 2,19,-1
 321 969 l 1,20,-1
 314 910 l 2,21,22
 310 881 310 881 307 861 c 1,23,-1
 310 861 l 1,24,25
 335 923 335 923 360 968.5 c 128,-1,26
 385 1014 385 1014 412 1043.5 c 128,-1,27
 439 1073 439 1073 470 1087.5 c 128,-1,28
 501 1102 501 1102 538 1102 c 0,29,30
 547 1102 547 1102 557.5 1100.5 c 128,-1,31
 568 1099 568 1099 579 1097 c 128,-1,32
 590 1095 590 1095 600 1092.5 c 128,-1,33
 610 1090 610 1090 616 1088 c 1,34,-1
 589 938 l 1,0,1
EndSplineSet
EndChar

StartChar: s
Encoding: 115 115 86
Width: 840
GlyphClass: 2
Flags: W
LayerCount: 2
Fore
SplineSet
744 317 m 0,0,1
 744 232 744 232 716 168.5 c 128,-1,2
 688 105 688 105 637 63 c 128,-1,3
 586 21 586 21 513 0.5 c 128,-1,4
 440 -20 440 -20 349 -20 c 0,5,6
 273 -20 273 -20 215.5 -4 c 128,-1,7
 158 12 158 12 116.5 42.5 c 128,-1,8
 75 73 75 73 47.5 118.5 c 128,-1,9
 20 164 20 164 4 223 c 1,10,-1
 125 279 l 1,11,12
 137 239 137 239 156.5 207.5 c 128,-1,13
 176 176 176 176 204 154.5 c 128,-1,14
 232 133 232 133 271 122 c 128,-1,15
 310 111 310 111 362 111 c 128,-1,16
 414 111 414 111 458 121.5 c 128,-1,17
 502 132 502 132 533.5 155 c 128,-1,18
 565 178 565 178 582.5 214 c 128,-1,19
 600 250 600 250 600 301 c 0,20,21
 600 341 600 341 584.5 369.5 c 128,-1,22
 569 398 569 398 541 419.5 c 128,-1,23
 513 441 513 441 472 459.5 c 128,-1,24
 431 478 431 478 381 497 c 0,25,26
 328 518 328 518 280 543 c 128,-1,27
 232 568 232 568 195.5 603 c 128,-1,28
 159 638 159 638 137.5 685.5 c 128,-1,29
 116 733 116 733 116 797 c 0,30,31
 116 879 116 879 145 936.5 c 128,-1,32
 174 994 174 994 223.5 1030 c 128,-1,33
 273 1066 273 1066 339 1082.5 c 128,-1,34
 405 1099 405 1099 479 1099 c 0,35,36
 546 1099 546 1099 602 1085 c 128,-1,37
 658 1071 658 1071 700 1040.5 c 128,-1,38
 742 1010 742 1010 769 961.5 c 128,-1,39
 796 913 796 913 806 844 c 1,40,-1
 672 819 l 1,41,42
 654 898 654 898 604 933 c 128,-1,43
 554 968 554 968 469 968 c 0,44,45
 426 968 426 968 387.5 960 c 128,-1,46
 349 952 349 952 320.5 934 c 128,-1,47
 292 916 292 916 275 887 c 128,-1,48
 258 858 258 858 258 817 c 256,49,50
 258 776 258 776 274 748.5 c 128,-1,51
 290 721 290 721 318 700 c 128,-1,52
 346 679 346 679 386 662 c 1,53,54
 386 662 386 662 475 627 c 0,55,56
 522 609 522 609 570 585 c 128,-1,57
 618 561 618 561 656.5 525.5 c 128,-1,58
 695 490 695 490 719.5 439.5 c 128,-1,59
 744 389 744 389 744 317 c 0,0,1
EndSplineSet
EndChar

StartChar: t
Encoding: 116 116 87
Width: 467
GlyphClass: 2
Flags: W
LayerCount: 2
Fore
SplineSet
368 4 m 1,0,1
 338 -5 338 -5 301.5 -12.5 c 128,-1,2
 265 -20 265 -20 226 -20 c 0,3,4
 156 -20 156 -20 116 31 c 128,-1,5
 76 82 76 82 76 166 c 0,6,7
 76 198 76 198 80.5 234.5 c 128,-1,8
 85 271 85 271 89 296 c 2,9,-1
 192 951 l 1,10,-1
 89 951 l 1,11,-1
 111 1082 l 1,12,-1
 215 1082 l 1,13,-1
 301 1324 l 1,14,-1
 400 1324 l 1,15,-1
 361 1082 l 1,16,-1
 525 1082 l 1,17,-1
 504 951 l 1,18,-1
 340 951 l 1,19,-1
 237 306 l 2,20,21
 234 286 234 286 230.5 257 c 128,-1,22
 227 228 227 228 227 211 c 0,23,24
 227 169 227 169 244.5 146 c 128,-1,25
 262 123 262 123 301 123 c 0,26,27
 322 123 322 123 340.5 126.5 c 128,-1,28
 359 130 359 130 383 137 c 1,29,-1
 368 4 l 1,0,1
EndSplineSet
EndChar

StartChar: u
Encoding: 117 117 88
Width: 934
GlyphClass: 2
Flags: W
LayerCount: 2
Fore
SplineSet
340 1082 m 1,0,-1
 237 437 l 2,1,2
 230 398 230 398 226 357.5 c 128,-1,3
 222 317 222 317 222 287 c 0,4,5
 222 208 222 208 256.5 164 c 128,-1,6
 291 120 291 120 369 120 c 0,7,8
 421 120 421 120 467.5 145.5 c 128,-1,9
 514 171 514 171 552 217.5 c 128,-1,10
 590 264 590 264 616.5 329.5 c 128,-1,11
 643 395 643 395 656 476 c 2,12,-1
 753 1082 l 1,13,-1
 900 1082 l 1,14,-1
 764 231 l 2,15,16
 758 197 758 197 753 160 c 2,17,-1
 744 88 l 1,18,-1
 736 31 l 2,19,20
 733 7 733 7 732 0 c 1,21,-1
 593 0 l 1,22,23
 593 5 593 5 596 27 c 2,24,-1
 602 78 l 2,25,26
 605 106 605 106 609 135.5 c 128,-1,27
 613 165 613 165 616 185 c 1,28,-1
 613 185 l 1,29,30
 585 138 585 138 555.5 100 c 128,-1,31
 526 62 526 62 490.5 35.5 c 128,-1,32
 455 9 455 9 412 -5 c 128,-1,33
 369 -19 369 -19 314 -19 c 0,34,35
 193 -19 193 -19 132 54 c 128,-1,36
 71 127 71 127 71 265 c 0,37,38
 71 301 71 301 76 346 c 128,-1,39
 81 391 81 391 88 429 c 2,40,-1
 192 1082 l 1,41,-1
 340 1082 l 1,0,-1
EndSplineSet
EndChar

StartChar: v
Encoding: 118 118 89
Width: 840
GlyphClass: 2
Flags: W
LayerCount: 2
Fore
SplineSet
416 0 m 1,0,-1
 241 0 l 1,1,-1
 92 1082 l 1,2,-1
 245 1082 l 1,3,-1
 328 378 l 1,4,5
 328 378 328 378 333 324 c 0,6,7
 336 293 336 293 338.5 259 c 128,-1,8
 341 225 341 225 343 193.5 c 128,-1,9
 345 162 345 162 347 141 c 1,10,-1
 368 194 l 1,11,-1
 394 258 l 1,12,-1
 422 322 l 1,13,-1
 445 376 l 1,14,-1
 760 1082 l 1,15,-1
 920 1082 l 1,16,-1
 416 0 l 1,0,-1
EndSplineSet
EndChar

StartChar: w
Encoding: 119 119 90
Width: 1212
GlyphClass: 2
Flags: W
LayerCount: 2
Fore
SplineSet
875 0 m 1,0,-1
 704 0 l 1,1,-1
 674 698 l 2,2,3
 673 718 673 718 672 757 c 2,4,-1
 670 836 l 2,5,6
 669 883 669 883 669 934 c 1,7,8
 669 934 669 934 639 845 c 2,9,10
 639 845 639 845 612 766 c 1,11,-1
 586 694 l 1,12,-1
 329 0 l 1,13,-1
 159 0 l 1,14,-1
 84 1082 l 1,15,-1
 229 1082 l 1,16,-1
 262 347 l 2,17,18
 263 335 263 335 264 307.5 c 128,-1,19
 265 280 265 280 265.5 249.5 c 128,-1,20
 266 219 266 219 267 190.5 c 128,-1,21
 268 162 268 162 268 149 c 1,22,23
 280 185 280 185 293 220 c 0,24,25
 304 250 304 250 314.5 283 c 128,-1,26
 325 316 325 316 334 339 c 2,27,-1
 614 1082 l 1,28,-1
 772 1082 l 1,29,-1
 808 339 l 2,30,31
 810 285 810 285 811.5 235 c 128,-1,32
 813 185 813 185 813 149 c 1,33,34
 825 185 825 185 838 220 c 2,35,36
 838 220 838 220 862 284 c 1,37,-1
 884 347 l 1,38,-1
 1158 1082 l 1,39,-1
 1302 1082 l 1,40,-1
 875 0 l 1,0,-1
EndSplineSet
EndChar

StartChar: x
Encoding: 120 120 91
Width: 840
GlyphClass: 2
Flags: W
LayerCount: 2
Fore
SplineSet
579 0 m 1,0,-1
 408 444 l 1,1,-1
 96 0 l 1,2,-1
 -67 0 l 1,3,-1
 336 556 l 1,4,-1
 120 1082 l 1,5,-1
 275 1082 l 1,6,-1
 433 661 l 1,7,-1
 720 1082 l 1,8,-1
 889 1082 l 1,9,-1
 504 558 l 1,10,-1
 735 0 l 1,11,-1
 579 0 l 1,0,-1
EndSplineSet
EndChar

StartChar: y
Encoding: 121 121 92
Width: 840
GlyphClass: 2
Flags: W
LayerCount: 2
Fore
SplineSet
411 0 m 2,0,1
 366 -95 366 -95 324 -173 c 128,-1,2
 282 -251 282 -251 236 -307 c 128,-1,3
 190 -363 190 -363 136.5 -394 c 128,-1,4
 83 -425 83 -425 13 -425 c 0,5,6
 -14 -425 -14 -425 -42.5 -421.5 c 128,-1,7
 -71 -418 -71 -418 -95 -411 c 1,8,-1
 -70 -277 l 1,9,10
 -56 -280 -56 -280 -38.5 -282.5 c 128,-1,11
 -21 -285 -21 -285 -7 -285 c 0,12,13
 71 -285 71 -285 130.5 -221 c 128,-1,14
 190 -157 190 -157 248 -35 c 2,15,-1
 270 12 l 1,16,-1
 92 1082 l 1,17,-1
 242 1082 l 1,18,-1
 334 484 l 2,19,20
 339 452 339 452 344 410 c 2,21,-1
 355 326 l 1,22,-1
 364 250 l 2,23,24
 368 214 368 214 368 196 c 1,25,26
 376 218 376 218 390 250 c 2,27,-1
 419 316 l 1,28,-1
 452 390 l 1,29,-1
 484 462 l 1,30,-1
 761 1082 l 1,31,-1
 924 1082 l 1,32,-1
 411 0 l 2,0,1
EndSplineSet
EndChar

StartChar: z
Encoding: 122 122 93
Width: 840
GlyphClass: 2
Flags: W
LayerCount: 2
Fore
SplineSet
-36 0 m 1,0,-1
 -14 137 l 1,1,-1
 640 943 l 1,2,-1
 147 943 l 1,3,-1
 169 1082 l 1,4,-1
 845 1082 l 1,5,-1
 823 945 l 1,6,-1
 167 139 l 1,7,-1
 724 139 l 1,8,-1
 702 0 l 1,9,-1
 -36 0 l 1,0,-1
EndSplineSet
EndChar

StartChar: braceleft
Encoding: 123 123 94
Width: 561
GlyphClass: 2
Flags: W
LayerCount: 2
Fore
SplineSet
300 -425 m 2,0,1
 252 -425 252 -425 214.5 -406 c 128,-1,2
 177 -387 177 -387 152 -354 c 128,-1,3
 127 -321 127 -321 114.5 -275 c 128,-1,4
 102 -229 102 -229 102 -175 c 0,5,6
 102 -163 102 -163 102.5 -147.5 c 128,-1,7
 103 -132 103 -132 104 -116 c 128,-1,8
 105 -100 105 -100 106.5 -84.5 c 128,-1,9
 108 -69 108 -69 110 -58 c 2,10,-1
 156 229 l 2,11,12
 163 273 163 273 163 306 c 0,13,14
 163 389 163 389 125 425.5 c 128,-1,15
 87 462 87 462 17 466 c 1,16,-1
 38 593 l 1,17,18
 80 595 80 595 115 609 c 128,-1,19
 150 623 150 623 177 651 c 128,-1,20
 204 679 204 679 223 723 c 128,-1,21
 242 767 242 767 252 829 c 2,22,-1
 309 1191 l 2,23,24
 332 1334 332 1334 394 1409 c 128,-1,25
 456 1484 456 1484 572 1484 c 2,26,-1
 683 1484 l 1,27,-1
 663 1355 l 1,28,-1
 611 1355 l 2,29,30
 571 1355 571 1355 542.5 1342 c 128,-1,31
 514 1329 514 1329 494 1303 c 128,-1,32
 474 1277 474 1277 461 1236.5 c 128,-1,33
 448 1196 448 1196 439 1140 c 2,34,-1
 382 784 l 2,35,36
 374 734 374 734 355 692 c 128,-1,37
 336 650 336 650 310 618 c 128,-1,38
 284 586 284 586 251 564 c 128,-1,39
 218 542 218 542 183 532 c 1,40,-1
 183 530 l 1,41,42
 240 513 240 513 273 463 c 128,-1,43
 306 413 306 413 306 335 c 0,44,45
 306 308 306 308 301 276 c 2,46,-1
 251 -43 l 1,47,48
 251 -43 251 -43 247 -74 c 0,49,50
 245 -91 245 -91 244 -107.5 c 128,-1,51
 243 -124 243 -124 241.5 -139 c 128,-1,52
 240 -154 240 -154 240 -165 c 0,53,54
 238 -225 238 -225 267.5 -260.5 c 128,-1,55
 297 -296 297 -296 360 -296 c 2,56,-1
 399 -296 l 1,57,-1
 379 -425 l 1,58,-1
 300 -425 l 2,0,1
EndSplineSet
EndChar

StartChar: bar
Encoding: 124 124 95
Width: 436
GlyphClass: 2
Flags: W
LayerCount: 2
Fore
SplineSet
175 -454 m 1,0,-1
 175 1484 l 1,1,-1
 311 1484 l 1,2,-1
 311 -454 l 1,3,-1
 175 -454 l 1,0,-1
EndSplineSet
EndChar

StartChar: braceright
Encoding: 125 125 96
Width: 561
GlyphClass: 2
Flags: W
LayerCount: 2
Fore
SplineSet
253 1484 m 2,0,1
 301 1484 301 1484 338.5 1465 c 128,-1,2
 376 1446 376 1446 401 1413 c 128,-1,3
 426 1380 426 1380 438.5 1334 c 128,-1,4
 451 1288 451 1288 451 1234 c 0,5,6
 451 1222 451 1222 450.5 1206.5 c 128,-1,7
 450 1191 450 1191 449 1175 c 128,-1,8
 448 1159 448 1159 446.5 1143.5 c 128,-1,9
 445 1128 445 1128 443 1117 c 2,10,-1
 397 830 l 2,11,12
 390 787 390 787 390 753 c 0,13,14
 390 670 390 670 428 633.5 c 128,-1,15
 466 597 466 597 536 593 c 1,16,-1
 515 466 l 1,17,18
 473 464 473 464 438 450 c 128,-1,19
 403 436 403 436 376 408 c 128,-1,20
 349 380 349 380 330 336 c 128,-1,21
 311 292 311 292 301 230 c 2,22,-1
 244 -132 l 2,23,24
 221 -275 221 -275 159 -350 c 128,-1,25
 97 -425 97 -425 -20 -425 c 2,26,-1
 -130 -425 l 1,27,-1
 -110 -296 l 1,28,-1
 -58 -296 l 2,29,30
 -18 -296 -18 -296 10.5 -283 c 128,-1,31
 39 -270 39 -270 59 -244 c 128,-1,32
 79 -218 79 -218 92 -177.5 c 128,-1,33
 105 -137 105 -137 114 -81 c 2,34,-1
 171 275 l 2,35,36
 179 325 179 325 198 367 c 128,-1,37
 217 409 217 409 243 441 c 128,-1,38
 269 473 269 473 302 495 c 128,-1,39
 335 517 335 517 370 527 c 1,40,-1
 370 529 l 1,41,42
 313 546 313 546 280 596 c 128,-1,43
 247 646 247 646 247 724 c 0,44,45
 247 752 247 752 252 783 c 2,46,-1
 302 1102 l 1,47,48
 302 1102 302 1102 306 1134 c 0,49,50
 308 1150 308 1150 309 1166 c 2,51,-1
 311 1198 l 2,52,53
 312 1213 312 1213 312 1224 c 0,54,55
 314 1284 314 1284 285 1319.5 c 128,-1,56
 256 1355 256 1355 193 1355 c 2,57,-1
 153 1355 l 1,58,-1
 174 1484 l 1,59,-1
 253 1484 l 2,0,1
EndSplineSet
EndChar

StartChar: asciitilde
Encoding: 126 126 97
Width: 981
GlyphClass: 2
Flags: W
LayerCount: 2
Fore
SplineSet
717 553 m 0,0,1
 660 553 660 553 600.5 575 c 128,-1,2
 541 597 541 597 481 623 c 0,3,4
 375 668 375 668 303 668 c 0,5,6
 272 668 272 668 245.5 662 c 128,-1,7
 219 656 219 656 194.5 644.5 c 128,-1,8
 170 633 170 633 147 617 c 128,-1,9
 124 601 124 601 100 580 c 1,10,-1
 100 723 l 1,11,12
 141 761 141 761 195 784 c 128,-1,13
 249 807 249 807 316 807 c 0,14,15
 350 807 350 807 382 800.5 c 128,-1,16
 414 794 414 794 445.5 784 c 128,-1,17
 477 774 477 774 508 761 c 2,18,-1
 569 735 l 1,19,20
 569 735 569 735 606 720 c 0,21,22
 627 712 627 712 648 705 c 128,-1,23
 669 698 669 698 690 694 c 128,-1,24
 711 690 711 690 730 690 c 0,25,26
 787 690 787 690 837 715 c 128,-1,27
 887 740 887 740 930 782 c 1,28,-1
 930 633 l 1,29,30
 905 611 905 611 880.5 595.5 c 128,-1,31
 856 580 856 580 830.5 570.5 c 128,-1,32
 805 561 805 561 777.5 557 c 128,-1,33
 750 553 750 553 717 553 c 0,0,1
EndSplineSet
EndChar

StartChar: exclamdown
Encoding: 161 161 98
Width: 559
GlyphClass: 2
Flags: W
LayerCount: 2
Fore
SplineSet
233 686 m 1,0,-1
 354 686 l 1,1,-1
 213 -326 l 1,2,-1
 52 -326 l 1,3,-1
 233 686 l 1,0,-1
439 1083 m 1,4,-1
 407 882 l 1,5,-1
 248 882 l 1,6,-1
 280 1083 l 1,7,-1
 439 1083 l 1,4,-1
EndSplineSet
EndChar

StartChar: cent
Encoding: 162 162 99
Width: 934
GlyphClass: 2
Flags: W
HStem: 136.034 146.744<341.729 381.526 505.899 590.094> 1389 20G<579.819 685>
VStem: 130 150<346.979 866.422> 696 128<403.847 464.488> 750 145<940 1058.76>
LayerCount: 2
Fore
SplineSet
505.899 282.778 m 1,0,1
 639.336 311.563 639.336 311.563 696 508 c 1,2,-1
 824 459 l 1,3,4
 729.927 151.125 729.927 151.125 482.563 136.034 c 1,5,-1
 456 -31 l 1,6,-1
 354 -31 l 1,7,-1
 381.526 142.087 l 1,8,9
 191.812 176.858 191.812 176.858 144.5 402 c 0,10,11
 130 471 130 471 130 531 c 0,12,13
 130 656.875 130 656.875 145 746.438 c 128,-1,14
 160 836 160 836 186 916 c 128,-1,15
 212 996 212 996 244.5 1053.5 c 128,-1,16
 277 1111 277 1111 315 1149.5 c 0,17,18
 413.85 1249.65 413.85 1249.65 558.819 1256.94 c 1,19,-1
 583 1409 l 1,20,-1
 685 1409 l 1,21,-1
 661 1251 l 1,22,23
 822.825 1222.1 822.825 1222.1 875.5 1054.5 c 0,24,25
 892 1002 892 1002 895 940 c 1,26,-1
 750 915 l 1,27,28
 743.037 1071.68 743.037 1071.68 637.193 1108.38 c 1,29,-1
 505.899 282.778 l 1,0,1
404.272 285.122 m 1,30,-1
 535.997 1113.43 l 1,31,32
 453.107 1099.95 453.107 1099.95 408.553 1043.48 c 0,33,34
 308.308 916.404 308.308 916.404 284.5 636 c 0,35,36
 280 583 280 583 280 545 c 0,37,38
 280 320.893 280 320.893 404.272 285.122 c 1,30,-1
EndSplineSet
EndChar

StartChar: sterling
Encoding: 163 163 100
Width: 934
GlyphClass: 2
Flags: W
LayerCount: 2
Fore
SplineSet
882 310 m 1,0,1
 852 158 852 158 769.5 79 c 128,-1,2
 687 0 687 0 564 0 c 2,3,-1
 -10 0 l 1,4,-1
 14 154 l 1,5,6
 94 200 94 200 141.5 278.5 c 128,-1,7
 189 357 189 357 209 481 c 2,8,-1
 232 625 l 1,9,-1
 80 625 l 1,10,-1
 100 754 l 1,11,-1
 253 754 l 1,12,-1
 298 1034 l 2,13,14
 313 1126 313 1126 340.5 1199.5 c 128,-1,15
 368 1273 368 1273 413 1324 c 128,-1,16
 458 1375 458 1375 521.5 1402.5 c 128,-1,17
 585 1430 585 1430 669 1430 c 0,18,19
 726 1430 726 1430 776.5 1415 c 128,-1,20
 827 1400 827 1400 865.5 1370.5 c 128,-1,21
 904 1341 904 1341 930 1298.5 c 128,-1,22
 956 1256 956 1256 966 1200 c 1,23,-1
 832 1150 l 1,24,25
 816 1214 816 1214 769.5 1248 c 128,-1,26
 723 1282 723 1282 663 1282 c 0,27,28
 570 1282 570 1282 518 1224.5 c 128,-1,29
 466 1167 466 1167 446 1042 c 2,30,-1
 400 754 l 1,31,-1
 735 754 l 1,32,-1
 714 625 l 1,33,-1
 380 625 l 1,34,-1
 358 478 l 2,35,36
 350 423 350 423 332.5 373 c 128,-1,37
 315 323 315 323 290 281 c 128,-1,38
 265 239 265 239 234 206.5 c 128,-1,39
 203 174 203 174 166 153 c 1,40,-1
 546 153 l 2,41,42
 630 153 630 153 683 195.5 c 128,-1,43
 736 238 736 238 758 334 c 1,44,-1
 882 310 l 1,0,1
EndSplineSet
EndChar

StartChar: currency
Encoding: 164 164 101
Width: 934
GlyphClass: 2
Flags: W
LayerCount: 2
Fore
SplineSet
135 684 m 256,0,1
 135 755 135 755 152 818.5 c 128,-1,2
 169 882 169 882 199 936 c 1,3,-1
 117 1036 l 1,4,-1
 203 1139 l 1,5,-1
 284 1038 l 1,6,7
 328 1077 328 1077 380 1098.5 c 128,-1,8
 432 1120 432 1120 492 1120 c 0,9,10
 550 1120 550 1120 602 1099 c 128,-1,11
 654 1078 654 1078 698 1040 c 1,12,-1
 777 1137 l 1,13,-1
 863 1032 l 1,14,-1
 784 936 l 1,15,16
 814 882 814 882 832 818.5 c 128,-1,17
 850 755 850 755 850 684 c 256,18,19
 850 613 850 613 831.5 549 c 128,-1,20
 813 485 813 485 782 432 c 1,21,-1
 864 332 l 1,22,-1
 781 227 l 1,23,-1
 698 328 l 1,24,25
 654 291 654 291 602 270.5 c 128,-1,26
 550 250 550 250 492 250 c 0,27,28
 433 250 433 250 380.5 271 c 128,-1,29
 328 292 328 292 285 330 c 1,30,-1
 199 225 l 1,31,-1
 116 330 l 1,32,-1
 199 432 l 1,33,34
 169 486 169 486 152 549.5 c 128,-1,35
 135 613 135 613 135 684 c 256,0,1
262 686 m 256,36,37
 262 628 262 628 280 577 c 128,-1,38
 298 526 298 526 329.5 488 c 128,-1,39
 361 450 361 450 402.5 428 c 128,-1,40
 444 406 444 406 492 406 c 0,41,42
 539 406 539 406 580.5 428 c 128,-1,43
 622 450 622 450 654 488 c 128,-1,44
 686 526 686 526 704 577 c 128,-1,45
 722 628 722 628 722 686 c 256,46,47
 722 744 722 744 704 795 c 128,-1,48
 686 846 686 846 654 884.5 c 128,-1,49
 622 923 622 923 580.5 945 c 128,-1,50
 539 967 539 967 492 967 c 0,51,52
 444 967 444 967 402.5 945 c 128,-1,53
 361 923 361 923 329.5 884.5 c 128,-1,54
 298 846 298 846 280 795 c 128,-1,55
 262 744 262 744 262 686 c 256,36,37
EndSplineSet
EndChar

StartChar: yen
Encoding: 165 165 102
Width: 934
GlyphClass: 2
Flags: W
LayerCount: 2
Fore
SplineSet
611 709 m 1,0,-1
 874 709 l 1,1,-1
 854 584 l 1,2,-1
 540 584 l 1,3,-1
 516 430 l 1,4,-1
 830 430 l 1,5,-1
 809 303 l 1,6,-1
 495 303 l 1,7,-1
 447 0 l 1,8,-1
 301 0 l 1,9,-1
 349 303 l 1,10,-1
 37 303 l 1,11,-1
 57 430 l 1,12,-1
 370 430 l 1,13,-1
 396 584 l 1,14,-1
 82 584 l 1,15,-1
 102 709 l 1,16,-1
 364 709 l 1,17,-1
 130 1409 l 1,18,-1
 289 1409 l 1,19,-1
 490 762 l 1,20,-1
 900 1409 l 1,21,-1
 1068 1409 l 1,22,-1
 611 709 l 1,0,-1
EndSplineSet
EndChar

StartChar: brokenbar
Encoding: 166 166 103
Width: 436
GlyphClass: 2
Flags: W
LayerCount: 2
Fore
SplineSet
175 707 m 1,0,-1
 175 1485 l 1,1,-1
 311 1485 l 1,2,-1
 311 707 l 1,3,-1
 175 707 l 1,0,-1
175 -455 m 1,4,-1
 175 324 l 1,5,-1
 311 324 l 1,6,-1
 311 -455 l 1,7,-1
 175 -455 l 1,4,-1
EndSplineSet
EndChar

StartChar: section
Encoding: 167 167 104
Width: 934
GlyphClass: 2
Flags: W
LayerCount: 2
Fore
SplineSet
828 673 m 0,0,1
 828 612 828 612 812.5 565 c 128,-1,2
 797 518 797 518 767.5 483.5 c 128,-1,3
 738 449 738 449 696.5 425.5 c 128,-1,4
 655 402 655 402 604 388 c 1,5,6
 651 352 651 352 681.5 298.5 c 128,-1,7
 712 245 712 245 712 165 c 0,8,9
 712 80 712 80 684 16.5 c 128,-1,10
 656 -47 656 -47 604.5 -89 c 128,-1,11
 553 -131 553 -131 479.5 -151.5 c 128,-1,12
 406 -172 406 -172 314 -172 c 0,13,14
 239 -172 239 -172 182 -156 c 128,-1,15
 125 -140 125 -140 84 -109.5 c 128,-1,16
 43 -79 43 -79 15.5 -33.5 c 128,-1,17
 -12 12 -12 12 -28 71 c 1,18,-1
 93 127 l 1,19,20
 105 87 105 87 124.5 55.5 c 128,-1,21
 144 24 144 24 172 2.5 c 128,-1,22
 200 -19 200 -19 239 -30 c 128,-1,23
 278 -41 278 -41 330 -41 c 128,-1,24
 382 -41 382 -41 426 -30.5 c 128,-1,25
 470 -20 470 -20 501.5 3 c 128,-1,26
 533 26 533 26 550.5 62 c 128,-1,27
 568 98 568 98 568 149 c 0,28,29
 568 189 568 189 552 218.5 c 128,-1,30
 536 248 536 248 507.5 270.5 c 128,-1,31
 479 293 479 293 439 311.5 c 128,-1,32
 399 330 399 330 350 348 c 0,33,34
 297 368 297 368 248.5 396 c 128,-1,35
 200 424 200 424 163.5 463 c 128,-1,36
 127 502 127 502 105.5 554 c 128,-1,37
 84 606 84 606 84 673 c 0,38,39
 84 734 84 734 100.5 781 c 128,-1,40
 117 828 117 828 147 862.5 c 128,-1,41
 177 897 177 897 219 920.5 c 128,-1,42
 261 944 261 944 310 957 c 1,43,44
 261 995 261 995 230.5 1049.5 c 128,-1,45
 200 1104 200 1104 200 1182 c 0,46,47
 200 1264 200 1264 229 1321.5 c 128,-1,48
 258 1379 258 1379 308 1415 c 128,-1,49
 358 1451 358 1451 426 1467.5 c 128,-1,50
 494 1484 494 1484 570 1484 c 0,51,52
 635 1484 635 1484 689.5 1470 c 128,-1,53
 744 1456 744 1456 785 1425.5 c 128,-1,54
 826 1395 826 1395 853 1346.5 c 128,-1,55
 880 1298 880 1298 890 1229 c 1,56,-1
 756 1204 l 1,57,58
 738 1283 738 1283 689 1318 c 128,-1,59
 640 1353 640 1353 564 1353 c 0,60,61
 516 1353 516 1353 475.5 1344.5 c 128,-1,62
 435 1336 435 1336 405.5 1317 c 128,-1,63
 376 1298 376 1298 359.5 1267 c 128,-1,64
 343 1236 343 1236 343 1190 c 0,65,66
 343 1154 343 1154 359.5 1126.5 c 128,-1,67
 376 1099 376 1099 404.5 1076.5 c 128,-1,68
 433 1054 433 1054 472.5 1035.5 c 128,-1,69
 512 1017 512 1017 558 999 c 0,70,71
 605 981 605 981 652.5 956 c 128,-1,72
 700 931 700 931 739.5 893.5 c 128,-1,73
 779 856 779 856 803.5 802 c 128,-1,74
 828 748 828 748 828 673 c 0,0,1
226 688 m 0,75,76
 226 641 226 641 246.5 606.5 c 128,-1,77
 267 572 267 572 298.5 546.5 c 128,-1,78
 330 521 330 521 370.5 502 c 128,-1,79
 411 483 411 483 451 468 c 1,80,81
 498 470 498 470 540 482 c 128,-1,82
 582 494 582 494 614.5 517.5 c 128,-1,83
 647 541 647 541 666 577 c 128,-1,84
 685 613 685 613 685 662 c 0,85,86
 685 710 685 710 665 744.5 c 128,-1,87
 645 779 645 779 611.5 804.5 c 128,-1,88
 578 830 578 830 533 849 c 128,-1,89
 488 868 488 868 437 886 c 1,90,91
 391 883 391 883 352 868 c 128,-1,92
 313 853 313 853 285 827.5 c 128,-1,93
 257 802 257 802 241.5 766.5 c 128,-1,94
 226 731 226 731 226 688 c 0,75,76
EndSplineSet
EndChar

StartChar: dieresis
Encoding: 168 168 105
Width: 559
GlyphClass: 2
Flags: W
LayerCount: 2
Fore
SplineSet
427 1219 m 1,0,-1
 456 1403 l 1,1,-1
 598 1403 l 1,2,-1
 569 1219 l 1,3,-1
 427 1219 l 1,0,-1
112 1219 m 1,4,-1
 141 1403 l 1,5,-1
 284 1403 l 1,6,-1
 256 1219 l 1,7,-1
 112 1219 l 1,4,-1
EndSplineSet
EndChar

StartChar: copyright
Encoding: 169 169 106
Width: 1237
GlyphClass: 2
Flags: W
LayerCount: 2
Fore
SplineSet
1237 707 m 0,0,1
 1237 607 1237 607 1215.5 514.5 c 128,-1,2
 1194 422 1194 422 1155.5 341.5 c 128,-1,3
 1117 261 1117 261 1063.5 195.5 c 128,-1,4
 1010 130 1010 130 944 83 c 128,-1,5
 878 36 878 36 802 10 c 128,-1,6
 726 -16 726 -16 644 -16 c 0,7,8
 563 -16 563 -16 487.5 10 c 128,-1,9
 412 36 412 36 346 83 c 128,-1,10
 280 130 280 130 225.5 195.5 c 128,-1,11
 171 261 171 261 132.5 341.5 c 128,-1,12
 94 422 94 422 73 514.5 c 128,-1,13
 52 607 52 607 52 707 c 256,14,15
 52 807 52 807 73 899 c 128,-1,16
 94 991 94 991 132.5 1071.5 c 128,-1,17
 171 1152 171 1152 225.5 1218 c 128,-1,18
 280 1284 280 1284 346 1331 c 128,-1,19
 412 1378 412 1378 487 1404 c 128,-1,20
 562 1430 562 1430 644 1430 c 0,21,22
 767 1430 767 1430 875 1373 c 128,-1,23
 983 1316 983 1316 1063.5 1218 c 128,-1,24
 1144 1120 1144 1120 1190.5 988.5 c 128,-1,25
 1237 857 1237 857 1237 707 c 0,0,1
1162 707 m 0,26,27
 1162 837 1162 837 1121 951 c 128,-1,28
 1080 1065 1080 1065 1009.5 1150.5 c 128,-1,29
 939 1236 939 1236 845.5 1285.5 c 128,-1,30
 752 1335 752 1335 644 1335 c 0,31,32
 537 1335 537 1335 444 1285.5 c 128,-1,33
 351 1236 351 1236 281 1150.5 c 128,-1,34
 211 1065 211 1065 170.5 951 c 128,-1,35
 130 837 130 837 130 707 c 0,36,37
 130 576 130 576 170.5 461.5 c 128,-1,38
 211 347 211 347 281 261.5 c 128,-1,39
 351 176 351 176 444.5 127 c 128,-1,40
 538 78 538 78 644 78 c 0,41,42
 751 78 751 78 845 127 c 128,-1,43
 939 176 939 176 1009.5 261.5 c 128,-1,44
 1080 347 1080 347 1121 461.5 c 128,-1,45
 1162 576 1162 576 1162 707 c 0,26,27
653 279 m 0,46,47
 570 279 570 279 509 311 c 128,-1,48
 448 343 448 343 408 400 c 128,-1,49
 368 457 368 457 348.5 536 c 128,-1,50
 329 615 329 615 329 709 c 0,51,52
 329 807 329 807 348.5 885 c 128,-1,53
 368 963 368 963 408 1018.5 c 128,-1,54
 448 1074 448 1074 507.5 1103.5 c 128,-1,55
 567 1133 567 1133 648 1133 c 0,56,57
 709 1133 709 1133 755 1115 c 128,-1,58
 801 1097 801 1097 833.5 1067.5 c 128,-1,59
 866 1038 866 1038 889 1000.5 c 128,-1,60
 912 963 912 963 926 924 c 1,61,-1
 833 891 l 1,62,63
 823 917 823 917 807.5 942 c 128,-1,64
 792 967 792 967 769.5 986 c 128,-1,65
 747 1005 747 1005 717.5 1016.5 c 128,-1,66
 688 1028 688 1028 649 1028 c 0,67,68
 592 1028 592 1028 552 1005 c 128,-1,69
 512 982 512 982 485.5 940.5 c 128,-1,70
 459 899 459 899 446.5 840 c 128,-1,71
 434 781 434 781 434 709 c 256,72,73
 434 637 434 637 448 577 c 128,-1,74
 462 517 462 517 489 474 c 128,-1,75
 516 431 516 431 557 407 c 128,-1,76
 598 383 598 383 653 383 c 0,77,78
 693 383 693 383 724 396.5 c 128,-1,79
 755 410 755 410 778 432.5 c 128,-1,80
 801 455 801 455 817 483 c 128,-1,81
 833 511 833 511 844 539 c 1,82,-1
 939 504 l 1,83,84
 921 461 921 461 897 420.5 c 128,-1,85
 873 380 873 380 839.5 348.5 c 128,-1,86
 806 317 806 317 760 298 c 128,-1,87
 714 279 714 279 653 279 c 0,46,47
EndSplineSet
EndChar

StartChar: ordfeminine
Encoding: 170 170 107
Width: 621
GlyphClass: 2
Flags: W
LayerCount: 2
Fore
SplineSet
655 670 m 1,0,1
 641 664 641 664 625.5 660.5 c 128,-1,2
 610 657 610 657 592 657 c 0,3,4
 562 657 562 657 541 665.5 c 128,-1,5
 520 674 520 674 506.5 689 c 128,-1,6
 493 704 493 704 486.5 723.5 c 128,-1,7
 480 743 480 743 480 765 c 0,8,9
 480 771 480 771 481 784 c 128,-1,10
 482 797 482 797 483 805 c 1,11,-1
 480 805 l 1,12,13
 458 770 458 770 434.5 741.5 c 128,-1,14
 411 713 411 713 384 693 c 128,-1,15
 357 673 357 673 325 662 c 128,-1,16
 293 651 293 651 255 651 c 0,17,18
 211 651 211 651 177 666.5 c 128,-1,19
 143 682 143 682 120 709.5 c 128,-1,20
 97 737 97 737 85 775 c 128,-1,21
 73 813 73 813 73 858 c 0,22,23
 73 936 73 936 99 984.5 c 128,-1,24
 125 1033 125 1033 167 1061 c 128,-1,25
 209 1089 209 1089 262.5 1100 c 128,-1,26
 316 1111 316 1111 371 1112 c 2,27,-1
 518 1116 l 1,28,-1
 528 1176 l 2,29,30
 533 1206 533 1206 533 1229 c 0,31,32
 533 1282 533 1282 505 1306.5 c 128,-1,33
 477 1331 477 1331 428 1331 c 0,34,35
 401 1331 401 1331 377 1324.5 c 128,-1,36
 353 1318 353 1318 333.5 1302 c 128,-1,37
 314 1286 314 1286 299.5 1260 c 128,-1,38
 285 1234 285 1234 278 1196 c 1,39,-1
 170 1213 l 1,40,41
 181 1262 181 1262 200.5 1302 c 128,-1,42
 220 1342 220 1342 252 1371 c 128,-1,43
 284 1400 284 1400 328 1416 c 128,-1,44
 372 1432 372 1432 430 1432 c 0,45,46
 534 1432 534 1432 591 1378.5 c 128,-1,47
 648 1325 648 1325 648 1233 c 0,48,49
 648 1226 648 1226 647 1215 c 2,50,-1
 645 1192 l 2,51,52
 644 1181 644 1181 642.5 1169.5 c 128,-1,53
 641 1158 641 1158 640 1149 c 2,54,-1
 596 874 l 2,55,56
 591 843 591 843 592 821 c 1,57,58
 592 792 592 792 601 779 c 128,-1,59
 610 766 610 766 631 766 c 0,60,61
 641 766 641 766 650.5 768.5 c 128,-1,62
 660 771 660 771 667 774 c 1,63,-1
 655 670 l 1,0,1
503 1024 m 1,64,-1
 389 1020 l 2,65,66
 354 1019 354 1019 319.5 1012.5 c 128,-1,67
 285 1006 285 1006 258.5 989.5 c 128,-1,68
 232 973 232 973 215.5 943 c 128,-1,69
 199 913 199 913 199 865 c 0,70,71
 199 845 199 845 204 826.5 c 128,-1,72
 209 808 209 808 220 793.5 c 128,-1,73
 231 779 231 779 248 770.5 c 128,-1,74
 265 762 265 762 288 762 c 0,75,76
 326 762 326 762 361 779.5 c 128,-1,77
 396 797 396 797 423.5 826.5 c 128,-1,78
 451 856 451 856 469.5 894 c 128,-1,79
 488 932 488 932 495 972 c 2,80,-1
 503 1024 l 1,64,-1
EndSplineSet
EndChar

StartChar: guillemotleft
Encoding: 171 171 108
Width: 934
GlyphClass: 2
Flags: W
LayerCount: 2
Fore
SplineSet
671 141 m 1,0,-1
 452 506 l 1,1,-1
 462 569 l 1,2,-1
 798 940 l 1,3,-1
 927 940 l 1,4,-1
 923 903 l 1,5,-1
 586 531 l 1,6,-1
 806 164 l 1,7,-1
 802 141 l 1,8,-1
 671 141 l 1,0,-1
280 141 m 1,9,-1
 62 506 l 1,10,-1
 72 569 l 1,11,-1
 407 940 l 1,12,-1
 535 940 l 1,13,-1
 531 902 l 1,14,-1
 197 530 l 1,15,-1
 414 163 l 1,16,-1
 410 141 l 1,17,-1
 280 141 l 1,9,-1
EndSplineSet
EndChar

StartChar: logicalnot
Encoding: 172 172 109
Width: 981
GlyphClass: 2
Flags: W
LayerCount: 2
Fore
SplineSet
779 180 m 1,0,-1
 779 608 l 1,1,-1
 82 608 l 1,2,-1
 82 754 l 1,3,-1
 898 754 l 1,4,-1
 898 180 l 1,5,-1
 779 180 l 1,0,-1
EndSplineSet
EndChar

StartChar: registered
Encoding: 174 174 110
Width: 1237
GlyphClass: 2
Flags: W
LayerCount: 2
Fore
SplineSet
1237 707 m 0,0,1
 1237 607 1237 607 1215.5 514.5 c 128,-1,2
 1194 422 1194 422 1155.5 341.5 c 128,-1,3
 1117 261 1117 261 1063.5 195.5 c 128,-1,4
 1010 130 1010 130 944 83 c 128,-1,5
 878 36 878 36 802 10 c 128,-1,6
 726 -16 726 -16 644 -16 c 0,7,8
 563 -16 563 -16 487.5 10 c 128,-1,9
 412 36 412 36 346 83 c 128,-1,10
 280 130 280 130 225.5 195.5 c 128,-1,11
 171 261 171 261 132.5 341.5 c 128,-1,12
 94 422 94 422 73 514.5 c 128,-1,13
 52 607 52 607 52 707 c 256,14,15
 52 807 52 807 73 899 c 128,-1,16
 94 991 94 991 132.5 1071.5 c 128,-1,17
 171 1152 171 1152 225.5 1218 c 128,-1,18
 280 1284 280 1284 346 1331 c 128,-1,19
 412 1378 412 1378 487 1404 c 128,-1,20
 562 1430 562 1430 644 1430 c 0,21,22
 767 1430 767 1430 875 1373 c 128,-1,23
 983 1316 983 1316 1063.5 1218 c 128,-1,24
 1144 1120 1144 1120 1190.5 988.5 c 128,-1,25
 1237 857 1237 857 1237 707 c 0,0,1
1162 707 m 0,26,27
 1162 837 1162 837 1121 951 c 128,-1,28
 1080 1065 1080 1065 1009.5 1150.5 c 128,-1,29
 939 1236 939 1236 845.5 1285.5 c 128,-1,30
 752 1335 752 1335 644 1335 c 0,31,32
 537 1335 537 1335 444 1285.5 c 128,-1,33
 351 1236 351 1236 281 1150.5 c 128,-1,34
 211 1065 211 1065 170.5 951 c 128,-1,35
 130 837 130 837 130 707 c 0,36,37
 130 576 130 576 170.5 461.5 c 128,-1,38
 211 347 211 347 281 261.5 c 128,-1,39
 351 176 351 176 444.5 127 c 128,-1,40
 538 78 538 78 644 78 c 0,41,42
 751 78 751 78 845 127 c 128,-1,43
 939 176 939 176 1009.5 261.5 c 128,-1,44
 1080 347 1080 347 1121 461.5 c 128,-1,45
 1162 576 1162 576 1162 707 c 0,26,27
809 289 m 1,46,-1
 646 625 l 1,47,-1
 514 625 l 1,48,-1
 514 289 l 1,49,-1
 410 289 l 1,50,-1
 410 1120 l 1,51,-1
 662 1120 l 2,52,53
 778 1120 778 1120 840 1057 c 128,-1,54
 902 994 902 994 902 883 c 0,55,56
 902 781 902 781 859 719.5 c 128,-1,57
 816 658 816 658 747 639 c 1,58,-1
 928 289 l 1,59,-1
 809 289 l 1,46,-1
798 881 m 0,60,61
 798 950 798 950 759 986 c 128,-1,62
 720 1022 720 1022 653 1022 c 2,63,-1
 514 1022 l 1,64,-1
 514 721 l 1,65,-1
 663 721 l 2,66,67
 729 721 729 721 763.5 763.5 c 128,-1,68
 798 806 798 806 798 881 c 0,60,61
EndSplineSet
EndChar

StartChar: macron
Encoding: 175 175 111
Width: 559
GlyphClass: 2
Flags: W
LayerCount: 2
Fore
SplineSet
567 1503 m 1,0,-1
 -8 1503 l 1,1,-1
 -8 1620 l 1,2,-1
 567 1620 l 1,3,-1
 567 1503 l 1,0,-1
EndSplineSet
EndChar

StartChar: degree
Encoding: 176 176 112
Width: 819
GlyphClass: 2
Flags: W
LayerCount: 2
Fore
SplineSet
770 1145 m 0,0,1
 770 1086 770 1086 747.5 1034 c 128,-1,2
 725 982 725 982 686 943.5 c 128,-1,3
 647 905 647 905 594.5 882.5 c 128,-1,4
 542 860 542 860 483 860 c 256,5,6
 424 860 424 860 372 882.5 c 128,-1,7
 320 905 320 905 281 943.5 c 128,-1,8
 242 982 242 982 219 1034 c 128,-1,9
 196 1086 196 1086 196 1145 c 0,10,11
 196 1205 196 1205 219 1257 c 128,-1,12
 242 1309 242 1309 281 1347.5 c 128,-1,13
 320 1386 320 1386 372 1408 c 128,-1,14
 424 1430 424 1430 483 1430 c 256,15,16
 542 1430 542 1430 594.5 1408 c 128,-1,17
 647 1386 647 1386 686 1347.5 c 128,-1,18
 725 1309 725 1309 747.5 1257 c 128,-1,19
 770 1205 770 1205 770 1145 c 0,0,1
661 1145 m 0,20,21
 661 1183 661 1183 647.5 1215.5 c 128,-1,22
 634 1248 634 1248 610 1272.5 c 128,-1,23
 586 1297 586 1297 553.5 1311 c 128,-1,24
 521 1325 521 1325 483 1325 c 0,25,26
 446 1325 446 1325 413.5 1311 c 128,-1,27
 381 1297 381 1297 357 1272.5 c 128,-1,28
 333 1248 333 1248 319 1215.5 c 128,-1,29
 305 1183 305 1183 305 1145 c 0,30,31
 305 1108 305 1108 319 1075.5 c 128,-1,32
 333 1043 333 1043 357 1018.5 c 128,-1,33
 381 994 381 994 413.5 979.5 c 128,-1,34
 446 965 446 965 483 965 c 0,35,36
 521 965 521 965 553.5 979.5 c 128,-1,37
 586 994 586 994 610 1018.5 c 128,-1,38
 634 1043 634 1043 647.5 1075.5 c 128,-1,39
 661 1108 661 1108 661 1145 c 0,20,21
EndSplineSet
EndChar

StartChar: plusminus
Encoding: 177 177 113
Width: 1124
GlyphClass: 2
Flags: W
LayerCount: 2
Fore
SplineSet
636 680 m 1,0,-1
 636 285 l 1,1,-1
 489 285 l 1,2,-1
 489 680 l 1,3,-1
 65 680 l 1,4,-1
 65 825 l 1,5,-1
 489 825 l 1,6,-1
 489 1219 l 1,7,-1
 636 1219 l 1,8,-1
 636 825 l 1,9,-1
 1060 825 l 1,10,-1
 1060 680 l 1,11,-1
 636 680 l 1,0,-1
65 0 m 1,12,-1
 65 145 l 1,13,-1
 1060 145 l 1,14,-1
 1060 0 l 1,15,-1
 65 0 l 1,12,-1
EndSplineSet
EndChar

StartChar: uni00B2
Encoding: 178 178 114
Width: 559
GlyphClass: 2
Flags: W
LayerCount: 2
Fore
SplineSet
25 563 m 1,0,-1
 39 666 l 1,1,2
 63 712 63 712 92.5 749.5 c 128,-1,3
 122 787 122 787 154.5 818 c 128,-1,4
 187 849 187 849 221 875 c 2,5,-1
 288 925 l 1,6,7
 288 925 288 925 368 983 c 0,8,9
 405 1011 405 1011 434 1042 c 128,-1,10
 463 1073 463 1073 480 1109.5 c 128,-1,11
 497 1146 497 1146 497 1192 c 0,12,13
 497 1243 497 1243 469 1279 c 128,-1,14
 441 1315 441 1315 388 1315 c 0,15,16
 362 1315 362 1315 337.5 1306 c 128,-1,17
 313 1297 313 1297 293 1279 c 128,-1,18
 273 1261 273 1261 258 1234.5 c 128,-1,19
 243 1208 243 1208 237 1174 c 1,20,-1
 134 1189 l 1,21,22
 145 1241 145 1241 166 1284 c 128,-1,23
 187 1327 187 1327 219 1357.5 c 128,-1,24
 251 1388 251 1388 295 1404.5 c 128,-1,25
 339 1421 339 1421 393 1421 c 0,26,27
 445 1421 445 1421 485 1404 c 128,-1,28
 525 1387 525 1387 552 1358 c 128,-1,29
 579 1329 579 1329 593.5 1290 c 128,-1,30
 608 1251 608 1251 608 1206 c 0,31,32
 608 1140 608 1140 585 1088 c 128,-1,33
 562 1036 562 1036 525.5 993.5 c 128,-1,34
 489 951 489 951 443 916 c 1,35,-1
 350 848 l 2,36,37
 321 828 321 828 293.5 807 c 128,-1,38
 266 786 266 786 241.5 765 c 128,-1,39
 217 744 217 744 198 721.5 c 128,-1,40
 179 699 179 699 166 676 c 1,41,-1
 534 676 l 1,42,-1
 517 563 l 1,43,-1
 25 563 l 1,0,-1
EndSplineSet
EndChar

StartChar: uni00B3
Encoding: 179 179 115
Width: 559
GlyphClass: 2
Flags: W
LayerCount: 2
Fore
SplineSet
272 1049 m 1,0,-1
 319 1049 l 2,1,2
 344 1049 344 1049 373 1055 c 128,-1,3
 402 1061 402 1061 426.5 1078.5 c 128,-1,4
 451 1096 451 1096 467.5 1126 c 128,-1,5
 484 1156 484 1156 484 1204 c 256,6,7
 484 1252 484 1252 457 1283.5 c 128,-1,8
 430 1315 430 1315 383 1315 c 0,9,10
 327 1315 327 1315 287.5 1280 c 128,-1,11
 248 1245 248 1245 232 1180 c 1,12,-1
 130 1205 l 1,13,14
 145 1263 145 1263 169 1304 c 128,-1,15
 193 1345 193 1345 226.5 1371 c 128,-1,16
 260 1397 260 1397 301.5 1409 c 128,-1,17
 343 1421 343 1421 391 1421 c 0,18,19
 438 1421 438 1421 476 1405.5 c 128,-1,20
 514 1390 514 1390 541 1362.5 c 128,-1,21
 568 1335 568 1335 582.5 1298 c 128,-1,22
 597 1261 597 1261 597 1218 c 0,23,24
 597 1039 597 1039 418 995 c 1,25,-1
 418 993 l 1,26,27
 450 986 450 986 474.5 969.5 c 128,-1,28
 499 953 499 953 516.5 930 c 128,-1,29
 534 907 534 907 543 878 c 128,-1,30
 552 849 552 849 552 817 c 0,31,32
 552 753 552 753 531.5 703.5 c 128,-1,33
 511 654 511 654 475 620 c 128,-1,34
 439 586 439 586 391 568.5 c 128,-1,35
 343 551 343 551 287 551 c 0,36,37
 218 551 218 551 173.5 573 c 128,-1,38
 129 595 129 595 101.5 629.5 c 128,-1,39
 74 664 74 664 61 705 c 128,-1,40
 48 746 48 746 43 785 c 1,41,-1
 149 801 l 1,42,43
 152 770 152 770 162 743 c 128,-1,44
 172 716 172 716 189.5 696.5 c 128,-1,45
 207 677 207 677 232.5 666 c 128,-1,46
 258 655 258 655 292 655 c 0,47,48
 322 655 322 655 349 664.5 c 128,-1,49
 376 674 376 674 396 694.5 c 128,-1,50
 416 715 416 715 428 746 c 128,-1,51
 440 777 440 777 440 820 c 0,52,53
 440 855 440 855 427 878 c 128,-1,54
 414 901 414 901 394.5 915 c 128,-1,55
 375 929 375 929 351 934.5 c 128,-1,56
 327 940 327 940 305 940 c 2,57,-1
 255 940 l 1,58,-1
 272 1049 l 1,0,-1
EndSplineSet
EndChar

StartChar: acute
Encoding: 180 180 116
Width: 559
GlyphClass: 2
Flags: W
LayerCount: 2
Fore
SplineSet
143 1201 m 1,0,-1
 146 1221 l 1,1,-1
 353 1508 l 1,2,-1
 531 1508 l 1,3,-1
 527 1479 l 1,4,-1
 220 1201 l 1,5,-1
 143 1201 l 1,0,-1
EndSplineSet
EndChar

StartChar: uni00B5
Encoding: 181 181 117
Width: 1180
GlyphClass: 2
Flags: W
LayerCount: 2
Fore
SplineSet
-1 -425 m 1,0,-1
 292 1082 l 1,1,-1
 473 1082 l 1,2,-1
 339 396 l 2,3,4
 334 367 334 367 331 342 c 128,-1,5
 328 317 328 317 328 295 c 0,6,7
 328 247 328 247 339 213.5 c 128,-1,8
 350 180 350 180 371 159 c 128,-1,9
 392 138 392 138 422 128.5 c 128,-1,10
 452 119 452 119 490 119 c 0,11,12
 547 119 547 119 596.5 144 c 128,-1,13
 646 169 646 169 685.5 215 c 128,-1,14
 725 261 725 261 753 326 c 128,-1,15
 781 391 781 391 795 472 c 1,16,-1
 913 1082 l 1,17,-1
 1093 1082 l 1,18,-1
 936 275 l 2,19,20
 931 252 931 252 929 229.5 c 128,-1,21
 927 207 927 207 927 193 c 0,22,23
 927 156 927 156 942 138.5 c 128,-1,24
 957 121 957 121 984 121 c 0,25,26
 995 121 995 121 1012 124 c 2,27,-1
 1040 129 l 1,28,-1
 1018 0 l 1,29,30
 989 -8 989 -8 961 -14 c 128,-1,31
 933 -20 933 -20 895 -20 c 0,32,33
 821 -20 821 -20 790 28.5 c 128,-1,34
 759 77 759 77 759 169 c 1,35,-1
 757 169 l 1,36,37
 692 74 692 74 616 27 c 128,-1,38
 540 -20 540 -20 448 -20 c 0,39,40
 386 -20 386 -20 341 1 c 128,-1,41
 296 22 296 22 273 59 c 1,42,-1
 179 -425 l 1,43,-1
 -1 -425 l 1,0,-1
EndSplineSet
EndChar

StartChar: paragraph
Encoding: 182 182 118
Width: 901
GlyphClass: 2
Flags: W
LayerCount: 2
Fore
SplineSet
776 1307 m 1,0,-1
 776 -264 l 1,1,-1
 685 -264 l 1,2,-1
 685 1307 l 1,3,-1
 507 1307 l 1,4,-1
 507 -264 l 1,5,-1
 414 -264 l 1,6,-1
 414 694 l 1,7,8
 348 694 348 694 294 716.5 c 128,-1,9
 240 739 240 739 200.5 783 c 128,-1,10
 161 827 161 827 139.5 894 c 128,-1,11
 118 961 118 961 118 1049 c 0,12,13
 118 1133 118 1133 138.5 1199.5 c 128,-1,14
 159 1266 159 1266 198 1312.5 c 128,-1,15
 237 1359 237 1359 293.5 1384 c 128,-1,16
 350 1409 350 1409 421 1409 c 2,17,-1
 882 1409 l 1,18,-1
 882 1307 l 1,19,-1
 776 1307 l 1,0,-1
EndSplineSet
EndChar

StartChar: periodcentered
Encoding: 183 183 119
AltUni2: 002219.ffffffff.0 002219.ffffffff.0 002219.ffffffff.0 002219.ffffffff.0
Width: 559
GlyphClass: 2
Flags: W
LayerCount: 2
Fore
SplineSet
162 446 m 1,0,-1
 204 666 l 1,1,-1
 396 666 l 1,2,-1
 354 446 l 1,3,-1
 162 446 l 1,0,-1
EndSplineSet
EndChar

StartChar: cedilla
Encoding: 184 184 120
Width: 559
GlyphClass: 2
Flags: W
LayerCount: 2
Fore
SplineSet
261 -96 m 1,0,1
 327 -101 327 -101 360 -137 c 128,-1,2
 393 -173 393 -173 393 -232 c 0,3,4
 393 -277 393 -277 379.5 -313 c 128,-1,5
 366 -349 366 -349 336 -373.5 c 128,-1,6
 306 -398 306 -398 258.5 -411.5 c 128,-1,7
 211 -425 211 -425 145 -425 c 0,8,9
 122 -425 122 -425 100 -423 c 128,-1,10
 78 -421 78 -421 58 -418 c 1,11,-1
 75 -327 l 1,12,13
 114 -333 114 -333 148 -333 c 0,14,15
 223 -333 223 -333 253.5 -311 c 128,-1,16
 284 -289 284 -289 284 -244 c 0,17,18
 284 -213 284 -213 261.5 -192.5 c 128,-1,19
 239 -172 239 -172 186 -172 c 2,20,21
 186 -172 186 -172 162 -172 c 0,22,23
 150 -172 150 -172 139 -174 c 1,24,-1
 221 0 l 1,25,-1
 309 0 l 1,26,-1
 261 -96 l 1,0,1
EndSplineSet
EndChar

StartChar: uni00B9
Encoding: 185 185 121
Width: 559
GlyphClass: 2
Flags: W
LayerCount: 2
Fore
SplineSet
50 563 m 1,0,-1
 66 670 l 1,1,-1
 239 670 l 1,2,-1
 336 1279 l 1,3,-1
 148 1141 l 1,4,-1
 170 1272 l 1,5,-1
 364 1409 l 1,6,-1
 465 1409 l 1,7,-1
 347 670 l 1,8,-1
 523 670 l 1,9,-1
 506 563 l 1,10,-1
 50 563 l 1,0,-1
EndSplineSet
EndChar

StartChar: ordmasculine
Encoding: 186 186 122
Width: 612
GlyphClass: 2
Flags: W
LayerCount: 2
Fore
SplineSet
330 651 m 0,0,1
 268 651 268 651 221 672.5 c 128,-1,2
 174 694 174 694 143.5 733.5 c 128,-1,3
 113 773 113 773 98 828 c 128,-1,4
 83 883 83 883 83 950 c 0,5,6
 83 979 83 979 85.5 1012.5 c 128,-1,7
 88 1046 88 1046 93 1078 c 0,8,9
 108 1172 108 1172 137.5 1239 c 128,-1,10
 167 1306 167 1306 209.5 1349 c 128,-1,11
 252 1392 252 1392 306.5 1412 c 128,-1,12
 361 1432 361 1432 425 1432 c 0,13,14
 488 1432 488 1432 534.5 1410.5 c 128,-1,15
 581 1389 581 1389 611.5 1349.5 c 128,-1,16
 642 1310 642 1310 657.5 1255 c 128,-1,17
 673 1200 673 1200 673 1133 c 0,18,19
 673 1104 673 1104 670 1070.5 c 128,-1,20
 667 1037 667 1037 662 1005 c 0,21,22
 647 911 647 911 617.5 844 c 128,-1,23
 588 777 588 777 545.5 734 c 128,-1,24
 503 691 503 691 449 671 c 128,-1,25
 395 651 395 651 330 651 c 0,0,1
420 1325 m 0,26,27
 386 1325 386 1325 355.5 1315.5 c 128,-1,28
 325 1306 325 1306 299 1279 c 128,-1,29
 273 1252 273 1252 252.5 1204 c 128,-1,30
 232 1156 232 1156 218 1079 c 0,31,32
 210 1037 210 1037 206.5 1003 c 128,-1,33
 203 969 203 969 203 938 c 0,34,35
 203 889 203 889 212.5 854.5 c 128,-1,36
 222 820 222 820 239 798.5 c 128,-1,37
 256 777 256 777 280 767.5 c 128,-1,38
 304 758 304 758 334 758 c 0,39,40
 369 758 369 758 399.5 768 c 128,-1,41
 430 778 430 778 456.5 806 c 128,-1,42
 483 834 483 834 503.5 884 c 128,-1,43
 524 934 524 934 539 1013 c 0,44,45
 546 1055 546 1055 550.5 1090 c 128,-1,46
 555 1125 555 1125 555 1154 c 0,47,48
 555 1248 555 1248 519.5 1286.5 c 128,-1,49
 484 1325 484 1325 420 1325 c 0,26,27
EndSplineSet
EndChar

StartChar: guillemotright
Encoding: 187 187 123
Width: 934
GlyphClass: 2
Flags: W
LayerCount: 2
Fore
SplineSet
525 141 m 1,0,-1
 395 141 l 1,1,-1
 401 180 l 1,2,-1
 737 547 l 1,3,-1
 521 919 l 1,4,-1
 524 940 l 1,5,-1
 652 940 l 1,6,-1
 870 569 l 1,7,-1
 860 506 l 1,8,-1
 525 141 l 1,0,-1
135 141 m 1,9,-1
 4 141 l 1,10,-1
 10 180 l 1,11,-1
 346 547 l 1,12,-1
 130 919 l 1,13,-1
 133 940 l 1,14,-1
 262 940 l 1,15,-1
 478 569 l 1,16,-1
 468 506 l 1,17,-1
 135 141 l 1,9,-1
EndSplineSet
EndChar

StartChar: questiondown
Encoding: 191 191 127
Width: 1026
GlyphClass: 2
Flags: W
LayerCount: 2
Fore
SplineSet
408 -347 m 0,0,1
 326 -347 326 -347 260 -320 c 128,-1,2
 194 -293 194 -293 148.5 -245 c 128,-1,3
 103 -197 103 -197 78 -132 c 128,-1,4
 53 -67 53 -67 53 10 c 0,5,6
 53 107 53 107 78 175.5 c 128,-1,7
 103 244 103 244 143 294.5 c 128,-1,8
 183 345 183 345 232 382 c 1,9,-1
 331 454 l 1,10,11
 331 454 331 454 398 504 c 0,12,13
 431 529 431 529 457 558.5 c 128,-1,14
 483 588 483 588 501.5 624 c 128,-1,15
 520 660 520 660 527 706 c 1,16,-1
 671 706 l 1,17,18
 660 628 660 628 633.5 571.5 c 128,-1,19
 607 515 607 515 570.5 472.5 c 128,-1,20
 534 430 534 430 492 398 c 1,21,-1
 407 337 l 2,22,23
 368 310 368 310 331.5 281.5 c 128,-1,24
 295 253 295 253 267 218 c 128,-1,25
 239 183 239 183 223 138 c 128,-1,26
 207 93 207 93 207 31 c 0,27,28
 207 -17 207 -17 222.5 -57.5 c 128,-1,29
 238 -98 238 -98 266 -126.5 c 128,-1,30
 294 -155 294 -155 333.5 -171 c 128,-1,31
 373 -187 373 -187 422 -187 c 0,32,33
 537 -187 537 -187 611.5 -117 c 128,-1,34
 686 -47 686 -47 717 75 c 1,35,-1
 852 35 l 1,36,37
 830 -49 830 -49 794.5 -119 c 128,-1,38
 759 -189 759 -189 705 -239.5 c 128,-1,39
 651 -290 651 -290 578.5 -318.5 c 128,-1,40
 506 -347 506 -347 408 -347 c 0,0,1
737 1083 m 1,41,-1
 705 882 l 1,42,-1
 545 882 l 1,43,-1
 577 1083 l 1,44,-1
 737 1083 l 1,41,-1
EndSplineSet
EndChar

StartChar: AE
Encoding: 198 198 134
Width: 1679
GlyphClass: 2
Flags: W
LayerCount: 2
Fore
SplineSet
708 0 m 1,0,-1
 774 412 l 1,1,-1
 329 412 l 1,2,-1
 100 0 l 1,3,-1
 -66 0 l 1,4,-1
 720 1409 l 1,5,-1
 1695 1409 l 1,6,-1
 1670 1253 l 1,7,-1
 1064 1253 l 1,8,-1
 992 801 l 1,9,-1
 1549 801 l 1,10,-1
 1524 647 l 1,11,-1
 967 647 l 1,12,-1
 890 156 l 1,13,-1
 1529 156 l 1,14,-1
 1504 0 l 1,15,-1
 708 0 l 1,0,-1
909 1262 m 1,16,-1
 785 1262 l 1,17,18
 784 1259 784 1259 775.5 1241.5 c 128,-1,19
 767 1224 767 1224 754 1199 c 2,20,-1
 726 1145 l 1,21,-1
 698 1090 l 1,22,-1
 674 1046 l 2,23,24
 664 1027 664 1027 661 1022 c 2,25,-1
 410 561 l 1,26,-1
 798 561 l 1,27,-1
 909 1262 l 1,16,-1
EndSplineSet
EndChar

StartChar: Eth
Encoding: 208 208 144
Width: 1212
GlyphClass: 2
Flags: W
LayerCount: 2
Fore
SplineSet
626 1409 m 2,0,1
 747 1409 747 1409 848 1369.5 c 128,-1,2
 949 1330 949 1330 1021.5 1252 c 128,-1,3
 1094 1174 1094 1174 1134 1058.5 c 128,-1,4
 1174 943 1174 943 1174 791 c 0,5,6
 1174 658 1174 658 1149 548 c 128,-1,7
 1124 438 1124 438 1079.5 350 c 128,-1,8
 1035 262 1035 262 972.5 196.5 c 128,-1,9
 910 131 910 131 835 87 c 128,-1,10
 760 43 760 43 676 21.5 c 128,-1,11
 592 0 592 0 502 0 c 2,12,-1
 52 0 l 1,13,-1
 154 647 l 1,14,-1
 28 647 l 1,15,-1
 52 801 l 1,16,-1
 179 801 l 1,17,-1
 275 1409 l 1,18,-1
 626 1409 l 2,0,1
335 801 m 1,19,-1
 668 801 l 1,20,-1
 643 647 l 1,21,-1
 311 647 l 1,22,-1
 232 153 l 1,23,-1
 481 153 l 2,24,25
 601 153 601 153 700 197 c 128,-1,26
 799 241 799 241 869 323.5 c 128,-1,27
 939 406 939 406 977 524.5 c 128,-1,28
 1015 643 1015 643 1015 793 c 0,29,30
 1015 913 1015 913 985.5 1000 c 128,-1,31
 956 1087 956 1087 903.5 1144 c 128,-1,32
 851 1201 851 1201 778.5 1228.5 c 128,-1,33
 706 1256 706 1256 623 1256 c 2,34,-1
 408 1256 l 1,35,-1
 335 801 l 1,19,-1
EndSplineSet
EndChar

StartChar: multiply
Encoding: 215 215 151
Width: 981
GlyphClass: 2
Flags: W
LayerCount: 2
Fore
SplineSet
141 330 m 1,0,-1
 431 684 l 1,1,-1
 143 1036 l 1,2,-1
 228 1139 l 1,3,-1
 515 786 l 1,4,-1
 802 1137 l 1,5,-1
 888 1032 l 1,6,-1
 601 684 l 1,7,-1
 890 332 l 1,8,-1
 806 227 l 1,9,-1
 517 580 l 1,10,-1
 225 225 l 1,11,-1
 141 330 l 1,0,-1
EndSplineSet
EndChar

StartChar: Oslash
Encoding: 216 216 152
Width: 1307
GlyphClass: 2
Flags: W
LayerCount: 2
Fore
SplineSet
1168 1205 m 1,0,1
 1210 1133 1210 1133 1231 1043.5 c 128,-1,2
 1252 954 1252 954 1252 851 c 1,3,4
 1251 802 1251 802 1247.5 749.5 c 128,-1,5
 1244 697 1244 697 1236 649 c 0,6,7
 1211 495 1211 495 1152.5 371.5 c 128,-1,8
 1094 248 1094 248 1008.5 161 c 128,-1,9
 923 74 923 74 812.5 27 c 128,-1,10
 702 -20 702 -20 574 -20 c 0,11,12
 467 -20 467 -20 384.5 12 c 128,-1,13
 302 44 302 44 241 104 c 1,14,-1
 109 -53 l 1,15,-1
 -46 -53 l 1,16,-1
 167 201 l 1,17,18
 124 276 124 276 103.5 369.5 c 128,-1,19
 83 463 83 463 83 573 c 0,20,21
 83 619 83 619 86.5 667 c 128,-1,22
 90 715 90 715 98 764 c 0,23,24
 123 914 123 914 180.5 1037 c 128,-1,25
 238 1160 238 1160 323.5 1247.5 c 128,-1,26
 409 1335 409 1335 520 1382.5 c 128,-1,27
 631 1430 631 1430 761 1430 c 0,28,29
 865 1430 865 1430 948 1397 c 128,-1,30
 1031 1364 1031 1364 1093 1303 c 1,31,-1
 1230 1466 l 1,32,-1
 1387 1466 l 1,33,-1
 1168 1205 l 1,0,1
754 1276 m 0,34,35
 647 1276 647 1276 563 1239 c 128,-1,36
 479 1202 479 1202 417 1132 c 128,-1,37
 355 1062 355 1062 315 961 c 128,-1,38
 275 860 275 860 254 732 c 0,39,40
 247 689 247 689 243.5 645.5 c 128,-1,41
 240 602 240 602 240 563 c 0,42,43
 240 427 240 427 277 332 c 1,44,-1
 991 1182 l 1,45,46
 902 1276 902 1276 754 1276 c 0,34,35
1095 847 m 0,47,48
 1095 980 1095 980 1058 1074 c 1,49,-1
 344 226 l 1,50,51
 387 180 387 180 446.5 157.5 c 128,-1,52
 506 135 506 135 581 135 c 0,53,54
 689 135 689 135 773 172.5 c 128,-1,55
 857 210 857 210 918.5 280.5 c 128,-1,56
 980 351 980 351 1021 451.5 c 128,-1,57
 1062 552 1062 552 1082 677 c 0,58,59
 1089 719 1089 719 1092 764 c 128,-1,60
 1095 809 1095 809 1095 847 c 0,47,48
EndSplineSet
EndChar

StartChar: Thorn
Encoding: 222 222 158
Width: 1120
GlyphClass: 2
Flags: W
LayerCount: 2
Fore
SplineSet
181 0 m 1,0,-1
 25 0 l 1,1,-1
 249 1409 l 1,2,-1
 406 1409 l 1,3,-1
 366 1157 l 1,4,-1
 634 1157 l 2,5,6
 733 1157 733 1157 809.5 1130 c 128,-1,7
 886 1103 886 1103 938 1053 c 128,-1,8
 990 1003 990 1003 1017.5 930.5 c 128,-1,9
 1045 858 1045 858 1045 768 c 0,10,11
 1045 658 1045 658 1012.5 570.5 c 128,-1,12
 980 483 980 483 919.5 422.5 c 128,-1,13
 859 362 859 362 772.5 329.5 c 128,-1,14
 686 297 686 297 578 297 c 2,15,-1
 230 297 l 1,16,-1
 181 0 l 1,0,-1
255 448 m 1,17,-1
 572 448 l 2,18,19
 729 448 729 448 807.5 526 c 128,-1,20
 886 604 886 604 886 759 c 0,21,22
 886 824 886 824 867.5 870 c 128,-1,23
 849 916 849 916 815 946 c 128,-1,24
 781 976 781 976 734 990 c 128,-1,25
 687 1004 687 1004 630 1004 c 2,26,-1
 344 1004 l 1,27,-1
 255 448 l 1,17,-1
EndSplineSet
EndChar

StartChar: germandbls
Encoding: 223 223 159
Width: 1026
GlyphClass: 2
Flags: W
LayerCount: 2
Fore
SplineSet
28 0 m 1,0,-1
 192 1027 l 1,1,2
 231 1264 231 1264 338 1374 c 128,-1,3
 445 1484 445 1484 625 1484 c 0,4,5
 703 1484 703 1484 762.5 1461 c 128,-1,6
 822 1438 822 1438 862.5 1398.5 c 128,-1,7
 903 1359 903 1359 924 1307 c 128,-1,8
 945 1255 945 1255 945 1196 c 0,9,10
 945 1131 945 1131 926 1084.5 c 128,-1,11
 907 1038 907 1038 878.5 1002.5 c 128,-1,12
 850 967 850 967 818 940 c 2,13,-1
 756 888 l 1,14,15
 728 863 728 863 709.5 837 c 128,-1,16
 691 811 691 811 691 777 c 0,17,18
 691 741 691 741 708 709 c 128,-1,19
 725 677 725 677 750.5 645 c 128,-1,20
 776 613 776 613 806 579 c 128,-1,21
 836 545 836 545 861.5 505 c 128,-1,22
 887 465 887 465 904 416.5 c 128,-1,23
 921 368 921 368 921 308 c 0,24,25
 921 232 921 232 899.5 170 c 128,-1,26
 878 108 878 108 835.5 63.5 c 128,-1,27
 793 19 793 19 730.5 -5 c 128,-1,28
 668 -29 668 -29 586 -29 c 0,29,30
 552 -29 552 -29 517 -25 c 128,-1,31
 482 -21 482 -21 450 -13.5 c 128,-1,32
 418 -6 418 -6 390 4 c 128,-1,33
 362 14 362 14 342 26 c 1,34,-1
 388 169 l 1,35,36
 425 148 425 148 477 131.5 c 128,-1,37
 529 115 529 115 590 115 c 0,38,39
 638 115 638 115 673.5 129 c 128,-1,40
 709 143 709 143 732 168 c 128,-1,41
 755 193 755 193 766 228 c 128,-1,42
 777 263 777 263 777 305 c 0,43,44
 777 354 777 354 760 392.5 c 128,-1,45
 743 431 743 431 717.5 464.5 c 128,-1,46
 692 498 692 498 663 529 c 128,-1,47
 634 560 634 560 608.5 594 c 128,-1,48
 583 628 583 628 566.5 667 c 128,-1,49
 550 706 550 706 550 756 c 0,50,51
 550 820 550 820 568 862.5 c 128,-1,52
 586 905 586 905 614 936 c 128,-1,53
 642 967 642 967 674.5 990.5 c 128,-1,54
 707 1014 707 1014 735 1040.5 c 128,-1,55
 763 1067 763 1067 781.5 1101 c 128,-1,56
 800 1135 800 1135 800 1186 c 0,57,58
 800 1218 800 1218 788 1246.5 c 128,-1,59
 776 1275 776 1275 753 1296.5 c 128,-1,60
 730 1318 730 1318 696 1330.5 c 128,-1,61
 662 1343 662 1343 618 1343 c 0,62,63
 563 1343 563 1343 517.5 1325.5 c 128,-1,64
 472 1308 472 1308 437 1269.5 c 128,-1,65
 402 1231 402 1231 377 1170 c 128,-1,66
 352 1109 352 1109 338 1021 c 2,67,-1
 176 0 l 1,68,-1
 28 0 l 1,0,-1
EndSplineSet
EndChar

StartChar: ae
Encoding: 230 230 166
Width: 1493
GlyphClass: 2
Flags: W
LayerCount: 2
Fore
SplineSet
811 503 m 1,0,1
 807 475 807 475 805.5 446.5 c 128,-1,2
 804 418 804 418 803 390 c 1,3,4
 803 257 803 257 853.5 186 c 128,-1,5
 904 115 904 115 1004 115 c 0,6,7
 1046 115 1046 115 1080 129.5 c 128,-1,8
 1114 144 1114 144 1142 168.5 c 128,-1,9
 1170 193 1170 193 1191 225.5 c 128,-1,10
 1212 258 1212 258 1227 294 c 1,11,-1
 1340 231 l 1,12,13
 1320 186 1320 186 1292 141.5 c 128,-1,14
 1264 97 1264 97 1222.5 61 c 128,-1,15
 1181 25 1181 25 1123.5 2.5 c 128,-1,16
 1066 -20 1066 -20 985 -20 c 0,17,18
 861 -20 861 -20 783.5 50 c 128,-1,19
 706 120 706 120 677 248 c 1,20,21
 645 192 645 192 606 143 c 128,-1,22
 567 94 567 94 519 58 c 128,-1,23
 471 22 471 22 412.5 1 c 128,-1,24
 354 -20 354 -20 284 -20 c 0,25,26
 218 -20 218 -20 170 5 c 128,-1,27
 122 30 122 30 90 71.5 c 128,-1,28
 58 113 58 113 42 167 c 128,-1,29
 26 221 26 221 26 278 c 0,30,31
 26 359 26 359 46 418 c 128,-1,32
 66 477 66 477 100 519 c 128,-1,33
 134 561 134 561 179.5 587.5 c 128,-1,34
 225 614 225 614 277 629 c 128,-1,35
 329 644 329 644 384 650 c 128,-1,36
 439 656 439 656 493 657 c 2,37,-1
 688 660 l 1,38,-1
 694 696 l 2,39,40
 698 721 698 721 700.5 744 c 128,-1,41
 703 767 703 767 703 787 c 0,42,43
 703 878 703 878 658.5 921.5 c 128,-1,44
 614 965 614 965 533 965 c 0,45,46
 490 965 490 965 454 957.5 c 128,-1,47
 418 950 418 950 389.5 930.5 c 128,-1,48
 361 911 361 911 339 877.5 c 128,-1,49
 317 844 317 844 303 793 c 1,50,-1
 157 822 l 1,51,52
 173 884 173 884 201.5 935.5 c 128,-1,53
 230 987 230 987 275.5 1024 c 128,-1,54
 321 1061 321 1061 387 1081.5 c 128,-1,55
 453 1102 453 1102 545 1102 c 0,56,57
 645 1102 645 1102 709 1059 c 128,-1,58
 773 1016 773 1016 812 944 c 1,59,60
 860 1019 860 1019 931.5 1060.5 c 128,-1,61
 1003 1102 1003 1102 1095 1102 c 0,62,63
 1180 1102 1180 1102 1243 1073 c 128,-1,64
 1306 1044 1306 1044 1348 992 c 128,-1,65
 1390 940 1390 940 1411 867.5 c 128,-1,66
 1432 795 1432 795 1432 708 c 0,67,68
 1432 687 1432 687 1430.5 662 c 128,-1,69
 1429 637 1429 637 1426.5 610 c 128,-1,70
 1424 583 1424 583 1421 555.5 c 128,-1,71
 1418 528 1418 528 1413 503 c 1,72,-1
 811 503 l 1,0,1
667 534 m 1,73,-1
 498 530 l 2,74,75
 464 529 464 529 428 526 c 128,-1,76
 392 523 392 523 356.5 514 c 128,-1,77
 321 505 321 505 289.5 489 c 128,-1,78
 258 473 258 473 234.5 446 c 128,-1,79
 211 419 211 419 197 380 c 128,-1,80
 183 341 183 341 183 286 c 0,81,82
 183 249 183 249 193 217.5 c 128,-1,83
 203 186 203 186 221 164 c 128,-1,84
 239 142 239 142 264.5 129.5 c 128,-1,85
 290 117 290 117 323 117 c 0,86,87
 396 117 396 117 454 148.5 c 128,-1,88
 512 180 512 180 553 228 c 128,-1,89
 594 276 594 276 619.5 334 c 128,-1,90
 645 392 645 392 653 445 c 2,91,-1
 667 534 l 1,73,-1
1281 641 m 1,92,93
 1283 661 1283 661 1284 678.5 c 128,-1,94
 1285 696 1285 696 1285 713 c 0,95,96
 1285 779 1285 779 1271.5 827.5 c 128,-1,97
 1258 876 1258 876 1233 907.5 c 128,-1,98
 1208 939 1208 939 1173.5 954 c 128,-1,99
 1139 969 1139 969 1097 969 c 0,100,101
 1060 969 1060 969 1020.5 954.5 c 128,-1,102
 981 940 981 940 944.5 903 c 128,-1,103
 908 866 908 866 878 802.5 c 128,-1,104
 848 739 848 739 831 641 c 1,105,-1
 1281 641 l 1,92,93
EndSplineSet
EndChar

StartChar: eth
Encoding: 240 240 176
Width: 934
GlyphClass: 2
Flags: W
LayerCount: 2
Fore
SplineSet
513 1328 m 1,0,1
 474 1373 474 1373 435.5 1410.5 c 128,-1,2
 397 1448 397 1448 353 1484 c 1,3,-1
 497 1484 l 1,4,5
 530 1464 530 1464 562.5 1437.5 c 128,-1,6
 595 1411 595 1411 625 1382 c 1,7,-1
 841 1484 l 1,8,-1
 825 1376 l 1,9,-1
 686 1309 l 1,10,11
 725 1252 725 1252 758 1190.5 c 128,-1,12
 791 1129 791 1129 814.5 1058.5 c 128,-1,13
 838 988 838 988 851 906.5 c 128,-1,14
 864 825 864 825 864 728 c 0,15,16
 864 701 864 701 863 669 c 128,-1,17
 862 637 862 637 859 603.5 c 128,-1,18
 856 570 856 570 852.5 537.5 c 128,-1,19
 849 505 849 505 844 478 c 0,20,21
 820 346 820 346 782 252.5 c 128,-1,22
 744 159 744 159 689.5 99.5 c 128,-1,23
 635 40 635 40 564 12.5 c 128,-1,24
 493 -15 493 -15 403 -15 c 0,25,26
 317 -15 317 -15 251.5 16.5 c 128,-1,27
 186 48 186 48 142.5 104 c 128,-1,28
 99 160 99 160 77 236.5 c 128,-1,29
 55 313 55 313 55 403 c 0,30,31
 55 433 55 433 57.5 467 c 128,-1,32
 60 501 60 501 65 533 c 0,33,34
 98 747 98 747 206 863 c 128,-1,35
 314 979 314 979 496 979 c 0,36,37
 524 979 524 979 554.5 972.5 c 128,-1,38
 585 966 585 966 613 953 c 128,-1,39
 641 940 641 940 666 920 c 0,40,41
 690 901 690 901 708 874 c 1,42,43
 701 928 701 928 688.5 980.5 c 128,-1,44
 676 1033 676 1033 658 1081 c 128,-1,45
 640 1129 640 1129 618.5 1172 c 128,-1,46
 597 1215 597 1215 572 1249 c 1,47,-1
 349 1136 l 1,48,-1
 366 1256 l 1,49,-1
 513 1328 l 1,0,1
494 846 m 0,50,51
 437 846 437 846 391.5 827 c 128,-1,52
 346 808 346 808 311.5 767.5 c 128,-1,53
 277 727 277 727 253.5 662.5 c 128,-1,54
 230 598 230 598 216 506 c 0,55,56
 211 474 211 474 208.5 443 c 128,-1,57
 206 412 206 412 206 388 c 0,58,59
 206 258 206 258 257.5 188 c 128,-1,60
 309 118 309 118 405 118 c 0,61,62
 453 118 453 118 495 132.5 c 128,-1,63
 537 147 537 147 572 181.5 c 128,-1,64
 607 216 607 216 634 274.5 c 128,-1,65
 661 333 661 333 679 420 c 0,66,67
 683 437 683 437 687 462.5 c 128,-1,68
 691 488 691 488 695 517.5 c 128,-1,69
 699 547 699 547 701.5 577.5 c 128,-1,70
 704 608 704 608 704 635 c 0,71,72
 704 671 704 671 691 708.5 c 128,-1,73
 678 746 678 746 651.5 776.5 c 128,-1,74
 625 807 625 807 585.5 826.5 c 128,-1,75
 546 846 546 846 494 846 c 0,50,51
EndSplineSet
EndChar

StartChar: divide
Encoding: 247 247 183
Width: 1124
GlyphClass: 2
Flags: W
LayerCount: 2
Fore
SplineSet
495 958 m 1,0,-1
 495 1141 l 1,1,-1
 663 1141 l 1,2,-1
 663 958 l 1,3,-1
 495 958 l 1,0,-1
82 608 m 1,4,-1
 82 754 l 1,5,-1
 1077 754 l 1,6,-1
 1077 608 l 1,7,-1
 82 608 l 1,4,-1
495 223 m 1,8,-1
 495 406 l 1,9,-1
 663 406 l 1,10,-1
 663 223 l 1,11,-1
 495 223 l 1,8,-1
EndSplineSet
EndChar

StartChar: oslash
Encoding: 248 248 184
Width: 1026
GlyphClass: 2
Flags: W
LayerCount: 2
Fore
SplineSet
165 145 m 1,0,1
 135 198 135 198 119 266 c 128,-1,2
 103 334 103 334 103 419 c 1,3,4
 104 466 104 466 107.5 516 c 128,-1,5
 111 566 111 566 121 620 c 0,6,7
 145 746 145 746 186.5 836.5 c 128,-1,8
 228 927 228 927 285.5 986 c 128,-1,9
 343 1045 343 1045 415.5 1073 c 128,-1,10
 488 1101 488 1101 574 1101 c 0,11,12
 707 1101 707 1101 793 1034 c 1,13,-1
 850 1116 l 1,14,-1
 987 1116 l 1,15,-1
 868 947 l 1,16,17
 929 844 929 844 928 683 c 0,18,19
 928 631 928 631 923.5 578.5 c 128,-1,20
 919 526 919 526 907 467 c 0,21,22
 882 335 882 335 838.5 243 c 128,-1,23
 795 151 795 151 736 93.5 c 128,-1,24
 677 36 677 36 604.5 10.5 c 128,-1,25
 532 -15 532 -15 450 -15 c 0,26,27
 324 -15 324 -15 239 56 c 1,28,-1
 173 -38 l 1,29,-1
 36 -38 l 1,30,-1
 165 145 l 1,0,1
254 416 m 0,31,32
 254 343 254 343 267 289 c 1,33,-1
 709 916 l 1,34,35
 683 943 683 943 648.5 956 c 128,-1,36
 614 969 614 969 572 969 c 0,37,38
 529 969 529 969 485 956.5 c 128,-1,39
 441 944 441 944 401.5 906 c 128,-1,40
 362 868 362 868 329 798 c 128,-1,41
 296 728 296 728 274 612 c 0,42,43
 263 557 263 557 258.5 507.5 c 128,-1,44
 254 458 254 458 254 416 c 0,31,32
776 683 m 1,45,46
 776 749 776 749 764 800 c 1,47,-1
 322 173 l 1,48,49
 349 144 349 144 383.5 131 c 128,-1,50
 418 118 418 118 459 118 c 0,51,52
 503 118 503 118 546.5 129.5 c 128,-1,53
 590 141 590 141 628.5 178 c 128,-1,54
 667 215 667 215 699.5 285.5 c 128,-1,55
 732 356 732 356 754 473 c 0,56,57
 765 533 765 533 769.5 583 c 128,-1,58
 774 633 774 633 776 683 c 1,45,46
EndSplineSet
EndChar

StartChar: thorn
Encoding: 254 254 190
Width: 934
GlyphClass: 2
Flags: W
LayerCount: 2
Fore
SplineSet
454 -20 m 0,0,1
 353 -20 353 -20 289.5 32 c 128,-1,2
 226 84 226 84 200 178 c 1,3,-1
 196 178 l 1,4,5
 196 178 196 178 193 150 c 0,6,7
 191 132 191 132 188 108 c 128,-1,8
 185 84 185 84 181 55.5 c 128,-1,9
 177 27 177 27 172 -2 c 2,10,-1
 105 -425 l 1,11,-1
 -42 -425 l 1,12,-1
 262 1484 l 1,13,-1
 410 1484 l 1,14,-1
 342 1061 l 2,15,16
 338 1032 338 1032 332 1006 c 2,17,-1
 323 961 l 1,18,-1
 314 921 l 1,19,-1
 317 921 l 1,20,21
 347 968 347 968 377.5 1002 c 128,-1,22
 408 1036 408 1036 443 1058.5 c 128,-1,23
 478 1081 478 1081 518 1091.5 c 128,-1,24
 558 1102 558 1102 608 1102 c 0,25,26
 674 1102 674 1102 724.5 1077 c 128,-1,27
 775 1052 775 1052 809.5 1006 c 128,-1,28
 844 960 844 960 862 894.5 c 128,-1,29
 880 829 880 829 880 748 c 0,30,31
 880 698 880 698 876 638.5 c 128,-1,32
 872 579 872 579 863 516 c 0,33,34
 841 374 841 374 804.5 272.5 c 128,-1,35
 768 171 768 171 717.5 106 c 128,-1,36
 667 41 667 41 601 10.5 c 128,-1,37
 535 -20 535 -20 454 -20 c 0,0,1
565 963 m 0,38,39
 513 963 513 963 465.5 944 c 128,-1,40
 418 925 418 925 378 878.5 c 128,-1,41
 338 832 338 832 307 753 c 128,-1,42
 276 674 276 674 257 554 c 0,43,44
 241 456 241 456 242 377 c 0,45,46
 242 313 242 313 256 263.5 c 128,-1,47
 270 214 270 214 295.5 180.5 c 128,-1,48
 321 147 321 147 357.5 130 c 128,-1,49
 394 113 394 113 439 113 c 0,50,51
 490 113 490 113 531 131.5 c 128,-1,52
 572 150 572 150 605 195.5 c 128,-1,53
 638 241 638 241 663.5 317.5 c 128,-1,54
 689 394 689 394 707 510 c 0,55,56
 726 631 726 631 726 716 c 0,57,58
 726 839 726 839 687.5 901 c 128,-1,59
 649 963 649 963 565 963 c 0,38,39
EndSplineSet
EndChar

StartChar: dcroat
Encoding: 273 273 209
Width: 928
GlyphClass: 2
Flags: W
LayerCount: 2
Fore
SplineSet
369 118 m 0,0,1
 421 118 421 118 468 137 c 128,-1,2
 515 156 515 156 555 202.5 c 128,-1,3
 595 249 595 249 625.5 328 c 128,-1,4
 656 407 656 407 675 527 c 0,5,6
 690 625 690 625 690 704 c 0,7,8
 690 769 690 769 676 818 c 128,-1,9
 662 867 662 867 636.5 900.5 c 128,-1,10
 611 934 611 934 575 951 c 128,-1,11
 539 968 539 968 495 968 c 0,12,13
 445 968 445 968 404 949.5 c 128,-1,14
 363 931 363 931 330 885.5 c 128,-1,15
 297 840 297 840 272 763.5 c 128,-1,16
 247 687 247 687 228 571 c 0,17,18
 209 450 209 450 209 365 c 0,19,20
 209 242 209 242 247.5 180 c 128,-1,21
 286 118 286 118 369 118 c 0,0,1
327 -21 m 0,22,23
 262 -21 262 -21 211.5 4 c 128,-1,24
 161 29 161 29 126.5 75 c 128,-1,25
 92 121 92 121 74 186.5 c 128,-1,26
 56 252 56 252 56 333 c 0,27,28
 56 378 56 378 60 440 c 128,-1,29
 64 502 64 502 73 565 c 0,30,31
 95 707 95 707 131 808.5 c 128,-1,32
 167 910 167 910 217.5 975 c 128,-1,33
 268 1040 268 1040 333 1070.5 c 128,-1,34
 398 1101 398 1101 479 1101 c 0,35,36
 579 1101 579 1101 642.5 1049 c 128,-1,37
 706 997 706 997 732 903 c 1,38,-1
 736 903 l 1,39,40
 738 913 738 913 741 936 c 2,41,-1
 748 984 l 2,42,43
 751 1010 751 1010 755 1033 c 128,-1,44
 759 1056 759 1056 760 1065 c 2,45,-1
 782 1206 l 1,46,-1
 538 1206 l 1,47,-1
 558 1337 l 1,48,-1
 803 1337 l 1,49,-1
 826 1484 l 1,50,-1
 973 1484 l 1,51,-1
 949 1337 l 1,52,-1
 1057 1337 l 1,53,-1
 1036 1206 l 1,54,-1
 929 1206 l 1,55,-1
 772 223 l 2,56,57
 765 184 765 184 760 148 c 2,58,-1
 751 82 l 2,59,60
 747 52 747 52 744 30 c 2,61,-1
 741 0 l 1,62,-1
 601 0 l 1,63,64
 601 20 601 20 605.5 64 c 128,-1,65
 610 108 610 108 618 160 c 1,66,-1
 615 160 l 1,67,68
 586 113 586 113 555.5 79 c 128,-1,69
 525 45 525 45 490 22.5 c 128,-1,70
 455 0 455 0 415.5 -10.5 c 128,-1,71
 376 -21 376 -21 327 -21 c 0,22,23
EndSplineSet
EndChar

StartChar: Hbar
Encoding: 294 294 230
Width: 1212
GlyphClass: 2
Flags: W
LayerCount: 2
Fore
SplineSet
836 0 m 1,0,-1
 939 653 l 1,1,-1
 311 653 l 1,2,-1
 207 0 l 1,3,-1
 51 0 l 1,4,-1
 214 1025 l 1,5,-1
 88 1025 l 1,6,-1
 112 1179 l 1,7,-1
 238 1179 l 1,8,-1
 275 1409 l 1,9,-1
 431 1409 l 1,10,-1
 395 1179 l 1,11,-1
 1024 1179 l 1,12,-1
 1060 1409 l 1,13,-1
 1212 1409 l 1,14,-1
 1176 1179 l 1,15,-1
 1301 1179 l 1,16,-1
 1277 1025 l 1,17,-1
 1151 1025 l 1,18,-1
 988 0 l 1,19,-1
 836 0 l 1,0,-1
965 813 m 1,20,-1
 999 1025 l 1,21,-1
 370 1025 l 1,22,-1
 337 813 l 1,23,-1
 965 813 l 1,20,-1
EndSplineSet
EndChar

StartChar: hbar
Encoding: 295 295 231
Width: 934
GlyphClass: 2
Flags: W
LayerCount: 2
Fore
SplineSet
308 857 m 1,0,1
 336 904 336 904 365 942 c 128,-1,2
 394 980 394 980 430 1006.5 c 128,-1,3
 466 1033 466 1033 509 1047 c 128,-1,4
 552 1061 552 1061 607 1061 c 0,5,6
 728 1061 728 1061 789 988 c 128,-1,7
 850 915 850 915 850 777 c 0,8,9
 850 741 850 741 845 696 c 128,-1,10
 840 651 840 651 833 613 c 2,11,-1
 736 0 l 1,12,-1
 587 0 l 1,13,-1
 684 605 l 2,14,15
 691 644 691 644 695 684.5 c 128,-1,16
 699 725 699 725 699 755 c 0,17,18
 699 834 699 834 664.5 878 c 128,-1,19
 630 922 630 922 552 922 c 0,20,21
 500 922 500 922 453.5 896.5 c 128,-1,22
 407 871 407 871 369 824.5 c 128,-1,23
 331 778 331 778 304.5 712.5 c 128,-1,24
 278 647 278 647 265 566 c 2,25,-1
 175 0 l 1,26,-1
 28 0 l 1,27,-1
 220 1206 l 1,28,-1
 112 1206 l 1,29,-1
 133 1337 l 1,30,-1
 240 1337 l 1,31,-1
 264 1484 l 1,32,-1
 412 1484 l 1,33,-1
 388 1337 l 1,34,-1
 635 1337 l 1,35,-1
 614 1206 l 1,36,-1
 367 1206 l 1,37,-1
 344 1058 l 2,38,39
 339 1025 339 1025 332 992 c 2,40,-1
 320 932 l 1,41,-1
 311 884 l 2,42,43
 307 864 307 864 305 857 c 1,44,-1
 308 857 l 1,0,1
EndSplineSet
EndChar

StartChar: dotlessi
Encoding: 305 305 241
Width: 467
GlyphClass: 2
Flags: W
LayerCount: 2
Fore
SplineSet
73 0 m 1,0,-1
 245 1082 l 1,1,-1
 393 1082 l 1,2,-1
 220 0 l 1,3,-1
 73 0 l 1,0,-1
EndSplineSet
EndChar

StartChar: jcircumflex
Encoding: 309 309 245
Width: 373
GlyphClass: 2
Flags: W
LayerCount: 2
Fore
SplineSet
548 1221 m 1,0,-1
 545 1201 l 1,1,-1
 470 1201 l 1,2,-1
 317 1370 l 1,3,-1
 316 1370 l 1,4,-1
 98 1201 l 1,5,-1
 3 1201 l 1,6,-1
 7 1221 l 1,7,-1
 241 1491 l 1,8,-1
 408 1491 l 1,9,-1
 548 1221 l 1,0,-1
-82 -425 m 0,10,11
 -110 -425 -110 -425 -138 -420.5 c 128,-1,12
 -166 -416 -166 -416 -188 -411 c 1,13,-1
 -169 -275 l 1,14,15
 -158 -277 -158 -277 -137.5 -280 c 128,-1,16
 -117 -283 -117 -283 -101 -283 c 0,17,18
 -53 -283 -53 -283 -28 -241 c 128,-1,19
 -3 -199 -3 -199 11 -107 c 2,20,-1
 200 1082 l 1,21,-1
 348 1082 l 1,22,-1
 153 -134 l 2,23,24
 143 -196 143 -196 127 -249 c 128,-1,25
 111 -302 111 -302 84 -341 c 128,-1,26
 57 -380 57 -380 16.5 -402.5 c 128,-1,27
 -24 -425 -24 -425 -82 -425 c 0,10,11
EndSplineSet
EndChar

StartChar: kgreenlandic
Encoding: 312 312 248
Width: 840
GlyphClass: 2
Flags: W
LayerCount: 2
Fore
SplineSet
591 0 m 1,0,-1
 372 502 l 1,1,-1
 234 378 l 1,2,-1
 175 0 l 1,3,-1
 28 0 l 1,4,-1
 200 1082 l 1,5,-1
 348 1082 l 1,6,-1
 265 567 l 1,7,-1
 432 757 l 1,8,-1
 728 1082 l 1,9,-1
 911 1082 l 1,10,-1
 476 617 l 1,11,-1
 751 0 l 1,12,-1
 591 0 l 1,0,-1
EndSplineSet
EndChar

StartChar: Lslash
Encoding: 321 321 257
Width: 934
GlyphClass: 2
Flags: W
LayerCount: 2
Fore
SplineSet
560 797 m 1,0,-1
 309 648 l 1,1,-1
 231 156 l 1,2,-1
 815 156 l 1,3,-1
 790 0 l 1,4,-1
 49 0 l 1,5,-1
 135 538 l 1,6,-1
 2 453 l 1,7,-1
 25 611 l 1,8,-1
 161 696 l 1,9,-1
 274 1409 l 1,10,-1
 431 1409 l 1,11,-1
 335 806 l 1,12,-1
 585 954 l 1,13,-1
 560 797 l 1,0,-1
EndSplineSet
EndChar

StartChar: lslash
Encoding: 322 322 258
Width: 373
GlyphClass: 2
Flags: W
LayerCount: 2
Fore
SplineSet
26 0 m 1,0,-1
 112 542 l 1,1,-1
 2 474 l 1,2,-1
 27 632 l 1,3,-1
 137 700 l 1,4,-1
 262 1484 l 1,5,-1
 410 1484 l 1,6,-1
 302 804 l 1,7,-1
 415 876 l 1,8,-1
 389 717 l 1,9,-1
 276 646 l 1,10,-1
 173 0 l 1,11,-1
 26 0 l 1,0,-1
EndSplineSet
EndChar

StartChar: Eng
Encoding: 330 330 266
Width: 1214
GlyphClass: 2
Flags: W
LayerCount: 2
Fore
SplineSet
698 -20 m 0,0,1
 607 -20 607 -20 543 23.5 c 128,-1,2
 479 67 479 67 443 135 c 1,3,-1
 558 243 l 1,4,5
 586 195 586 195 625 164 c 128,-1,6
 664 133 664 133 708 133 c 0,7,8
 757 133 757 133 791.5 157.5 c 128,-1,9
 826 182 826 182 850.5 232.5 c 128,-1,10
 875 283 875 283 893 361 c 128,-1,11
 911 439 911 439 928 546 c 2,12,-1
 988 924 l 2,13,14
 993 954 993 954 996 988.5 c 128,-1,15
 999 1023 999 1023 999 1048 c 0,16,17
 999 1157 999 1157 945.5 1215.5 c 128,-1,18
 892 1274 892 1274 775 1274 c 0,19,20
 699 1274 699 1274 628 1243 c 128,-1,21
 557 1212 557 1212 499 1159.5 c 128,-1,22
 441 1107 441 1107 401.5 1037.5 c 128,-1,23
 362 968 362 968 350 891 c 2,24,-1
 208 0 l 1,25,-1
 52 0 l 1,26,-1
 225 1092 l 1,27,28
 225 1092 225 1092 238 1175 c 2,29,-1
 252 1266 l 1,30,-1
 264 1349 l 2,31,32
 270 1387 270 1387 272 1409 c 1,33,-1
 423 1409 l 1,34,35
 421 1387 421 1387 416 1356 c 1,36,-1
 408 1290 l 2,37,38
 403 1255 403 1255 398 1220 c 2,39,-1
 389 1158 l 1,40,-1
 393 1158 l 1,41,42
 430 1220 430 1220 475 1270 c 128,-1,43
 520 1320 520 1320 572.5 1355 c 128,-1,44
 625 1390 625 1390 686.5 1409.5 c 128,-1,45
 748 1429 748 1429 817 1429 c 0,46,47
 1154 1429 1154 1429 1154 1072 c 0,48,49
 1154 1017 1154 1017 1149.5 976.5 c 128,-1,50
 1145 936 1145 936 1140 904 c 2,51,-1
 1083 542 l 2,52,53
 1062 409 1062 409 1038 304.5 c 128,-1,54
 1014 200 1014 200 973.5 128 c 128,-1,55
 933 56 933 56 867.5 18 c 128,-1,56
 802 -20 802 -20 698 -20 c 0,0,1
EndSplineSet
EndChar

StartChar: eng
Encoding: 331 331 267
Width: 934
GlyphClass: 2
Flags: W
LayerCount: 2
Fore
SplineSet
714 -134 m 2,0,1
 704 -196 704 -196 688 -249 c 128,-1,2
 672 -302 672 -302 645 -341 c 128,-1,3
 618 -380 618 -380 577.5 -402.5 c 128,-1,4
 537 -425 537 -425 479 -425 c 0,5,6
 451 -425 451 -425 422.5 -420.5 c 128,-1,7
 394 -416 394 -416 373 -411 c 1,8,-1
 392 -275 l 1,9,10
 403 -277 403 -277 423.5 -280 c 128,-1,11
 444 -283 444 -283 460 -283 c 0,12,13
 508 -283 508 -283 533 -241 c 128,-1,14
 558 -199 558 -199 572 -107 c 2,15,-1
 691 645 l 2,16,17
 698 684 698 684 702 724.5 c 128,-1,18
 706 765 706 765 706 795 c 0,19,20
 706 874 706 874 671.5 918 c 128,-1,21
 637 962 637 962 559 962 c 0,22,23
 507 962 507 962 460.5 936.5 c 128,-1,24
 414 911 414 911 376.5 864.5 c 128,-1,25
 339 818 339 818 312 752.5 c 128,-1,26
 285 687 285 687 272 606 c 2,27,-1
 175 0 l 1,28,-1
 28 0 l 1,29,-1
 164 851 l 2,30,31
 170 885 170 885 175 922 c 2,32,-1
 184 994 l 1,33,-1
 192 1051 l 2,34,35
 195 1075 195 1075 196 1082 c 1,36,-1
 335 1082 l 1,37,38
 335 1077 335 1077 332 1055 c 2,39,-1
 326 1004 l 1,40,-1
 320 946 l 2,41,42
 316 917 316 917 312 897 c 1,43,-1
 315 897 l 1,44,45
 343 944 343 944 372.5 982 c 128,-1,46
 402 1020 402 1020 437.5 1046.5 c 128,-1,47
 473 1073 473 1073 516 1087 c 128,-1,48
 559 1101 559 1101 614 1101 c 0,49,50
 735 1101 735 1101 796.5 1028 c 128,-1,51
 858 955 858 955 858 817 c 0,52,53
 858 781 858 781 852.5 736 c 128,-1,54
 847 691 847 691 841 653 c 2,55,-1
 714 -134 l 2,0,1
EndSplineSet
EndChar

StartChar: OE
Encoding: 338 338 274
Width: 1679
GlyphClass: 2
Flags: W
LayerCount: 2
Fore
SplineSet
732 0 m 1,0,1
 701 -5 701 -5 658 -7.5 c 128,-1,2
 615 -10 615 -10 576 -10 c 0,3,4
 457 -10 457 -10 364.5 32 c 128,-1,5
 272 74 272 74 210 150.5 c 128,-1,6
 148 227 148 227 115.5 334.5 c 128,-1,7
 83 442 83 442 83 573 c 0,8,9
 83 667 83 667 98 764 c 0,10,11
 122 914 122 914 180.5 1035.5 c 128,-1,12
 239 1157 239 1157 325 1242.5 c 128,-1,13
 411 1328 411 1328 521 1374 c 128,-1,14
 631 1420 631 1420 758 1420 c 0,15,16
 778 1420 778 1420 807 1419 c 128,-1,17
 836 1418 836 1418 867 1416.5 c 128,-1,18
 898 1415 898 1415 927.5 1413 c 128,-1,19
 957 1411 957 1411 979 1409 c 1,20,-1
 1695 1409 l 1,21,-1
 1670 1253 l 1,22,-1
 1088 1253 l 1,23,-1
 1016 801 l 1,24,-1
 1549 801 l 1,25,-1
 1524 647 l 1,26,-1
 991 647 l 1,27,-1
 913 156 l 1,28,-1
 1529 156 l 1,29,-1
 1504 0 l 1,30,-1
 732 0 l 1,0,1
584 145 m 0,31,32
 610 145 610 145 635.5 146 c 128,-1,33
 661 147 661 147 684 148.5 c 128,-1,34
 707 150 707 150 725.5 152 c 128,-1,35
 744 154 744 154 757 156 c 1,36,-1
 931 1255 l 1,37,38
 912 1258 912 1258 888 1260 c 128,-1,39
 864 1262 864 1262 839.5 1263.5 c 128,-1,40
 815 1265 815 1265 791.5 1265.5 c 128,-1,41
 768 1266 768 1266 750 1266 c 0,42,43
 647 1266 647 1266 563.5 1230.5 c 128,-1,44
 480 1195 480 1195 418 1127 c 128,-1,45
 356 1059 356 1059 314.5 959.5 c 128,-1,46
 273 860 273 860 253 732 c 0,47,48
 246 689 246 689 242.5 645.5 c 128,-1,49
 239 602 239 602 239 563 c 0,50,51
 239 456 239 456 264 377 c 128,-1,52
 289 298 289 298 334.5 246.5 c 128,-1,53
 380 195 380 195 443.5 170 c 128,-1,54
 507 145 507 145 584 145 c 0,31,32
EndSplineSet
EndChar

StartChar: oe
Encoding: 339 339 275
Width: 1585
GlyphClass: 2
Flags: W
LayerCount: 2
Fore
SplineSet
865 503 m 1,0,1
 861 480 861 480 858.5 448.5 c 128,-1,2
 856 417 856 417 856 390 c 0,3,4
 856 257 856 257 910.5 186 c 128,-1,5
 965 115 965 115 1075 115 c 0,6,7
 1121 115 1121 115 1158.5 129.5 c 128,-1,8
 1196 144 1196 144 1226 168.5 c 128,-1,9
 1256 193 1256 193 1279 225.5 c 128,-1,10
 1302 258 1302 258 1318 294 c 1,11,-1
 1431 231 l 1,12,13
 1411 186 1411 186 1381.5 141.5 c 128,-1,14
 1352 97 1352 97 1308.5 61 c 128,-1,15
 1265 25 1265 25 1204 2.5 c 128,-1,16
 1143 -20 1143 -20 1058 -20 c 0,17,18
 948 -20 948 -20 871 29.5 c 128,-1,19
 794 79 794 79 752 173 c 1,20,21
 687 72 687 72 598 28.5 c 128,-1,22
 509 -15 509 -15 403 -15 c 0,23,24
 324 -15 324 -15 260 13.5 c 128,-1,25
 196 42 196 42 151 97.5 c 128,-1,26
 106 153 106 153 81.5 234 c 128,-1,27
 57 315 57 315 57 419 c 1,28,29
 58 466 58 466 61.5 516 c 128,-1,30
 65 566 65 566 75 620 c 0,31,32
 99 746 99 746 140 836.5 c 128,-1,33
 181 927 181 927 238.5 986 c 128,-1,34
 296 1045 296 1045 368 1073 c 128,-1,35
 440 1101 440 1101 526 1101 c 0,36,37
 642 1101 642 1101 720.5 1051.5 c 128,-1,38
 799 1002 799 1002 840 909 c 1,39,40
 902 1002 902 1002 986.5 1052 c 128,-1,41
 1071 1102 1071 1102 1170 1102 c 0,42,43
 1260 1102 1260 1102 1326 1073 c 128,-1,44
 1392 1044 1392 1044 1436 992 c 128,-1,45
 1480 940 1480 940 1501.5 867.5 c 128,-1,46
 1523 795 1523 795 1523 708 c 0,47,48
 1523 687 1523 687 1521.5 662 c 128,-1,49
 1520 637 1520 637 1517.5 610 c 128,-1,50
 1515 583 1515 583 1511.5 555.5 c 128,-1,51
 1508 528 1508 528 1503 503 c 1,52,-1
 865 503 l 1,0,1
728 683 m 1,53,54
 728 760 728 760 714 814 c 128,-1,55
 700 868 700 868 673.5 902.5 c 128,-1,56
 647 937 647 937 609.5 953 c 128,-1,57
 572 969 572 969 525 969 c 0,58,59
 482 969 482 969 438 956.5 c 128,-1,60
 394 944 394 944 355 906 c 128,-1,61
 316 868 316 868 283 798 c 128,-1,62
 250 728 250 728 228 612 c 0,63,64
 217 557 217 557 212.5 507.5 c 128,-1,65
 208 458 208 458 208 416 c 0,66,67
 208 334 208 334 223.5 277 c 128,-1,68
 239 220 239 220 266 184.5 c 128,-1,69
 293 149 293 149 330 133.5 c 128,-1,70
 367 118 367 118 412 118 c 0,71,72
 456 118 456 118 499 129.5 c 128,-1,73
 542 141 542 141 580.5 178 c 128,-1,74
 619 215 619 215 651.5 285.5 c 128,-1,75
 684 356 684 356 706 473 c 0,76,77
 717 533 717 533 721.5 583 c 128,-1,78
 726 633 726 633 728 683 c 1,53,54
1373 641 m 1,79,80
 1375 661 1375 661 1375.5 678.5 c 128,-1,81
 1376 696 1376 696 1376 713 c 0,82,83
 1376 779 1376 779 1361.5 827.5 c 128,-1,84
 1347 876 1347 876 1321 907.5 c 128,-1,85
 1295 939 1295 939 1257 954 c 128,-1,86
 1219 969 1219 969 1173 969 c 0,87,88
 1134 969 1134 969 1090.5 954.5 c 128,-1,89
 1047 940 1047 940 1007.5 903 c 128,-1,90
 968 866 968 866 935 802.5 c 128,-1,91
 902 739 902 739 883 641 c 1,92,-1
 1373 641 l 1,79,80
EndSplineSet
EndChar

StartChar: Tbar
Encoding: 358 358 294
Width: 1026
GlyphClass: 2
Flags: W
LayerCount: 2
Fore
SplineSet
704 1253 m 1,0,-1
 632 801 l 1,1,-1
 862 801 l 1,2,-1
 837 647 l 1,3,-1
 607 647 l 1,4,-1
 504 0 l 1,5,-1
 349 0 l 1,6,-1
 451 647 l 1,7,-1
 222 647 l 1,8,-1
 247 801 l 1,9,-1
 476 801 l 1,10,-1
 548 1253 l 1,11,-1
 151 1253 l 1,12,-1
 176 1409 l 1,13,-1
 1125 1409 l 1,14,-1
 1101 1253 l 1,15,-1
 704 1253 l 1,0,-1
EndSplineSet
EndChar

StartChar: tbar
Encoding: 359 359 295
Width: 467
GlyphClass: 2
Flags: W
LayerCount: 2
Fore
SplineSet
237 306 m 2,0,1
 234 286 234 286 230.5 257 c 128,-1,2
 227 228 227 228 227 211 c 0,3,4
 227 169 227 169 244.5 146 c 128,-1,5
 262 123 262 123 301 123 c 0,6,7
 322 123 322 123 340.5 126.5 c 128,-1,8
 359 130 359 130 383 137 c 1,9,-1
 368 4 l 1,10,11
 338 -5 338 -5 301.5 -12.5 c 128,-1,12
 265 -20 265 -20 226 -20 c 0,13,14
 156 -20 156 -20 116 31 c 128,-1,15
 76 82 76 82 76 166 c 0,16,17
 76 198 76 198 80.5 234.5 c 128,-1,18
 85 271 85 271 89 296 c 2,19,-1
 123 516 l 1,20,-1
 21 516 l 1,21,-1
 41 647 l 1,22,-1
 144 647 l 1,23,-1
 192 951 l 1,24,-1
 89 951 l 1,25,-1
 111 1082 l 1,26,-1
 215 1082 l 1,27,-1
 301 1324 l 1,28,-1
 400 1324 l 1,29,-1
 361 1082 l 1,30,-1
 525 1082 l 1,31,-1
 504 951 l 1,32,-1
 340 951 l 1,33,-1
 291 647 l 1,34,-1
 456 647 l 1,35,-1
 435 516 l 1,36,-1
 270 516 l 1,37,-1
 237 306 l 2,0,1
EndSplineSet
EndChar

StartChar: longs
Encoding: 383 383 319
Width: 373
GlyphClass: 2
Flags: W
LayerCount: 2
Fore
SplineSet
27 0 m 1,0,-1
 219 1204 l 2,1,2
 228 1263 228 1263 243 1314 c 128,-1,3
 258 1365 258 1365 285.5 1403 c 128,-1,4
 313 1441 313 1441 357.5 1462.5 c 128,-1,5
 402 1484 402 1484 469 1484 c 0,6,7
 494 1484 494 1484 520 1481 c 128,-1,8
 546 1478 546 1478 566 1472 c 1,9,-1
 546 1335 l 1,10,11
 533 1338 533 1338 512 1340.5 c 128,-1,12
 491 1343 491 1343 477 1343 c 0,13,14
 447 1343 447 1343 428.5 1332 c 128,-1,15
 410 1321 410 1321 397 1300 c 128,-1,16
 384 1279 384 1279 377 1248.5 c 128,-1,17
 370 1218 370 1218 363 1179 c 2,18,-1
 175 0 l 1,19,-1
 27 0 l 1,0,-1
EndSplineSet
EndChar

StartChar: florin
Encoding: 402 402 320
Width: 934
GlyphClass: 2
Flags: W
LayerCount: 2
Fore
SplineSet
843 1312 m 1,0,1
 829 1317 829 1317 803.5 1322 c 128,-1,2
 778 1327 778 1327 753 1327 c 256,3,4
 728 1327 728 1327 709 1317.5 c 128,-1,5
 690 1308 690 1308 676.5 1288 c 128,-1,6
 663 1268 663 1268 653 1236 c 128,-1,7
 643 1204 643 1204 636 1159 c 2,8,-1
 614 1022 l 1,9,-1
 787 1022 l 1,10,-1
 767 891 l 1,11,-1
 592 891 l 1,12,-1
 380 -456 l 1,13,-1
 233 -456 l 1,14,-1
 444 891 l 1,15,-1
 320 891 l 1,16,-1
 342 1022 l 1,17,-1
 466 1022 l 1,18,-1
 490 1174 l 2,19,20
 500 1233 500 1233 516 1284 c 128,-1,21
 532 1335 532 1335 561 1373 c 128,-1,22
 590 1411 590 1411 635 1432.5 c 128,-1,23
 680 1454 680 1454 746 1454 c 0,24,25
 772 1454 772 1454 806 1449 c 128,-1,26
 840 1444 840 1444 868 1434 c 1,27,-1
 843 1312 l 1,0,1
EndSplineSet
EndChar

StartChar: circumflex
Encoding: 710 710 327
Width: 559
GlyphClass: 2
Flags: W
LayerCount: 2
Fore
SplineSet
608 1221 m 1,0,-1
 605 1201 l 1,1,-1
 529 1201 l 1,2,-1
 377 1370 l 1,3,-1
 375 1370 l 1,4,-1
 158 1201 l 1,5,-1
 63 1201 l 1,6,-1
 66 1221 l 1,7,-1
 301 1491 l 1,8,-1
 468 1491 l 1,9,-1
 608 1221 l 1,0,-1
EndSplineSet
EndChar

StartChar: caron
Encoding: 711 711 328
Width: 559
GlyphClass: 2
Flags: W
LayerCount: 2
Fore
SplineSet
427 1201 m 1,0,-1
 260 1201 l 1,1,-1
 111 1471 l 1,2,-1
 115 1491 l 1,3,-1
 194 1491 l 1,4,-1
 357 1322 l 1,5,-1
 359 1322 l 1,6,-1
 566 1491 l 1,7,-1
 657 1491 l 1,8,-1
 654 1471 l 1,9,-1
 427 1201 l 1,0,-1
EndSplineSet
EndChar

StartChar: uni02C9
Encoding: 713 713 329
Width: 1024
GlyphClass: 2
Flags: W
LayerCount: 2
Fore
SplineSet
1039 1236 m 1,0,-1
 213 1236 l 1,1,-1
 252 1363 l 1,2,-1
 1078 1363 l 1,3,-1
 1039 1236 l 1,0,-1
EndSplineSet
EndChar

StartChar: breve
Encoding: 728 728 330
Width: 559
GlyphClass: 2
Flags: W
LayerCount: 2
Fore
SplineSet
349 1201 m 256,0,1
 288 1201 288 1201 243 1226.5 c 128,-1,2
 198 1252 198 1252 168 1295 c 128,-1,3
 138 1338 138 1338 122.5 1393.5 c 128,-1,4
 107 1449 107 1449 107 1510 c 1,5,-1
 202 1510 l 1,6,7
 204 1425 204 1425 246.5 1386 c 128,-1,8
 289 1347 289 1347 357 1347 c 0,9,10
 504 1347 504 1347 556 1510 c 1,11,-1
 652 1510 l 1,12,13
 635 1449 635 1449 608 1393.5 c 128,-1,14
 581 1338 581 1338 544 1295 c 128,-1,15
 507 1252 507 1252 458.5 1226.5 c 128,-1,16
 410 1201 410 1201 349 1201 c 256,0,1
EndSplineSet
EndChar

StartChar: dotaccent
Encoding: 729 729 331
Width: 559
GlyphClass: 2
Flags: W
LayerCount: 2
Fore
SplineSet
280 1312 m 1,0,-1
 308 1484 l 1,1,-1
 456 1484 l 1,2,-1
 428 1312 l 1,3,-1
 280 1312 l 1,0,-1
EndSplineSet
EndChar

StartChar: ring
Encoding: 730 730 332
Width: 559
GlyphClass: 2
Flags: W
LayerCount: 2
Fore
SplineSet
561 1410 m 256,0,1
 561 1360 561 1360 545.5 1316 c 128,-1,2
 530 1272 530 1272 503 1239 c 128,-1,3
 476 1206 476 1206 440 1187 c 128,-1,4
 404 1168 404 1168 363 1168 c 256,5,6
 322 1168 322 1168 286 1187 c 128,-1,7
 250 1206 250 1206 223 1239 c 128,-1,8
 196 1272 196 1272 180.5 1316 c 128,-1,9
 165 1360 165 1360 165 1410 c 256,10,11
 165 1460 165 1460 180.5 1504 c 128,-1,12
 196 1548 196 1548 223 1580.5 c 128,-1,13
 250 1613 250 1613 286 1632 c 128,-1,14
 322 1651 322 1651 363 1651 c 256,15,16
 404 1651 404 1651 440 1632 c 128,-1,17
 476 1613 476 1613 503 1580.5 c 128,-1,18
 530 1548 530 1548 545.5 1504 c 128,-1,19
 561 1460 561 1460 561 1410 c 256,0,1
473 1410 m 0,20,21
 473 1439 473 1439 465 1463.5 c 128,-1,22
 457 1488 457 1488 442 1506 c 128,-1,23
 427 1524 427 1524 407 1534 c 128,-1,24
 387 1544 387 1544 363 1544 c 0,25,26
 340 1544 340 1544 319.5 1534 c 128,-1,27
 299 1524 299 1524 284.5 1506 c 128,-1,28
 270 1488 270 1488 261 1463.5 c 128,-1,29
 252 1439 252 1439 252 1410 c 0,30,31
 252 1382 252 1382 261 1357 c 128,-1,32
 270 1332 270 1332 284.5 1313 c 128,-1,33
 299 1294 299 1294 319.5 1283.5 c 128,-1,34
 340 1273 340 1273 363 1273 c 0,35,36
 387 1273 387 1273 407 1283.5 c 128,-1,37
 427 1294 427 1294 442 1313 c 128,-1,38
 457 1332 457 1332 465 1357 c 128,-1,39
 473 1382 473 1382 473 1410 c 0,20,21
EndSplineSet
EndChar

StartChar: ogonek
Encoding: 731 731 333
Width: 559
GlyphClass: 2
Flags: W
LayerCount: 2
Fore
SplineSet
204 -427 m 0,0,1
 132 -427 132 -427 95 -380 c 128,-1,2
 58 -333 58 -333 58 -259 c 0,3,4
 58 -207 58 -207 75 -164 c 128,-1,5
 92 -121 92 -121 117 -89 c 128,-1,6
 142 -57 142 -57 171.5 -34.5 c 128,-1,7
 201 -12 201 -12 226 0 c 1,8,-1
 335 0 l 1,9,10
 313 -14 313 -14 285 -36.5 c 128,-1,11
 257 -59 257 -59 233.5 -89 c 128,-1,12
 210 -119 210 -119 193.5 -156 c 128,-1,13
 177 -193 177 -193 177 -236 c 0,14,15
 177 -270 177 -270 193.5 -293.5 c 128,-1,16
 210 -317 210 -317 241 -317 c 0,17,18
 267 -317 267 -317 288.5 -311.5 c 128,-1,19
 310 -306 310 -306 334 -295 c 1,20,-1
 322 -400 l 1,21,22
 297 -412 297 -412 268.5 -419.5 c 128,-1,23
 240 -427 240 -427 204 -427 c 0,0,1
EndSplineSet
EndChar

StartChar: tilde
Encoding: 732 732 334
Width: 559
GlyphClass: 2
Flags: W
LayerCount: 2
Fore
SplineSet
465 1201 m 0,0,1
 431 1201 431 1201 399.5 1219.5 c 128,-1,2
 368 1238 368 1238 339.5 1260.5 c 128,-1,3
 311 1283 311 1283 285 1301.5 c 128,-1,4
 259 1320 259 1320 234 1320 c 0,5,6
 189 1320 189 1320 161.5 1289 c 128,-1,7
 134 1258 134 1258 117 1201 c 1,8,-1
 43 1201 l 1,9,10
 54 1246 54 1246 70 1293.5 c 128,-1,11
 86 1341 86 1341 109.5 1380 c 128,-1,12
 133 1419 133 1419 167 1444 c 128,-1,13
 201 1469 201 1469 249 1469 c 0,14,15
 285 1469 285 1469 316.5 1450.5 c 128,-1,16
 348 1432 348 1432 376 1409.5 c 128,-1,17
 404 1387 404 1387 429.5 1368.5 c 128,-1,18
 455 1350 455 1350 479 1350 c 0,19,20
 523 1350 523 1350 551 1381.5 c 128,-1,21
 579 1413 579 1413 595 1469 c 1,22,-1
 670 1469 l 1,23,24
 659 1425 659 1425 644 1377.5 c 128,-1,25
 629 1330 629 1330 605.5 1291 c 128,-1,26
 582 1252 582 1252 548 1226.5 c 128,-1,27
 514 1201 514 1201 465 1201 c 0,0,1
EndSplineSet
EndChar

StartChar: hungarumlaut
Encoding: 733 733 335
Width: 559
GlyphClass: 2
Flags: W
LayerCount: 2
Fore
SplineSet
19 1201 m 1,0,-1
 21 1221 l 1,1,-1
 228 1508 l 1,2,-1
 398 1508 l 1,3,-1
 393 1479 l 1,4,-1
 95 1201 l 1,5,-1
 19 1201 l 1,0,-1
302 1201 m 1,6,-1
 305 1221 l 1,7,-1
 512 1508 l 1,8,-1
 682 1508 l 1,9,-1
 678 1479 l 1,10,-1
 380 1201 l 1,11,-1
 302 1201 l 1,6,-1
EndSplineSet
EndChar

StartChar: tonos
Encoding: 900 900 336
Width: 559
GlyphClass: 2
Flags: W
LayerCount: 2
Fore
SplineSet
191 1218 m 1,0,-1
 196 1251 l 1,1,-1
 299 1543 l 1,2,-1
 469 1543 l 1,3,-1
 463 1506 l 1,4,-1
 252 1218 l 1,5,-1
 191 1218 l 1,0,-1
EndSplineSet
EndChar

StartChar: dieresistonos
Encoding: 901 901 337
Width: 559
GlyphClass: 2
Flags: W
LayerCount: 2
Fore
SplineSet
172 1200 m 1,0,-1
 178 1233 l 1,1,-1
 293 1601 l 1,2,-1
 446 1601 l 1,3,-1
 440 1564 l 1,4,-1
 234 1200 l 1,5,-1
 172 1200 l 1,0,-1
-3 1231 m 1,6,-1
 24 1403 l 1,7,-1
 147 1403 l 1,8,-1
 119 1231 l 1,9,-1
 -3 1231 l 1,6,-1
383 1231 m 1,10,-1
 411 1403 l 1,11,-1
 534 1403 l 1,12,-1
 506 1231 l 1,13,-1
 383 1231 l 1,10,-1
EndSplineSet
EndChar

StartChar: anoteleia
Encoding: 903 903 339
Width: 559
GlyphClass: 2
Flags: W
LayerCount: 2
Fore
SplineSet
162 446 m 1,0,-1
 204 666 l 1,1,-1
 396 666 l 1,2,-1
 354 446 l 1,3,-1
 162 446 l 1,0,-1
EndSplineSet
EndChar

StartChar: Gamma
Encoding: 915 915 349
Width: 958
GlyphClass: 2
Flags: W
LayerCount: 2
Fore
SplineSet
1018 1410 m 1,0,-1
 993 1254 l 1,1,-1
 408 1254 l 1,2,-1
 208 1 l 1,3,-1
 52 1 l 1,4,-1
 276 1410 l 1,5,-1
 1018 1410 l 1,0,-1
EndSplineSet
EndChar

StartChar: Delta
Encoding: 916 916 350
Width: 1126
GlyphClass: 2
Flags: W
LayerCount: 2
Fore
SplineSet
-9 141 m 1,0,-1
 615 1409 l 1,1,-1
 793 1409 l 1,2,-1
 1010 141 l 1,3,-1
 987 0 l 1,4,-1
 -33 0 l 1,5,-1
 -9 141 l 1,0,-1
854 156 m 1,6,-1
 714 1018 l 2,7,8
 707 1059 707 1059 702 1099 c 2,9,-1
 693 1172 l 2,10,11
 689 1206 689 1206 687 1230.5 c 128,-1,12
 685 1255 685 1255 685 1265 c 1,13,14
 683 1258 683 1258 673 1233 c 2,15,-1
 648 1173 l 1,16,-1
 615 1097 l 1,17,-1
 578 1016 l 1,18,-1
 163 156 l 1,19,-1
 854 156 l 1,6,-1
EndSplineSet
EndChar

StartChar: Theta
Encoding: 920 920 354
Width: 1307
GlyphClass: 2
Flags: W
LayerCount: 2
Fore
SplineSet
444 794 m 1,0,-1
 925 794 l 1,1,-1
 900 634 l 1,2,-1
 418 634 l 1,3,-1
 444 794 l 1,0,-1
761 1430 m 0,4,5
 879 1430 879 1430 970.5 1387.5 c 128,-1,6
 1062 1345 1062 1345 1124.5 1268 c 128,-1,7
 1187 1191 1187 1191 1219.5 1085 c 128,-1,8
 1252 979 1252 979 1252 851 c 1,9,10
 1251 802 1251 802 1247.5 749.5 c 128,-1,11
 1244 697 1244 697 1236 649 c 0,12,13
 1211 495 1211 495 1152.5 371.5 c 128,-1,14
 1094 248 1094 248 1008.5 161 c 128,-1,15
 923 74 923 74 812.5 27 c 128,-1,16
 702 -20 702 -20 574 -20 c 0,17,18
 451 -20 451 -20 359 23.5 c 128,-1,19
 267 67 267 67 205.5 145.5 c 128,-1,20
 144 224 144 224 113.5 333 c 128,-1,21
 83 442 83 442 83 573 c 0,22,23
 83 619 83 619 86.5 667 c 128,-1,24
 90 715 90 715 98 764 c 0,25,26
 123 914 123 914 180.5 1037 c 128,-1,27
 238 1160 238 1160 323.5 1247.5 c 128,-1,28
 409 1335 409 1335 520 1382.5 c 128,-1,29
 631 1430 631 1430 761 1430 c 0,4,5
754 1276 m 0,30,31
 647 1276 647 1276 563 1239 c 128,-1,32
 479 1202 479 1202 417 1132 c 128,-1,33
 355 1062 355 1062 315 961 c 128,-1,34
 275 860 275 860 254 732 c 0,35,36
 247 689 247 689 243.5 645.5 c 128,-1,37
 240 602 240 602 240 563 c 0,38,39
 240 456 240 456 263 375.5 c 128,-1,40
 286 295 286 295 329.5 241.5 c 128,-1,41
 373 188 373 188 436.5 161.5 c 128,-1,42
 500 135 500 135 581 135 c 0,43,44
 689 135 689 135 773 172.5 c 128,-1,45
 857 210 857 210 918.5 280.5 c 128,-1,46
 980 351 980 351 1021 451.5 c 128,-1,47
 1062 552 1062 552 1082 677 c 0,48,49
 1089 719 1089 719 1092 764 c 128,-1,50
 1095 809 1095 809 1095 847 c 0,51,52
 1095 954 1095 954 1071.5 1034.5 c 128,-1,53
 1048 1115 1048 1115 1003.5 1168.5 c 128,-1,54
 959 1222 959 1222 896 1249 c 128,-1,55
 833 1276 833 1276 754 1276 c 0,30,31
EndSplineSet
EndChar

StartChar: Lambda
Encoding: 923 923 357
Width: 1120
GlyphClass: 2
Flags: W
LayerCount: 2
Fore
SplineSet
1027 1 m 1,0,-1
 867 1 l 1,1,-1
 708 993 l 2,2,3
 701 1040 701 1040 696 1084 c 2,4,-1
 686 1164 l 1,5,6
 682 1205 682 1205 679 1242 c 1,7,8
 679 1242 679 1242 645 1161 c 1,9,10
 645 1161 645 1161 610 1081 c 0,11,12
 591 1037 591 1037 570 993 c 2,13,-1
 92 1 l 1,14,-1
 -77 1 l 1,15,-1
 618 1410 l 1,16,-1
 781 1410 l 1,17,-1
 1027 1 l 1,0,-1
EndSplineSet
EndChar

StartChar: Xi
Encoding: 926 926 360
Width: 1090
GlyphClass: 2
Flags: W
LayerCount: 2
Fore
SplineSet
241 1409 m 1,0,-1
 1129 1409 l 1,1,-1
 1104 1253 l 1,2,-1
 217 1253 l 1,3,-1
 241 1409 l 1,0,-1
958 156 m 1,4,-1
 932 0 l 1,5,-1
 -11 0 l 1,6,-1
 14 156 l 1,7,-1
 958 156 l 1,4,-1
933 801 m 5,8,-1
 909 647 l 5,9,-1
 218 647 l 5,10,-1
 243 801 l 5,11,-1
 933 801 l 5,8,-1
EndSplineSet
EndChar

StartChar: Pi
Encoding: 928 928 362
Width: 1212
GlyphClass: 2
Flags: W
LayerCount: 2
Fore
SplineSet
834 0 m 1,0,-1
 1032 1248 l 1,1,-1
 406 1248 l 1,2,-1
 207 0 l 1,3,-1
 51 0 l 1,4,-1
 275 1409 l 1,5,-1
 1214 1409 l 1,6,-1
 990 0 l 1,7,-1
 834 0 l 1,0,-1
EndSplineSet
EndChar

StartChar: Sigma
Encoding: 931 931 364
Width: 1008
GlyphClass: 2
Flags: W
LayerCount: 2
Fore
SplineSet
-5 0 m 1,0,-1
 22 171 l 1,1,-1
 557 752 l 1,2,-1
 209 1257 l 1,3,-1
 233 1409 l 1,4,-1
 1053 1409 l 1,5,-1
 1029 1253 l 1,6,-1
 380 1253 l 1,7,-1
 695 796 l 1,8,-1
 676 681 l 1,9,-1
 192 156 l 1,10,-1
 904 156 l 1,11,-1
 878 0 l 1,12,-1
 -5 0 l 1,0,-1
EndSplineSet
EndChar

StartChar: Phi
Encoding: 934 934 367
Width: 1409
GlyphClass: 2
Flags: W
LayerCount: 2
Fore
SplineSet
526 216 m 2,0,1
 430 216 430 216 352.5 248.5 c 128,-1,2
 275 281 275 281 219.5 342 c 128,-1,3
 164 403 164 403 134 490 c 128,-1,4
 104 577 104 577 104 686 c 0,5,6
 104 815 104 815 139 917 c 128,-1,7
 174 1019 174 1019 239 1090 c 128,-1,8
 304 1161 304 1161 395 1199 c 128,-1,9
 486 1237 486 1237 597 1237 c 2,10,-1
 729 1237 l 1,11,-1
 758 1419 l 1,12,-1
 908 1419 l 1,13,-1
 881 1237 l 1,14,-1
 922 1237 l 2,15,16
 1018 1237 1018 1237 1095.5 1204.5 c 128,-1,17
 1173 1172 1173 1172 1228.5 1111.5 c 128,-1,18
 1284 1051 1284 1051 1314 964 c 128,-1,19
 1344 877 1344 877 1344 768 c 0,20,21
 1344 639 1344 639 1308.5 537 c 128,-1,22
 1273 435 1273 435 1208 363.5 c 128,-1,23
 1143 292 1143 292 1052 254 c 128,-1,24
 961 216 961 216 850 216 c 2,25,-1
 718 216 l 1,26,-1
 681 -11 l 1,27,-1
 530 -11 l 1,28,-1
 566 216 l 1,29,-1
 526 216 l 2,0,1
741 358 m 1,30,-1
 843 358 l 2,31,32
 924 358 924 358 987.5 383.5 c 128,-1,33
 1051 409 1051 409 1095 459.5 c 128,-1,34
 1139 510 1139 510 1162 585 c 128,-1,35
 1185 660 1185 660 1185 759 c 0,36,37
 1185 847 1185 847 1163.5 910.5 c 128,-1,38
 1142 974 1142 974 1105 1014.5 c 128,-1,39
 1068 1055 1068 1055 1019 1074.5 c 128,-1,40
 970 1094 970 1094 915 1094 c 2,41,-1
 858 1094 l 1,42,-1
 741 358 l 1,30,-1
706 1094 m 1,43,-1
 604 1094 l 2,44,45
 523 1094 523 1094 459.5 1068.5 c 128,-1,46
 396 1043 396 1043 352.5 993 c 128,-1,47
 309 943 309 943 286 868.5 c 128,-1,48
 263 794 263 794 263 695 c 0,49,50
 263 606 263 606 284.5 542.5 c 128,-1,51
 306 479 306 479 343 438 c 128,-1,52
 380 397 380 397 428.5 377.5 c 128,-1,53
 477 358 477 358 531 358 c 2,54,-1
 589 358 l 1,55,-1
 706 1094 l 1,43,-1
EndSplineSet
EndChar

StartChar: Psi
Encoding: 936 936 369
Width: 1395
GlyphClass: 2
Flags: W
LayerCount: 2
Fore
SplineSet
536 0 m 1,0,-1
 604 427 l 1,1,-1
 562 427 l 2,2,3
 374 427 374 427 272.5 529 c 128,-1,4
 171 631 171 631 171 826 c 0,5,6
 171 840 171 840 171.5 857.5 c 128,-1,7
 172 875 172 875 173.5 891.5 c 128,-1,8
 175 908 175 908 176.5 922.5 c 128,-1,9
 178 937 178 937 180 946 c 2,10,-1
 253 1409 l 1,11,-1
 410 1409 l 1,12,-1
 336 942 l 2,13,14
 334 930 334 930 332 914 c 2,15,-1
 328 880 l 2,16,17
 326 862 326 862 324.5 845 c 128,-1,18
 323 828 323 828 323 814 c 0,19,20
 323 747 323 747 342 700.5 c 128,-1,21
 361 654 361 654 394.5 624.5 c 128,-1,22
 428 595 428 595 475.5 581.5 c 128,-1,23
 523 568 523 568 581 568 c 2,24,-1
 627 568 l 1,25,-1
 760 1409 l 1,26,-1
 912 1409 l 1,27,-1
 778 568 l 1,28,-1
 843 566 l 2,29,30
 933 563 933 563 993 588.5 c 128,-1,31
 1053 614 1053 614 1091.5 662.5 c 128,-1,32
 1130 711 1130 711 1152 782 c 128,-1,33
 1174 853 1174 853 1188 942 c 2,34,-1
 1262 1409 l 1,35,-1
 1419 1409 l 1,36,-1
 1338 902 l 2,37,38
 1321 794 1321 794 1286 706.5 c 128,-1,39
 1251 619 1251 619 1191.5 557 c 128,-1,40
 1132 495 1132 495 1046 461 c 128,-1,41
 960 427 960 427 841 427 c 2,42,-1
 755 427 l 1,43,-1
 687 0 l 1,44,-1
 536 0 l 1,0,-1
EndSplineSet
EndChar

StartChar: Omega
Encoding: 937 937 370
Width: 1278
GlyphClass: 2
Flags: W
LayerCount: 2
Fore
SplineSet
729 1430 m 0,0,1
 841 1430 841 1430 932 1392 c 128,-1,2
 1023 1354 1023 1354 1087 1282.5 c 128,-1,3
 1151 1211 1151 1211 1186 1108 c 128,-1,4
 1221 1005 1221 1005 1221 876 c 0,5,6
 1221 750 1221 750 1193.5 638 c 128,-1,7
 1166 526 1166 526 1109 432.5 c 128,-1,8
 1052 339 1052 339 963.5 266 c 128,-1,9
 875 193 875 193 752 145 c 1,10,11
 789 148 789 148 822 151 c 0,12,13
 851 153 851 153 880.5 154.5 c 128,-1,14
 910 156 910 156 929 156 c 2,15,-1
 1137 156 l 1,16,-1
 1112 0 l 1,17,-1
 629 0 l 1,18,-1
 664 224 l 1,19,20
 771 266 771 266 847.5 330.5 c 128,-1,21
 924 395 924 395 972.5 477 c 128,-1,22
 1021 559 1021 559 1043.5 654.5 c 128,-1,23
 1066 750 1066 750 1066 855 c 0,24,25
 1066 958 1066 958 1041.5 1036.5 c 128,-1,26
 1017 1115 1017 1115 972.5 1168.5 c 128,-1,27
 928 1222 928 1222 864.5 1249 c 128,-1,28
 801 1276 801 1276 723 1276 c 0,29,30
 639 1276 639 1276 560.5 1241 c 128,-1,31
 482 1206 482 1206 421 1134.5 c 128,-1,32
 360 1063 360 1063 324 955 c 128,-1,33
 288 847 288 847 288 701 c 0,34,35
 288 613 288 613 302.5 541.5 c 128,-1,36
 317 470 317 470 345.5 412 c 128,-1,37
 374 354 374 354 416 308 c 128,-1,38
 458 262 458 262 511 224 c 1,39,-1
 474 0 l 1,40,-1
 25 0 l 1,41,-1
 50 156 l 1,42,-1
 217 156 l 2,43,44
 236 156 236 156 268.5 154.5 c 128,-1,45
 301 153 301 153 332 151 c 0,46,47
 369 148 369 148 410 145 c 1,48,49
 353 184 353 184 302 240 c 128,-1,50
 251 296 251 296 213.5 368 c 128,-1,51
 176 440 176 440 153.5 528 c 128,-1,52
 131 616 131 616 131 721 c 0,53,54
 131 886 131 886 178 1017.5 c 128,-1,55
 225 1149 225 1149 305.5 1240.5 c 128,-1,56
 386 1332 386 1332 495 1381 c 128,-1,57
 604 1430 604 1430 729 1430 c 0,0,1
EndSplineSet
EndChar

StartChar: alpha
Encoding: 945 945 378
Width: 954
GlyphClass: 2
Flags: W
LayerCount: 2
Fore
SplineSet
486 1101 m 0,0,1
 543 1101 543 1101 587.5 1083 c 128,-1,2
 632 1065 632 1065 665 1033 c 128,-1,3
 698 1001 698 1001 718 956.5 c 128,-1,4
 738 912 738 912 747 858 c 1,5,-1
 748 858 l 1,6,7
 754 879 754 879 764 905 c 2,8,-1
 784 960 l 1,9,10
 796 990 796 990 810 1021 c 128,-1,11
 824 1052 824 1052 840 1082 c 1,12,-1
 993 1082 l 1,13,14
 976 1051 976 1051 956.5 1006.5 c 128,-1,15
 937 962 937 962 917 911 c 2,16,-1
 878 806 l 1,17,-1
 840 698 l 2,18,19
 822 646 822 646 808 598.5 c 128,-1,20
 794 551 794 551 785 514 c 1,21,22
 785 413 785 413 786.5 338 c 128,-1,23
 788 263 788 263 791 203.5 c 128,-1,24
 794 144 794 144 798 95.5 c 128,-1,25
 802 47 802 47 808 0 c 1,26,-1
 663 0 l 1,27,28
 659 25 659 25 656 57 c 128,-1,29
 653 89 653 89 651.5 122 c 128,-1,30
 650 155 650 155 649.5 185.5 c 128,-1,31
 649 216 649 216 649 237 c 2,32,-1
 649 253 l 1,33,-1
 645 253 l 1,34,35
 618 197 618 197 588 147.5 c 128,-1,36
 558 98 558 98 520.5 60.5 c 128,-1,37
 483 23 483 23 436.5 1 c 128,-1,38
 390 -21 390 -21 332 -21 c 0,39,40
 266 -21 266 -21 214.5 6 c 128,-1,41
 163 33 163 33 128 84 c 128,-1,42
 93 135 93 135 75 208.5 c 128,-1,43
 57 282 57 282 57 375 c 0,44,45
 57 421 57 421 61.5 478 c 128,-1,46
 66 535 66 535 75 589 c 0,47,48
 97 731 97 731 136 829 c 128,-1,49
 175 927 175 927 227.5 987.5 c 128,-1,50
 280 1048 280 1048 346 1074.5 c 128,-1,51
 412 1101 412 1101 486 1101 c 0,0,1
491 969 m 0,52,53
 444 969 444 969 403.5 949 c 128,-1,54
 363 929 363 929 330 881.5 c 128,-1,55
 297 834 297 834 271.5 756.5 c 128,-1,56
 246 679 246 679 229 564 c 0,57,58
 212 450 212 450 212 366 c 0,59,60
 212 119 212 119 364 119 c 0,61,62
 406 119 406 119 449.5 147 c 128,-1,63
 493 175 493 175 533 230 c 128,-1,64
 573 285 573 285 609 367 c 128,-1,65
 645 449 645 449 673 557 c 1,66,67
 674 577 674 577 674.5 595.5 c 128,-1,68
 675 614 675 614 675 632 c 0,69,70
 675 705 675 705 664.5 767 c 128,-1,71
 654 829 654 829 631.5 874 c 128,-1,72
 609 919 609 919 574.5 944 c 128,-1,73
 540 969 540 969 491 969 c 0,52,53
EndSplineSet
EndChar

StartChar: beta
Encoding: 946 946 379
Width: 958
GlyphClass: 2
Flags: W
LayerCount: 2
Fore
SplineSet
188 1011 m 2,0,1
 225 1241 225 1241 330.5 1362.5 c 128,-1,2
 436 1484 436 1484 616 1484 c 0,3,4
 685 1484 685 1484 740.5 1461 c 128,-1,5
 796 1438 796 1438 835 1395 c 128,-1,6
 874 1352 874 1352 895.5 1292.5 c 128,-1,7
 917 1233 917 1233 917 1159 c 0,8,9
 917 1076 917 1076 896 1011 c 128,-1,10
 875 946 875 946 841 899 c 128,-1,11
 807 852 807 852 763 823 c 128,-1,12
 719 794 719 794 672 782 c 1,13,14
 716 769 716 769 754 741 c 128,-1,15
 792 713 792 713 820 672 c 128,-1,16
 848 631 848 631 864 578 c 128,-1,17
 880 525 880 525 880 461 c 0,18,19
 880 354 880 354 851 265.5 c 128,-1,20
 822 177 822 177 767 113.5 c 128,-1,21
 712 50 712 50 632 15 c 128,-1,22
 552 -20 552 -20 450 -20 c 0,23,24
 366 -20 366 -20 298 8 c 128,-1,25
 230 36 230 36 185 74 c 1,26,-1
 180 74 l 1,27,28
 180 74 180 74 168 -29 c 0,29,30
 162 -75 162 -75 153 -128 c 2,31,-1
 106 -425 l 1,32,-1
 -41 -425 l 1,33,-1
 188 1011 l 2,0,1
601 1343 m 0,34,35
 499 1343 499 1343 430.5 1261 c 128,-1,36
 362 1179 362 1179 335 1009 c 2,37,-1
 206 205 l 1,38,39
 226 189 226 189 253.5 173 c 128,-1,40
 281 157 281 157 313.5 143.5 c 128,-1,41
 346 130 346 130 381.5 121.5 c 128,-1,42
 417 113 417 113 452 113 c 0,43,44
 515 113 515 113 567.5 133.5 c 128,-1,45
 620 154 620 154 657.5 195.5 c 128,-1,46
 695 237 695 237 716.5 300 c 128,-1,47
 738 363 738 363 738 447 c 0,48,49
 738 502 738 502 722.5 549 c 128,-1,50
 707 596 707 596 677.5 630 c 128,-1,51
 648 664 648 664 604 683.5 c 128,-1,52
 560 703 560 703 504 703 c 1,53,-1
 526 845 l 1,54,55
 585 855 585 855 631 877.5 c 128,-1,56
 677 900 677 900 708.5 937 c 128,-1,57
 740 974 740 974 756.5 1027 c 128,-1,58
 773 1080 773 1080 773 1150 c 0,59,60
 773 1193 773 1193 762.5 1228.5 c 128,-1,61
 752 1264 752 1264 730.5 1289.5 c 128,-1,62
 709 1315 709 1315 676.5 1329 c 128,-1,63
 644 1343 644 1343 601 1343 c 0,34,35
EndSplineSet
EndChar

StartChar: gamma
Encoding: 947 947 380
Width: 840
GlyphClass: 2
Flags: W
LayerCount: 2
Fore
SplineSet
246 1082 m 1,0,-1
 340 407 l 2,1,2
 343 384 343 384 346 351 c 2,3,-1
 352 284 l 2,4,5
 355 250 355 250 356.5 219 c 128,-1,6
 358 188 358 188 358 170 c 1,7,8
 365 191 365 191 377 220 c 2,9,-1
 402 282 l 1,10,-1
 430 347 l 1,11,-1
 456 405 l 1,12,-1
 760 1082 l 1,13,-1
 920 1082 l 1,14,-1
 436 53 l 2,15,16
 415 8 415 8 393 -47.5 c 128,-1,17
 371 -103 371 -103 350 -165 c 128,-1,18
 329 -227 329 -227 309.5 -293 c 128,-1,19
 290 -359 290 -359 273 -424 c 1,20,-1
 116 -424 l 1,21,22
 150 -293 150 -293 188 -186 c 2,23,-1
 259 11 l 1,24,-1
 91 1082 l 1,25,-1
 246 1082 l 1,0,-1
EndSplineSet
EndChar

StartChar: delta
Encoding: 948 948 381
Width: 936
GlyphClass: 2
Flags: W
LayerCount: 2
Fore
SplineSet
420 113 m 0,0,1
 493 113 493 113 548 146 c 128,-1,2
 603 179 603 179 640 236.5 c 128,-1,3
 677 294 677 294 695.5 372 c 128,-1,4
 714 450 714 450 714 540 c 0,5,6
 714 605 714 605 705 660 c 128,-1,7
 696 715 696 715 680.5 762.5 c 128,-1,8
 665 810 665 810 643.5 851 c 128,-1,9
 622 892 622 892 598 929 c 1,10,11
 559 914 559 914 515.5 892.5 c 128,-1,12
 472 871 472 871 429.5 841 c 128,-1,13
 387 811 387 811 347.5 770.5 c 128,-1,14
 308 730 308 730 278 675 c 128,-1,15
 248 620 248 620 230 549.5 c 128,-1,16
 212 479 212 479 212 389 c 0,17,18
 212 321 212 321 227.5 269 c 128,-1,19
 243 217 243 217 271 182.5 c 128,-1,20
 299 148 299 148 337 130.5 c 128,-1,21
 375 113 375 113 420 113 c 0,0,1
624 1352 m 2,22,23
 613 1352 613 1352 596.5 1353 c 128,-1,24
 580 1354 580 1354 561.5 1355.5 c 128,-1,25
 543 1357 543 1357 526 1358 c 128,-1,26
 509 1359 509 1359 499 1360 c 1,27,-1
 707 1036 l 2,28,29
 743 980 743 980 773.5 924 c 128,-1,30
 804 868 804 868 825 808 c 128,-1,31
 846 748 846 748 858.5 683.5 c 128,-1,32
 871 619 871 619 871 547 c 0,33,34
 871 419 871 419 837.5 314.5 c 128,-1,35
 804 210 804 210 743 135.5 c 128,-1,36
 682 61 682 61 597.5 20.5 c 128,-1,37
 513 -20 513 -20 412 -20 c 0,38,39
 327 -20 327 -20 261 10 c 128,-1,40
 195 40 195 40 149.5 95 c 128,-1,41
 104 150 104 150 79.5 226.5 c 128,-1,42
 55 303 55 303 55 396 c 0,43,44
 55 536 55 536 95 640 c 128,-1,45
 135 744 135 744 201.5 819.5 c 128,-1,46
 268 895 268 895 355 945 c 128,-1,47
 442 995 442 995 537 1026 c 1,48,-1
 329 1365 l 1,49,-1
 348 1484 l 1,50,-1
 951 1484 l 1,51,-1
 929 1352 l 1,52,-1
 624 1352 l 2,22,23
EndSplineSet
EndChar

StartChar: epsilon
Encoding: 949 949 382
Width: 737
GlyphClass: 2
Flags: W
LayerCount: 2
Fore
SplineSet
328 116 m 0,0,1
 415 116 415 116 481 156 c 128,-1,2
 547 196 547 196 604 264 c 1,3,-1
 676 159 l 1,4,5
 641 116 641 116 604 83 c 128,-1,6
 567 50 567 50 524.5 27 c 128,-1,7
 482 4 482 4 431.5 -8 c 128,-1,8
 381 -20 381 -20 319 -20 c 0,9,10
 250 -20 250 -20 196 1.5 c 128,-1,11
 142 23 142 23 104.5 62.5 c 128,-1,12
 67 102 67 102 47.5 157 c 128,-1,13
 28 212 28 212 28 278 c 0,14,15
 28 341 28 341 47 393 c 128,-1,16
 66 445 66 445 101 484 c 128,-1,17
 136 523 136 523 184.5 547.5 c 128,-1,18
 233 572 233 572 291 579 c 1,19,-1
 292 581 l 1,20,21
 260 592 260 592 232 611.5 c 128,-1,22
 204 631 204 631 182.5 659.5 c 128,-1,23
 161 688 161 688 149 725 c 128,-1,24
 137 762 137 762 137 806 c 0,25,26
 137 879 137 879 160 934.5 c 128,-1,27
 183 990 183 990 226 1027 c 128,-1,28
 269 1064 269 1064 329 1082.5 c 128,-1,29
 389 1101 389 1101 463 1101 c 0,30,31
 514 1101 514 1101 557.5 1092 c 128,-1,32
 601 1083 601 1083 637.5 1063 c 128,-1,33
 674 1043 674 1043 704 1010 c 128,-1,34
 734 977 734 977 757 930 c 1,35,-1
 646 846 l 1,36,37
 612 909 612 909 567 937 c 128,-1,38
 522 965 522 965 460 965 c 0,39,40
 425 965 425 965 393 955 c 128,-1,41
 361 945 361 945 337.5 924 c 128,-1,42
 314 903 314 903 299.5 871 c 128,-1,43
 285 839 285 839 285 796 c 0,44,45
 285 751 285 751 306 720 c 128,-1,46
 327 689 327 689 363 670.5 c 128,-1,47
 399 652 399 652 448 644 c 128,-1,48
 497 636 497 636 554 636 c 1,49,-1
 531 495 l 1,50,51
 488 495 488 495 446 493.5 c 128,-1,52
 404 492 404 492 365 486 c 128,-1,53
 326 480 326 480 292 466.5 c 128,-1,54
 258 453 258 453 233.5 429.5 c 128,-1,55
 209 406 209 406 194.5 369.5 c 128,-1,56
 180 333 180 333 180 281 c 0,57,58
 180 245 180 245 190.5 214.5 c 128,-1,59
 201 184 201 184 221 162.5 c 128,-1,60
 241 141 241 141 268 128.5 c 128,-1,61
 295 116 295 116 328 116 c 0,0,1
EndSplineSet
EndChar

StartChar: zeta
Encoding: 950 950 383
Width: 778
GlyphClass: 2
Flags: W
LayerCount: 2
Fore
SplineSet
847 1484 m 1,0,-1
 826 1357 l 1,1,2
 826 1357 826 1357 694 1204 c 1,3,-1
 554 1038 l 1,4,5
 485 952 485 952 422 863 c 128,-1,6
 359 774 359 774 311 684.5 c 128,-1,7
 263 595 263 595 234.5 506 c 128,-1,8
 206 417 206 417 206 332 c 0,9,10
 206 289 206 289 218.5 259.5 c 128,-1,11
 231 230 231 230 256 208 c 128,-1,12
 281 186 281 186 318.5 170 c 128,-1,13
 356 154 356 154 405 137 c 0,14,15
 452 121 452 121 491.5 103.5 c 128,-1,16
 531 86 531 86 560.5 61 c 128,-1,17
 590 36 590 36 607 1 c 128,-1,18
 624 -34 624 -34 624 -85 c 0,19,20
 624 -128 624 -128 613 -166.5 c 128,-1,21
 602 -205 602 -205 585 -240.5 c 128,-1,22
 568 -276 568 -276 547 -307 c 2,23,-1
 507 -366 l 1,24,-1
 423 -294 l 1,25,-1
 445 -262 l 2,26,27
 457 -245 457 -245 466.5 -224.5 c 128,-1,28
 476 -204 476 -204 482.5 -182.5 c 128,-1,29
 489 -161 489 -161 489 -140 c 0,30,31
 489 -113 489 -113 477 -93.5 c 128,-1,32
 465 -74 465 -74 440.5 -58 c 128,-1,33
 416 -42 416 -42 380.5 -28.5 c 128,-1,34
 345 -15 345 -15 299 -1 c 0,35,36
 247 15 247 15 202 37.5 c 128,-1,37
 157 60 157 60 123 94.5 c 128,-1,38
 89 129 89 129 69.5 178 c 128,-1,39
 50 227 50 227 50 294 c 0,40,41
 50 387 50 387 78.5 482 c 128,-1,42
 107 577 107 577 156 670.5 c 128,-1,43
 205 764 205 764 269 855.5 c 128,-1,44
 333 947 333 947 404 1033.5 c 128,-1,45
 475 1120 475 1120 548 1200 c 2,46,-1
 686 1353 l 1,47,-1
 687 1359 l 1,48,49
 677 1358 677 1358 657.5 1357 c 128,-1,50
 638 1356 638 1356 616 1355 c 128,-1,51
 594 1354 594 1354 573.5 1353.5 c 128,-1,52
 553 1353 553 1353 544 1353 c 2,53,-1
 299 1353 l 1,54,-1
 321 1484 l 1,55,-1
 847 1484 l 1,0,-1
EndSplineSet
EndChar

StartChar: eta
Encoding: 951 951 384
Width: 934
GlyphClass: 2
Flags: W
LayerCount: 2
Fore
SplineSet
521 -425 m 1,0,-1
 692 645 l 2,1,2
 699 684 699 684 703 724.5 c 128,-1,3
 707 765 707 765 707 795 c 0,4,5
 707 874 707 874 672.5 918 c 128,-1,6
 638 962 638 962 560 962 c 0,7,8
 507 962 507 962 461 936.5 c 128,-1,9
 415 911 415 911 377 864.5 c 128,-1,10
 339 818 339 818 312.5 752.5 c 128,-1,11
 286 687 286 687 273 606 c 2,12,-1
 176 0 l 1,13,-1
 28 0 l 1,14,-1
 155 789 l 2,15,16
 159 812 159 812 162 835 c 128,-1,17
 165 858 165 858 167 879 c 2,18,-1
 170 917 l 2,19,20
 172 934 172 934 172 944 c 0,21,22
 172 955 172 955 171 974 c 2,23,-1
 169 1012 l 1,24,-1
 167 1050 l 2,25,26
 166 1069 166 1069 164 1082 c 1,27,-1
 301 1082 l 1,28,29
 303 1070 303 1070 305.5 1048 c 128,-1,30
 308 1026 308 1026 309.5 999.5 c 128,-1,31
 311 973 311 973 312 946 c 128,-1,32
 313 919 313 919 313 897 c 1,33,-1
 315 897 l 1,34,35
 343 944 343 944 373 982 c 128,-1,36
 403 1020 403 1020 438.5 1046.5 c 128,-1,37
 474 1073 474 1073 517 1087 c 128,-1,38
 560 1101 560 1101 615 1101 c 0,39,40
 737 1101 737 1101 798 1028 c 128,-1,41
 859 955 859 955 859 817 c 0,42,43
 859 781 859 781 854 736 c 128,-1,44
 849 691 849 691 842 653 c 2,45,-1
 669 -425 l 1,46,-1
 521 -425 l 1,0,-1
EndSplineSet
EndChar

StartChar: theta
Encoding: 952 952 385
Width: 911
GlyphClass: 2
Flags: W
LayerCount: 2
Fore
SplineSet
597 1484 m 0,0,1
 749 1484 749 1484 822.5 1367.5 c 128,-1,2
 896 1251 896 1251 896 1028 c 0,3,4
 896 964 896 964 888.5 882 c 128,-1,5
 881 800 881 800 868 709 c 1,6,7
 838 519 838 519 792 381 c 128,-1,8
 746 243 746 243 685.5 154 c 128,-1,9
 625 65 625 65 548 22.5 c 128,-1,10
 471 -20 471 -20 377 -20 c 0,11,12
 310 -20 310 -20 256 9.5 c 128,-1,13
 202 39 202 39 163.5 99 c 128,-1,14
 125 159 125 159 104 248.5 c 128,-1,15
 83 338 83 338 83 458 c 0,16,17
 83 516 83 516 88.5 589.5 c 128,-1,18
 94 663 94 663 107 743 c 0,19,20
 167 1117 167 1117 287 1300.5 c 128,-1,21
 407 1484 407 1484 597 1484 c 0,0,1
383 113 m 0,22,23
 434 113 434 113 480 139 c 128,-1,24
 526 165 526 165 567 229 c 128,-1,25
 608 293 608 293 643 401 c 128,-1,26
 678 509 678 509 707 673 c 1,27,-1
 248 673 l 1,28,29
 237 592 237 592 232 526 c 128,-1,30
 227 460 227 460 227 406 c 0,31,32
 227 323 227 323 238.5 266.5 c 128,-1,33
 250 210 250 210 271 176 c 128,-1,34
 292 142 292 142 320.5 127.5 c 128,-1,35
 349 113 349 113 383 113 c 0,22,23
590 1355 m 0,36,37
 540 1355 540 1355 494.5 1329.5 c 128,-1,38
 449 1304 449 1304 408.5 1241 c 128,-1,39
 368 1178 368 1178 333.5 1071.5 c 128,-1,40
 299 965 299 965 271 804 c 1,41,-1
 730 804 l 1,42,43
 741 886 741 886 746.5 953 c 128,-1,44
 752 1020 752 1020 752 1074 c 0,45,46
 752 1154 752 1154 740.5 1208 c 128,-1,47
 729 1262 729 1262 708 1294.5 c 128,-1,48
 687 1327 687 1327 657 1341 c 128,-1,49
 627 1355 627 1355 590 1355 c 0,36,37
EndSplineSet
EndChar

StartChar: iota
Encoding: 953 953 386
Width: 467
GlyphClass: 2
Flags: W
LayerCount: 2
Fore
SplineSet
250 139 m 0,0,1
 250 101 250 101 263 65 c 128,-1,2
 276 29 276 29 297 0 c 1,3,-1
 93 0 l 1,4,5
 79 20 79 20 72 52.5 c 128,-1,6
 65 85 65 85 65 125 c 0,7,8
 65 152 65 152 68 180.5 c 128,-1,9
 71 209 71 209 76 236 c 2,10,-1
 245 1082 l 1,11,-1
 430 1082 l 1,12,-1
 260 227 l 2,13,14
 256 207 256 207 253 182 c 128,-1,15
 250 157 250 157 250 139 c 0,0,1
EndSplineSet
EndChar

StartChar: kappa
Encoding: 954 954 387
Width: 840
GlyphClass: 2
Flags: W
LayerCount: 2
Fore
SplineSet
591 0 m 1,0,-1
 372 502 l 1,1,-1
 234 378 l 1,2,-1
 175 0 l 1,3,-1
 28 0 l 1,4,-1
 200 1082 l 1,5,-1
 348 1082 l 1,6,-1
 265 567 l 1,7,-1
 432 757 l 1,8,-1
 728 1082 l 1,9,-1
 911 1082 l 1,10,-1
 476 617 l 1,11,-1
 751 0 l 1,12,-1
 591 0 l 1,0,-1
EndSplineSet
EndChar

StartChar: lambda
Encoding: 955 955 388
Width: 827
GlyphClass: 2
Flags: W
LayerCount: 2
Fore
SplineSet
456 981 m 1,0,-1
 442 1080 l 2,1,2
 432 1154 432 1154 422.5 1203.5 c 128,-1,3
 413 1253 413 1253 399.5 1283.5 c 128,-1,4
 386 1314 386 1314 366.5 1327 c 128,-1,5
 347 1340 347 1340 318 1340 c 0,6,7
 302 1340 302 1340 284.5 1336 c 128,-1,8
 267 1332 267 1332 261 1330 c 1,9,-1
 241 1460 l 1,10,11
 252 1465 252 1465 267.5 1469 c 128,-1,12
 283 1473 283 1473 300 1476.5 c 128,-1,13
 317 1480 317 1480 333.5 1482 c 128,-1,14
 350 1484 350 1484 363 1484 c 0,15,16
 407 1484 407 1484 439 1466 c 128,-1,17
 471 1448 471 1448 495 1407.5 c 128,-1,18
 519 1367 519 1367 536.5 1301.5 c 128,-1,19
 554 1236 554 1236 569 1141 c 2,20,-1
 738 0 l 1,21,-1
 590 0 l 1,22,-1
 488 766 l 1,23,-1
 85 0 l 1,24,-1
 -76 0 l 1,25,-1
 456 981 l 1,0,-1
EndSplineSet
EndChar

StartChar: mu
Encoding: 956 956 389
Width: 1180
GlyphClass: 2
Flags: W
LayerCount: 2
Fore
SplineSet
753 0 m 1,0,1
 754 6 754 6 757 29 c 2,2,-1
 764 82 l 2,3,4
 768 111 768 111 772.5 141 c 128,-1,5
 777 171 777 171 781 190 c 1,6,-1
 777 190 l 1,7,8
 748 140 748 140 718 101 c 128,-1,9
 688 62 688 62 652 35 c 128,-1,10
 616 8 616 8 574 -6 c 128,-1,11
 532 -20 532 -20 480 -20 c 0,12,13
 439 -20 439 -20 401 -12 c 128,-1,14
 363 -4 363 -4 332.5 12 c 128,-1,15
 302 28 302 28 280 50.5 c 128,-1,16
 258 73 258 73 246 102 c 1,17,-1
 242 102 l 1,18,19
 239 70 239 70 233 38 c 2,20,-1
 222 -20 l 1,21,-1
 145 -393 l 1,22,-1
 -45 -393 l 1,23,-1
 256 1082 l 1,24,-1
 447 1082 l 1,25,-1
 316 438 l 2,26,27
 303 377 303 377 303 323 c 0,28,29
 303 277 303 277 314 240 c 128,-1,30
 325 203 325 203 350 176.5 c 128,-1,31
 375 150 375 150 415 135.5 c 128,-1,32
 455 121 455 121 512 121 c 0,33,34
 575 121 575 121 627 147 c 128,-1,35
 679 173 679 173 719.5 218.5 c 128,-1,36
 760 264 760 264 787.5 327 c 128,-1,37
 815 390 815 390 829 465 c 1,38,-1
 955 1082 l 1,39,-1
 1145 1082 l 1,40,-1
 972 233 l 2,41,42
 965 199 965 199 958 161 c 2,43,-1
 944 90 l 2,44,45
 938 56 938 56 934 32 c 2,46,-1
 930 0 l 1,47,-1
 753 0 l 1,0,1
EndSplineSet
EndChar

StartChar: nu
Encoding: 957 957 390
Width: 840
GlyphClass: 2
Flags: W
LayerCount: 2
Fore
SplineSet
342 166 m 1,0,1
 422 278 422 278 485 375.5 c 128,-1,2
 548 473 548 473 591.5 566.5 c 128,-1,3
 635 660 635 660 658 756.5 c 128,-1,4
 681 853 681 853 681 962 c 0,5,6
 681 997 681 997 677.5 1026.5 c 128,-1,7
 674 1056 674 1056 669 1082 c 1,8,-1
 815 1082 l 1,9,10
 830 1031 830 1031 829 963 c 1,11,12
 829 838 829 838 789 713.5 c 128,-1,13
 749 589 749 589 684 467.5 c 128,-1,14
 619 346 619 346 536.5 228.5 c 128,-1,15
 454 111 454 111 368 0 c 1,16,-1
 231 0 l 1,17,-1
 81 1082 l 1,18,-1
 235 1082 l 1,19,-1
 342 166 l 1,0,1
EndSplineSet
EndChar

StartChar: xi
Encoding: 958 958 391
Width: 750
GlyphClass: 2
Flags: W
LayerCount: 2
Fore
SplineSet
793 1359 m 1,0,1
 749 1353 749 1353 704 1344 c 128,-1,2
 659 1335 659 1335 617.5 1321 c 128,-1,3
 576 1307 576 1307 540 1287 c 128,-1,4
 504 1267 504 1267 477 1239 c 128,-1,5
 450 1211 450 1211 435 1173 c 128,-1,6
 420 1135 420 1135 420 1085 c 0,7,8
 420 1027 420 1027 441.5 989.5 c 128,-1,9
 463 952 463 952 499.5 929 c 128,-1,10
 536 906 536 906 583 894.5 c 128,-1,11
 630 883 630 883 681 877 c 1,12,-1
 661 746 l 1,13,14
 608 738 608 738 553 722.5 c 128,-1,15
 498 707 498 707 447 683.5 c 128,-1,16
 396 660 396 660 351.5 627 c 128,-1,17
 307 594 307 594 273 550.5 c 128,-1,18
 239 507 239 507 220 453 c 128,-1,19
 201 399 201 399 201 332 c 0,20,21
 201 289 201 289 213.5 259.5 c 128,-1,22
 226 230 226 230 251 208 c 128,-1,23
 276 186 276 186 313.5 170 c 128,-1,24
 351 154 351 154 400 137 c 0,25,26
 447 121 447 121 486.5 103.5 c 128,-1,27
 526 86 526 86 555.5 61 c 128,-1,28
 585 36 585 36 602 1 c 128,-1,29
 619 -34 619 -34 619 -85 c 0,30,31
 619 -128 619 -128 608 -166.5 c 128,-1,32
 597 -205 597 -205 580 -240.5 c 128,-1,33
 563 -276 563 -276 542 -307 c 2,34,-1
 502 -366 l 1,35,-1
 418 -294 l 1,36,37
 418 -294 418 -294 440 -262 c 0,38,39
 452 -245 452 -245 461.5 -224.5 c 128,-1,40
 471 -204 471 -204 477.5 -182.5 c 128,-1,41
 484 -161 484 -161 484 -140 c 0,42,43
 484 -113 484 -113 472 -93.5 c 128,-1,44
 460 -74 460 -74 435.5 -58 c 128,-1,45
 411 -42 411 -42 375.5 -28.5 c 128,-1,46
 340 -15 340 -15 294 -1 c 0,47,48
 242 15 242 15 197 38.5 c 128,-1,49
 152 62 152 62 118 98 c 128,-1,50
 84 134 84 134 64.5 186 c 128,-1,51
 45 238 45 238 45 310 c 0,52,53
 45 402 45 402 76 484.5 c 128,-1,54
 107 567 107 567 166 633 c 128,-1,55
 225 699 225 699 308.5 745 c 128,-1,56
 392 791 392 791 497 810 c 1,57,-1
 497 815 l 1,58,59
 453 824 453 824 411.5 845 c 128,-1,60
 370 866 370 866 339 899 c 128,-1,61
 308 932 308 932 289 975.5 c 128,-1,62
 270 1019 270 1019 270 1073 c 0,63,64
 270 1143 270 1143 297.5 1191.5 c 128,-1,65
 325 1240 325 1240 366.5 1272.5 c 128,-1,66
 408 1305 408 1305 456.5 1324 c 128,-1,67
 505 1343 505 1343 547 1353 c 1,68,-1
 548 1361 l 1,69,70
 541 1361 541 1361 525.5 1360 c 128,-1,71
 510 1359 510 1359 489.5 1358 c 128,-1,72
 469 1357 469 1357 445.5 1356 c 128,-1,73
 422 1355 422 1355 400.5 1354.5 c 128,-1,74
 379 1354 379 1354 361 1353.5 c 128,-1,75
 343 1353 343 1353 333 1353 c 2,76,-1
 272 1353 l 1,77,-1
 293 1484 l 1,78,-1
 813 1484 l 1,79,-1
 793 1359 l 1,0,1
EndSplineSet
EndChar

StartChar: pi
Encoding: 960 960 393
Width: 1124
GlyphClass: 2
Flags: W
LayerCount: 2
Fore
SplineSet
828 266 m 2,0,1
 826 251 826 251 824.5 233.5 c 128,-1,2
 823 216 823 216 823 203 c 0,3,4
 823 155 823 155 840.5 138 c 128,-1,5
 858 121 858 121 882 121 c 0,6,7
 900 121 900 121 920 125.5 c 128,-1,8
 940 130 940 130 959 136 c 1,9,-1
 947 2 l 1,10,11
 919 -7 919 -7 887.5 -13.5 c 128,-1,12
 856 -20 856 -20 821 -20 c 0,13,14
 744 -20 744 -20 708.5 31.5 c 128,-1,15
 673 83 673 83 673 173 c 0,16,17
 673 196 673 196 676 225 c 128,-1,18
 679 254 679 254 682 271 c 2,19,-1
 789 951 l 1,20,-1
 460 951 l 1,21,-1
 448 879 l 1,22,23
 428 749 428 749 401 623 c 128,-1,24
 374 497 374 497 345 383 c 128,-1,25
 316 269 316 269 286 171.5 c 128,-1,26
 256 74 256 74 229 0 c 1,27,-1
 75 0 l 1,28,29
 103 76 103 76 134 174.5 c 128,-1,30
 165 273 165 273 196.5 386 c 128,-1,31
 228 499 228 499 255.5 622.5 c 128,-1,32
 283 746 283 746 303 871 c 0,33,34
 304 873 304 873 305.5 885.5 c 128,-1,35
 307 898 307 898 310 913 c 0,36,37
 313 931 313 931 315 951 c 1,38,39
 283 951 283 951 250.5 948 c 128,-1,40
 218 945 218 945 189 939.5 c 128,-1,41
 160 934 160 934 137.5 927.5 c 128,-1,42
 115 921 115 921 103 914 c 1,43,-1
 125 1053 l 1,44,45
 136 1059 136 1059 155 1064.5 c 128,-1,46
 174 1070 174 1070 195 1074 c 128,-1,47
 216 1078 216 1078 238.5 1080 c 128,-1,48
 261 1082 261 1082 280 1082 c 2,49,-1
 1149 1082 l 1,50,-1
 1128 951 l 1,51,-1
 936 951 l 1,52,-1
 828 266 l 2,0,1
EndSplineSet
EndChar

StartChar: rho
Encoding: 961 961 394
Width: 961
GlyphClass: 2
Flags: W
LayerCount: 2
Fore
SplineSet
557 1102 m 0,0,1
 637 1102 637 1102 702.5 1070.5 c 128,-1,2
 768 1039 768 1039 813.5 981 c 128,-1,3
 859 923 859 923 884 840 c 128,-1,4
 909 757 909 757 909 653 c 0,5,6
 909 617 909 617 906 576 c 128,-1,7
 903 535 903 535 896 493 c 0,8,9
 877 375 877 375 837 280 c 128,-1,10
 797 185 797 185 739.5 118.5 c 128,-1,11
 682 52 682 52 610.5 16 c 128,-1,12
 539 -20 539 -20 457 -20 c 0,13,14
 409 -20 409 -20 369.5 -9 c 128,-1,15
 330 2 330 2 297.5 21.5 c 128,-1,16
 265 41 265 41 240 67 c 128,-1,17
 215 93 215 93 193 123 c 1,18,-1
 190 123 l 1,19,20
 187 93 187 93 183 62 c 1,21,22
 178 32 178 32 174 0 c 1,23,-1
 106 -425 l 1,24,-1
 -41 -425 l 1,25,-1
 119 581 l 2,26,27
 138 701 138 701 173 797.5 c 128,-1,28
 208 894 208 894 261.5 961.5 c 128,-1,29
 315 1029 315 1029 388.5 1065.5 c 128,-1,30
 462 1102 462 1102 557 1102 c 0,0,1
544 969 m 0,31,32
 483 969 483 969 437.5 941 c 128,-1,33
 392 913 392 913 358.5 861.5 c 128,-1,34
 325 810 325 810 302.5 737.5 c 128,-1,35
 280 665 280 665 266 577 c 2,36,-1
 215 260 l 1,37,38
 232 233 232 233 258 206.5 c 128,-1,39
 284 180 284 180 315 159.5 c 128,-1,40
 346 139 346 139 380.5 126 c 128,-1,41
 415 113 415 113 451 113 c 0,42,43
 509 113 509 113 556 140 c 128,-1,44
 603 167 603 167 638.5 218 c 128,-1,45
 674 269 674 269 699 342.5 c 128,-1,46
 724 416 724 416 739 508 c 0,47,48
 752 587 752 587 752 658 c 0,49,50
 752 810 752 810 697 889.5 c 128,-1,51
 642 969 642 969 544 969 c 0,31,32
EndSplineSet
EndChar

StartChar: sigma1
Encoding: 962 962 395
Width: 817
GlyphClass: 2
Flags: W
LayerCount: 2
Fore
SplineSet
55 330 m 0,0,1
 55 404 55 404 68.5 490 c 128,-1,2
 82 576 82 576 109 661.5 c 128,-1,3
 136 747 136 747 177 827 c 128,-1,4
 218 907 218 907 274 968 c 128,-1,5
 330 1029 330 1029 400 1065.5 c 128,-1,6
 470 1102 470 1102 555 1102 c 0,7,8
 606 1102 606 1102 644.5 1092 c 128,-1,9
 683 1082 683 1082 714 1063.5 c 128,-1,10
 745 1045 745 1045 768.5 1019.5 c 128,-1,11
 792 994 792 994 812 963 c 1,12,-1
 701 855 l 1,13,14
 673 900 673 900 634 930.5 c 128,-1,15
 595 961 595 961 543 961 c 0,16,17
 493 961 493 961 449 934 c 128,-1,18
 405 907 405 907 368 861 c 128,-1,19
 331 815 331 815 302 754 c 128,-1,20
 273 693 273 693 253 624.5 c 128,-1,21
 233 556 233 556 222.5 484 c 128,-1,22
 212 412 212 412 212 344 c 0,23,24
 212 298 212 298 224.5 266 c 128,-1,25
 237 234 237 234 261.5 211 c 128,-1,26
 286 188 286 188 323.5 171 c 128,-1,27
 361 154 361 154 410 137 c 0,28,29
 457 121 457 121 496.5 103.5 c 128,-1,30
 536 86 536 86 566 61 c 128,-1,31
 596 36 596 36 612.5 1 c 128,-1,32
 629 -34 629 -34 629 -85 c 0,33,34
 629 -128 629 -128 618 -166.5 c 128,-1,35
 607 -205 607 -205 590 -240.5 c 128,-1,36
 573 -276 573 -276 552 -307 c 2,37,-1
 512 -366 l 1,38,-1
 428 -294 l 1,39,40
 428 -294 428 -294 450 -262 c 0,41,42
 462 -245 462 -245 472 -224.5 c 128,-1,43
 482 -204 482 -204 488.5 -182.5 c 128,-1,44
 495 -161 495 -161 495 -140 c 0,45,46
 495 -113 495 -113 482.5 -93.5 c 128,-1,47
 470 -74 470 -74 446 -58 c 128,-1,48
 422 -42 422 -42 386 -28.5 c 128,-1,49
 350 -15 350 -15 304 -1 c 0,50,51
 252 15 252 15 207 39 c 128,-1,52
 162 63 162 63 128 101.5 c 128,-1,53
 94 140 94 140 74.5 196 c 128,-1,54
 55 252 55 252 55 330 c 0,0,1
EndSplineSet
EndChar

StartChar: sigma
Encoding: 963 963 396
Width: 1014
GlyphClass: 2
Flags: W
LayerCount: 2
Fore
SplineSet
402 -20 m 0,0,1
 317 -20 317 -20 252 11 c 128,-1,2
 187 42 187 42 143.5 98 c 128,-1,3
 100 154 100 154 78 234 c 128,-1,4
 56 314 56 314 56 411 c 0,5,6
 56 447 56 447 59 489 c 128,-1,7
 62 531 62 531 68 571 c 0,8,9
 91 715 91 715 143 813 c 128,-1,10
 195 911 195 911 268 970.5 c 128,-1,11
 341 1030 341 1030 429 1056 c 128,-1,12
 517 1082 517 1082 613 1082 c 2,13,-1
 1067 1082 l 1,14,-1
 1045 951 l 1,15,-1
 926 951 l 2,16,17
 919 951 919 951 904.5 951.5 c 128,-1,18
 890 952 890 952 873 953 c 2,19,-1
 838 955 l 2,20,21
 820 956 820 956 806 957 c 1,22,-1
 805 953 l 1,23,24
 829 892 829 892 848.5 810.5 c 128,-1,25
 868 729 868 729 868 632 c 0,26,27
 868 498 868 498 839.5 379 c 128,-1,28
 811 260 811 260 753.5 171.5 c 128,-1,29
 696 83 696 83 608.5 31.5 c 128,-1,30
 521 -20 521 -20 402 -20 c 0,0,1
411 113 m 0,31,32
 497 113 497 113 555 155 c 128,-1,33
 613 197 613 197 649 272 c 128,-1,34
 685 347 685 347 700.5 451.5 c 128,-1,35
 716 556 716 556 716 681 c 0,36,37
 716 762 716 762 706.5 829.5 c 128,-1,38
 697 897 697 897 684 951 c 1,39,-1
 616 951 l 2,40,41
 549 951 549 951 485.5 931 c 128,-1,42
 422 911 422 911 369.5 864.5 c 128,-1,43
 317 818 317 818 279 743 c 128,-1,44
 241 668 241 668 223 558 c 0,45,46
 216 517 216 517 213 480.5 c 128,-1,47
 210 444 210 444 210 409 c 0,48,49
 210 270 210 270 262 191.5 c 128,-1,50
 314 113 314 113 411 113 c 0,31,32
EndSplineSet
EndChar

StartChar: tau
Encoding: 964 964 397
Width: 629
GlyphClass: 2
Flags: W
LayerCount: 2
Fore
SplineSet
274 951 m 2,0,1
 242 951 242 951 209.5 948 c 128,-1,2
 177 945 177 945 147.5 939.5 c 128,-1,3
 118 934 118 934 95.5 927.5 c 128,-1,4
 73 921 73 921 62 914 c 1,5,-1
 84 1053 l 1,6,7
 95 1059 95 1059 113.5 1064.5 c 128,-1,8
 132 1070 132 1070 153.5 1074 c 128,-1,9
 175 1078 175 1078 197.5 1080 c 128,-1,10
 220 1082 220 1082 239 1082 c 2,11,-1
 715 1082 l 1,12,-1
 694 951 l 1,13,-1
 444 951 l 1,14,-1
 335 266 l 2,15,16
 333 251 333 251 331 233.5 c 128,-1,17
 329 216 329 216 329 203 c 0,18,19
 329 155 329 155 347 138 c 128,-1,20
 365 121 365 121 388 121 c 0,21,22
 406 121 406 121 426.5 125.5 c 128,-1,23
 447 130 447 130 466 136 c 1,24,-1
 454 2 l 1,25,26
 426 -7 426 -7 394.5 -13.5 c 128,-1,27
 363 -20 363 -20 328 -20 c 0,28,29
 251 -20 251 -20 215.5 31.5 c 128,-1,30
 180 83 180 83 180 173 c 0,31,32
 180 196 180 196 182.5 224.5 c 128,-1,33
 185 253 185 253 188 271 c 2,34,-1
 296 951 l 1,35,-1
 274 951 l 2,0,1
EndSplineSet
EndChar

StartChar: upsilon
Encoding: 965 965 398
Width: 924
GlyphClass: 2
Flags: W
LayerCount: 2
Fore
SplineSet
341 1082 m 1,0,-1
 242 461 l 2,1,2
 231 388 231 388 231 332 c 0,3,4
 231 231 231 231 271.5 175 c 128,-1,5
 312 119 312 119 399 119 c 0,6,7
 459 119 459 119 505 146.5 c 128,-1,8
 551 174 551 174 584.5 221.5 c 128,-1,9
 618 269 618 269 641.5 334 c 128,-1,10
 665 399 665 399 679 474 c 128,-1,11
 693 549 693 549 699 631 c 128,-1,12
 705 713 705 713 705 795 c 0,13,14
 705 882 705 882 695.5 958 c 128,-1,15
 686 1034 686 1034 677 1082 c 1,16,-1
 831 1082 l 1,17,18
 842 1032 842 1032 850 959.5 c 128,-1,19
 858 887 858 887 858 799 c 0,20,21
 858 696 858 696 846.5 595 c 128,-1,22
 835 494 835 494 810 403 c 128,-1,23
 785 312 785 312 747 234.5 c 128,-1,24
 709 157 709 157 656.5 100.5 c 128,-1,25
 604 44 604 44 536.5 12 c 128,-1,26
 469 -20 469 -20 385 -20 c 0,27,28
 319 -20 319 -20 264 2 c 128,-1,29
 209 24 209 24 169.5 68 c 128,-1,30
 130 112 130 112 107.5 180 c 128,-1,31
 85 248 85 248 85 339 c 0,32,33
 85 374 85 374 88.5 411.5 c 128,-1,34
 92 449 92 449 98 491 c 2,35,-1
 193 1082 l 1,36,-1
 341 1082 l 1,0,-1
EndSplineSet
EndChar

